<svg width="1921" height="1477" viewBox="0 0 1921 1477" fill="none" xmlns="http://www.w3.org/2000/svg">
<g filter="url(#filter0_d)">
<path fill-rule="evenodd" clip-rule="evenodd" d="M22.8394 619.871H529.684V215.351H22.8394V619.871Z" fill="#EFE6EC"/>
<path fill-rule="evenodd" clip-rule="evenodd" d="M276.263 619.741C275.446 619.741 274.784 619.079 274.784 618.263V213.742C274.784 212.927 275.446 212.264 276.263 212.264C277.079 212.264 277.741 212.927 277.741 213.742V618.263C277.741 619.079 277.079 619.741 276.263 619.741Z" fill="#2A1840"/>
<path fill-rule="evenodd" clip-rule="evenodd" d="M529.685 419.09H22.8397C22.0238 419.09 21.3616 418.427 21.3616 417.612C21.3616 416.795 22.0238 416.132 22.8397 416.132H529.685C530.501 416.132 531.163 416.795 531.163 417.612C531.163 418.427 530.501 419.09 529.685 419.09Z" fill="#2A1840"/>
<path fill-rule="evenodd" clip-rule="evenodd" d="M47.2622 394.016H251.448V237.71H47.2622V394.016Z" fill="#CEC6F7"/>
<path fill-rule="evenodd" clip-rule="evenodd" d="M47.2622 597.512H251.448V441.205H47.2622V597.512Z" fill="#CEC6F7"/>
<path fill-rule="evenodd" clip-rule="evenodd" d="M299.846 394.016H504.032V237.71H299.846V394.016Z" fill="#CEC6F7"/>
<path fill-rule="evenodd" clip-rule="evenodd" d="M299.846 597.512H504.032V441.205H299.846V597.512Z" fill="#CEC6F7"/>
<path fill-rule="evenodd" clip-rule="evenodd" d="M4.49561 648.69H548.167V620.83H4.49561V648.69Z" fill="#F0D4DA"/>
<path fill-rule="evenodd" clip-rule="evenodd" d="M529.685 621.35H22.8397C22.0238 621.35 21.3616 620.688 21.3616 619.872C21.3616 619.055 22.0238 618.393 22.8397 618.393H529.685C530.501 618.393 531.163 619.055 531.163 619.872C531.163 620.688 530.501 621.35 529.685 621.35Z" fill="#2A1840"/>
<mask id="mask0" mask-type="alpha" maskUnits="userSpaceOnUse" x="22" y="215" width="508" height="355">
<path fill-rule="evenodd" clip-rule="evenodd" d="M22.8394 215.351H529.684V569.667H22.8394V215.351Z" fill="white"/>
</mask>
<g mask="url(#mask0)">
<path opacity="0.35" fill-rule="evenodd" clip-rule="evenodd" d="M-85.2773 502.571L478.803 198.242L569.023 221.517L-65.1639 569.667L-85.2773 502.571Z" fill="white"/>
</g>
<mask id="mask1" mask-type="alpha" maskUnits="userSpaceOnUse" x="22" y="230" width="508" height="390">
<path fill-rule="evenodd" clip-rule="evenodd" d="M22.8394 230.165H529.684V619.871H22.8394V230.165Z" fill="white"/>
</mask>
<g mask="url(#mask1)">
<path opacity="0.35" fill-rule="evenodd" clip-rule="evenodd" d="M-41.5015 578.562L590.29 230.165L602.733 354.394L48.3244 676.009C48.3244 676.009 -39.1348 712.812 -41.5015 578.562Z" fill="white"/>
</g>
<path fill-rule="evenodd" clip-rule="evenodd" d="M1456.08 449.859L1465.47 541.802H1483.95L1493.34 449.859H1456.08Z" fill="#C8A4B5"/>
<path fill-rule="evenodd" clip-rule="evenodd" d="M1819.95 449.859L1829.34 541.802H1847.82L1857.21 449.859H1819.95Z" fill="#C8A4B5"/>
<path fill-rule="evenodd" clip-rule="evenodd" d="M1465.33 439.379H1481.91V376.372H1465.33V439.379Z" fill="#603152"/>
<path fill-rule="evenodd" clip-rule="evenodd" d="M1448.74 439.379H1465.33V376.373L1448.74 439.379Z" fill="#603152"/>
<path fill-rule="evenodd" clip-rule="evenodd" d="M1666.84 439.379H1683.42V376.372H1666.84V439.379Z" fill="#603152"/>
<path fill-rule="evenodd" clip-rule="evenodd" d="M1700.01 439.379H1683.42V376.373L1700.01 439.379Z" fill="#603152"/>
<path fill-rule="evenodd" clip-rule="evenodd" d="M1535.2 433.22H1589.49V213.88H1535.2V433.22Z" fill="#CEC6F7"/>
<path fill-rule="evenodd" clip-rule="evenodd" d="M1562.35 393.5C1561.62 393.5 1561.03 392.912 1561.03 392.187V266.502C1561.03 265.776 1561.62 265.188 1562.35 265.188C1563.07 265.188 1563.66 265.776 1563.66 266.502V392.187C1563.66 392.912 1563.07 393.5 1562.35 393.5Z" fill="#2A1840"/>
<mask id="mask2" mask-type="alpha" maskUnits="userSpaceOnUse" x="1396" y="213" width="521" height="329">
<path fill-rule="evenodd" clip-rule="evenodd" d="M1396.54 541.802H1916.75V213.879H1396.54V541.802Z" fill="white"/>
</mask>
<g mask="url(#mask2)">
<path fill-rule="evenodd" clip-rule="evenodd" d="M1589.63 433.219H1629.34V255.326H1589.63V433.219Z" fill="#50478B"/>
<path fill-rule="evenodd" clip-rule="evenodd" d="M1609.48 400.684C1608.76 400.684 1608.17 400.095 1608.17 399.37V298.379C1608.17 297.653 1608.76 297.065 1609.48 297.065C1610.21 297.065 1610.8 297.653 1610.8 298.379V399.37C1610.8 400.095 1610.21 400.684 1609.48 400.684Z" fill="#2A1840"/>
<path fill-rule="evenodd" clip-rule="evenodd" d="M1619.53 278.228C1619.53 283.777 1615.03 288.274 1609.48 288.274C1603.94 288.274 1599.44 283.777 1599.44 278.228C1599.44 272.68 1603.94 268.182 1609.48 268.182C1615.03 268.182 1619.53 272.68 1619.53 278.228Z" fill="white"/>
<path fill-rule="evenodd" clip-rule="evenodd" d="M1614.51 414.779C1614.51 417.554 1612.26 419.802 1609.48 419.802C1606.71 419.802 1604.46 417.554 1604.46 414.779C1604.46 412.005 1606.71 409.756 1609.48 409.756C1612.26 409.756 1614.51 412.005 1614.51 414.779Z" fill="white"/>
<path fill-rule="evenodd" clip-rule="evenodd" d="M1481.24 433.219H1535.53V255.326H1481.24V433.219Z" fill="#E3C3BB"/>
<path fill-rule="evenodd" clip-rule="evenodd" d="M1508.39 399.97C1507.66 399.97 1507.07 399.382 1507.07 398.657V301.29C1507.07 300.565 1507.66 299.977 1508.39 299.977C1509.11 299.977 1509.7 300.565 1509.7 301.29V398.657C1509.7 399.382 1509.11 399.97 1508.39 399.97Z" fill="#2A1840"/>
<path fill-rule="evenodd" clip-rule="evenodd" d="M1518.43 278.228C1518.43 283.777 1513.94 288.274 1508.39 288.274C1502.84 288.274 1498.34 283.777 1498.34 278.228C1498.34 272.68 1502.84 268.182 1508.39 268.182C1513.94 268.182 1518.43 272.68 1518.43 278.228Z" fill="white"/>
<path fill-rule="evenodd" clip-rule="evenodd" d="M1519.89 421.868H1496.89C1494.6 421.868 1492.75 420.014 1492.75 417.727C1492.75 415.441 1494.6 413.586 1496.89 413.586H1519.89C1522.18 413.586 1524.03 415.441 1524.03 417.727C1524.03 420.014 1522.18 421.868 1519.89 421.868Z" fill="white"/>
<path fill-rule="evenodd" clip-rule="evenodd" d="M1629.23 433.219H1666.84V297.841H1629.23V433.219Z" fill="#C1989A"/>
<path fill-rule="evenodd" clip-rule="evenodd" d="M1648.04 394.869C1647.31 394.869 1646.72 394.281 1646.72 393.556V327.741C1646.72 327.015 1647.31 326.426 1648.04 326.426C1648.76 326.426 1649.35 327.015 1649.35 327.741V393.556C1649.35 394.281 1648.76 394.869 1648.04 394.869Z" fill="#2A1840"/>
<path fill-rule="evenodd" clip-rule="evenodd" d="M1654.79 413.054C1654.79 416.781 1651.76 419.802 1648.04 419.802C1644.31 419.802 1641.29 416.781 1641.29 413.054C1641.29 409.327 1644.31 406.306 1648.04 406.306C1651.76 406.306 1654.79 409.327 1654.79 413.054Z" fill="white"/>
<path fill-rule="evenodd" clip-rule="evenodd" d="M1655.83 315.438H1640.24C1637.96 315.438 1636.1 313.584 1636.1 311.297C1636.1 309.01 1637.96 307.156 1640.24 307.156H1655.83C1658.12 307.156 1659.97 309.01 1659.97 311.297C1659.97 313.584 1658.12 315.438 1655.83 315.438Z" fill="white"/>
<path fill-rule="evenodd" clip-rule="evenodd" d="M1550.62 251.143H1574.08V227.679H1550.62V251.143Z" fill="white"/>
<path fill-rule="evenodd" clip-rule="evenodd" d="M1550.62 418.038H1574.08V406.306H1550.62V418.038Z" fill="white"/>
<path fill-rule="evenodd" clip-rule="evenodd" d="M1861.8 376.373C1861.8 408.804 1835.51 435.095 1803.08 435.095C1770.65 435.095 1744.35 408.804 1744.35 376.373C1744.35 343.941 1770.65 317.649 1803.08 317.649C1835.51 317.649 1861.8 343.941 1861.8 376.373Z" fill="#D583AD"/>
<path fill-rule="evenodd" clip-rule="evenodd" d="M1815.19 328.482H1790.96L1773.93 271.342C1773.26 269.073 1774.96 266.791 1777.32 266.791H1828.83C1831.2 266.791 1832.9 269.073 1832.22 271.342L1815.19 328.482Z" fill="#D583AD"/>
<path fill-rule="evenodd" clip-rule="evenodd" d="M1828.6 284.807H1777.55C1776.83 284.807 1776.24 284.218 1776.24 283.493C1776.24 282.768 1776.83 282.18 1777.55 282.18H1828.6C1829.33 282.18 1829.91 282.768 1829.91 283.493C1829.91 284.218 1829.33 284.807 1828.6 284.807Z" fill="#2A1840"/>
</g>
<mask id="mask3" mask-type="alpha" maskUnits="userSpaceOnUse" x="1744" y="266" width="118" height="170">
<path fill-rule="evenodd" clip-rule="evenodd" d="M1777.32 266.791C1774.96 266.791 1773.26 269.072 1773.93 271.342L1788.29 319.529C1763.02 326.084 1744.35 349.048 1744.35 376.373C1744.35 408.805 1770.64 435.096 1803.08 435.096C1835.51 435.096 1861.8 408.805 1861.8 376.373C1861.8 349.048 1843.14 326.084 1817.86 319.529L1832.22 271.342C1832.9 269.072 1831.2 266.791 1828.83 266.791H1777.32Z" fill="white"/>
</mask>
<g mask="url(#mask3)">
<path fill-rule="evenodd" clip-rule="evenodd" d="M1838.61 322.672L1777.56 382.554L1792.01 382.267L1779.36 400.952L1794.6 399.563L1785.41 419.996L1820.52 401.404L1787 426.921L1823.49 414L1812.45 437.787L1887.34 391.816L1838.61 322.672Z" fill="#50478B"/>
</g>
<mask id="mask4" mask-type="alpha" maskUnits="userSpaceOnUse" x="1396" y="431" width="521" height="38">
<path fill-rule="evenodd" clip-rule="evenodd" d="M1396.54 431.232H1916.75V468.486H1396.54V431.232Z" fill="white"/>
</mask>
<g mask="url(#mask4)">
<path fill-rule="evenodd" clip-rule="evenodd" d="M1396.74 468.486H1916.55V431.232H1396.74V468.486Z" fill="#E6BECF"/>
<path fill-rule="evenodd" clip-rule="evenodd" d="M1915.44 451.173H1397.85C1397.13 451.173 1396.54 450.584 1396.54 449.859C1396.54 449.133 1397.13 448.546 1397.85 448.546H1915.44C1916.17 448.546 1916.75 449.133 1916.75 449.859C1916.75 450.584 1916.17 451.173 1915.44 451.173Z" fill="#E6BECF"/>
</g>
<mask id="mask5" mask-type="alpha" maskUnits="userSpaceOnUse" x="876" y="0" width="4" height="271">
<path fill-rule="evenodd" clip-rule="evenodd" d="M876.439 0H879.395V270.592H876.439V0Z" fill="white"/>
</mask>
<g mask="url(#mask5)">
<path fill-rule="evenodd" clip-rule="evenodd" d="M877.917 270.592C877.1 270.592 876.439 269.93 876.439 269.113V1.47814C876.439 0.662263 877.1 0 877.917 0C878.734 0 879.395 0.662263 879.395 1.47814V269.113C879.395 269.93 878.734 270.592 877.917 270.592Z" fill="#2A1840"/>
</g>
<path fill-rule="evenodd" clip-rule="evenodd" d="M916.916 390.327C916.916 411.866 899.456 429.327 877.917 429.327C856.378 429.327 838.917 411.866 838.917 390.327C838.917 368.788 856.378 351.327 877.917 351.327C899.456 351.327 916.916 368.788 916.916 390.327Z" fill="#E3C3BB"/>
<path fill-rule="evenodd" clip-rule="evenodd" d="M756.703 390.327C756.703 323.382 810.972 269.113 877.917 269.113C944.862 269.113 999.13 323.382 999.13 390.327H756.703Z" fill="#C45F87"/>
<path fill-rule="evenodd" clip-rule="evenodd" d="M883.307 419.547C882.643 419.547 882.041 419.098 881.873 418.426C881.676 417.634 882.158 416.832 882.95 416.634C900.075 412.364 900.309 398.63 900.31 398.047C900.313 397.232 900.974 396.571 901.789 396.571C902.603 396.571 903.265 397.228 903.267 398.042C903.267 398.207 903.097 414.658 883.665 419.503C883.545 419.532 883.425 419.547 883.307 419.547Z" fill="white"/>
<mask id="mask6" mask-type="alpha" maskUnits="userSpaceOnUse" x="756" y="269" width="244" height="122">
<path fill-rule="evenodd" clip-rule="evenodd" d="M756.703 390.327H999.129C999.129 323.383 944.861 269.113 877.918 269.113C810.972 269.113 756.703 323.383 756.703 390.327Z" fill="white"/>
</mask>
<g mask="url(#mask6)">
<path fill-rule="evenodd" clip-rule="evenodd" d="M722.861 400.876C722.563 400.876 722.262 400.786 722.001 400.6C721.337 400.125 721.185 399.201 721.659 398.538C736.85 377.309 753.795 355.135 774.745 336.777C797.386 316.939 822.343 304.168 846.918 299.842C856.351 298.183 862.816 299.518 866.677 303.928C870.959 308.825 870.889 316.837 866.485 325.361C864.8 328.623 862.795 331.739 860.854 334.753C858.283 338.749 855.622 342.88 853.786 347.273C851.06 353.792 849.885 363.58 855.541 369.705C858.851 373.288 864.348 375.244 870.689 375.095C883.931 374.762 895.25 366.792 907.622 357.195L1026.47 265.023C1027.11 264.523 1028.04 264.64 1028.54 265.285C1029.04 265.93 1028.92 266.859 1028.28 267.359L909.435 359.532C899.566 367.186 886.053 377.666 870.763 378.05C863.601 378.234 857.256 375.919 853.369 371.711C846.761 364.557 847.995 353.46 851.059 346.131C852.995 341.5 855.727 337.256 858.368 333.153C860.272 330.197 862.239 327.141 863.859 324.004C865.292 321.231 869.569 311.725 864.451 305.875C861.33 302.309 855.76 301.287 847.431 302.754C823.388 306.985 798.927 319.519 776.694 339C755.969 357.161 739.151 379.174 724.064 400.258C723.775 400.661 723.322 400.876 722.861 400.876Z" fill="#CF8CD2"/>
</g>
<mask id="mask7" mask-type="alpha" maskUnits="userSpaceOnUse" x="756" y="269" width="244" height="122">
<path fill-rule="evenodd" clip-rule="evenodd" d="M756.703 390.327H999.129C999.129 323.383 944.861 269.113 877.918 269.113C810.972 269.113 756.703 323.383 756.703 390.327Z" fill="white"/>
</mask>
<g mask="url(#mask7)">
<path fill-rule="evenodd" clip-rule="evenodd" d="M902.377 330.424C896.737 330.424 891.13 328.287 888.007 323.439C884.607 318.161 885.187 311.383 886.072 306.069C889.826 283.528 900.672 262.095 916.609 245.719C917.176 245.134 918.112 245.121 918.698 245.69C919.283 246.26 919.296 247.196 918.726 247.78C903.207 263.729 892.646 284.602 888.988 306.554C888.19 311.345 887.64 317.412 890.492 321.838C894.474 328.019 903.589 328.748 910.098 325.881C917.291 322.713 922.747 315.945 927.13 310.508C952.684 278.809 977.796 246.047 1001.77 213.132C1002.25 212.472 1003.17 212.327 1003.83 212.807C1004.49 213.288 1004.64 214.213 1004.16 214.873C980.158 247.827 955.017 280.627 929.432 312.364C924.847 318.051 919.142 325.129 911.288 328.586C908.58 329.78 905.473 330.424 902.377 330.424Z" fill="#CF8CD2"/>
</g>
<mask id="mask8" mask-type="alpha" maskUnits="userSpaceOnUse" x="756" y="269" width="244" height="122">
<path fill-rule="evenodd" clip-rule="evenodd" d="M756.703 390.327H999.129C999.129 323.383 944.861 269.113 877.918 269.113C810.972 269.113 756.703 323.383 756.703 390.327Z" fill="white"/>
</mask>
<g mask="url(#mask8)">
<path fill-rule="evenodd" clip-rule="evenodd" d="M988.656 404.71C983.741 404.71 979.013 403.971 974.64 402.473C959.824 397.397 949.56 382.519 951.272 368.602C952.304 360.217 957.372 351.812 965.928 344.295C983.595 328.773 1008.83 322.291 1031.79 327.376C1032.59 327.553 1033.1 328.342 1032.92 329.139C1032.74 329.937 1031.96 330.44 1031.16 330.262C1009.1 325.376 984.851 331.605 967.879 346.516C962.299 351.419 955.397 359.293 954.207 368.963C952.659 381.545 962.054 395.035 975.598 399.676C987.301 403.687 1001.82 401.846 1015.43 394.624C1027.86 388.029 1038.27 378.131 1048.33 368.56C1048.92 367.998 1049.86 368.02 1050.42 368.611C1050.98 369.203 1050.96 370.139 1050.37 370.702C1040.16 380.411 1029.61 390.451 1016.82 397.237C1007.51 402.174 997.764 404.71 988.656 404.71Z" fill="#CF8CD2"/>
</g>
<mask id="mask9" mask-type="alpha" maskUnits="userSpaceOnUse" x="756" y="269" width="244" height="122">
<path fill-rule="evenodd" clip-rule="evenodd" d="M756.703 390.327H999.129C999.129 323.383 944.861 269.113 877.918 269.113C810.972 269.113 756.703 323.383 756.703 390.327Z" fill="white"/>
</mask>
<g mask="url(#mask9)">
<path fill-rule="evenodd" clip-rule="evenodd" d="M813.603 454.879C813.486 454.879 813.368 454.865 813.249 454.836C812.456 454.641 811.972 453.84 812.166 453.047C818.066 429.083 824.166 404.303 822.257 379.286C821.437 368.545 818.448 361.612 813.119 358.092C805.459 353.033 794.977 356.344 787.533 360.013C763.036 372.085 743.478 394.833 735.213 420.862C734.966 421.64 734.136 422.071 733.357 421.823C732.579 421.577 732.147 420.746 732.395 419.967C740.899 393.187 761.022 369.782 786.225 357.361C794.364 353.351 805.917 349.792 814.748 355.625C820.89 359.682 824.311 367.348 825.205 379.061C827.151 404.55 820.992 429.564 815.038 453.754C814.871 454.429 814.268 454.879 813.603 454.879Z" fill="#CF8CD2"/>
</g>
<mask id="mask10" mask-type="alpha" maskUnits="userSpaceOnUse" x="756" y="269" width="244" height="122">
<path fill-rule="evenodd" clip-rule="evenodd" d="M756.703 390.327H999.129C999.129 323.383 944.861 269.113 877.918 269.113C810.972 269.113 756.703 323.383 756.703 390.327Z" fill="white"/>
</mask>
<g mask="url(#mask10)">
<path fill-rule="evenodd" clip-rule="evenodd" d="M811.966 295.837C805.3 295.837 797.379 292.694 794.257 285.538C793.932 284.79 794.274 283.918 795.022 283.592C795.772 283.265 796.642 283.608 796.968 284.356C799.232 289.547 805.567 293.035 812.427 292.874C819.305 292.697 825.884 289.327 830.846 286.409C858.035 270.434 878.502 243.981 896.559 220.641C897.06 219.996 897.988 219.878 898.633 220.377C899.278 220.877 899.397 221.805 898.898 222.45C880.676 246.001 860.025 272.694 832.345 288.959C827.075 292.056 820.057 295.636 812.503 295.829C812.325 295.834 812.146 295.837 811.966 295.837Z" fill="#CF8CD2"/>
</g>
<mask id="mask11" mask-type="alpha" maskUnits="userSpaceOnUse" x="589" y="1081" width="298" height="243">
<path fill-rule="evenodd" clip-rule="evenodd" d="M589.864 1081.57H886.398V1323.01H589.864V1081.57Z" fill="white"/>
</mask>
<g mask="url(#mask11)">
<path fill-rule="evenodd" clip-rule="evenodd" d="M598.896 1148.27L738.13 1323.01L877.366 1148.27C898.816 1121.35 879.647 1081.57 845.227 1081.57H631.035C596.614 1081.57 577.445 1121.35 598.896 1148.27Z" fill="#E3C3BB"/>
</g>
<mask id="mask12" mask-type="alpha" maskUnits="userSpaceOnUse" x="589" y="1275" width="298" height="194">
<path fill-rule="evenodd" clip-rule="evenodd" d="M589.864 1275.03H886.398V1468.5H589.864V1275.03Z" fill="white"/>
</mask>
<g mask="url(#mask12)">
<path fill-rule="evenodd" clip-rule="evenodd" d="M877.366 1401.8L776.357 1275.03H699.905L598.896 1401.8C577.446 1428.72 596.614 1468.5 631.035 1468.5H845.226C879.648 1468.5 898.816 1428.72 877.366 1401.8Z" fill="#6D61B3"/>
</g>
<path fill-rule="evenodd" clip-rule="evenodd" d="M847.74 1125.68C838.063 1125.68 833.195 1122.37 828.485 1119.17C824.046 1116.16 819.851 1113.31 811.314 1113.31C802.779 1113.31 798.586 1116.16 794.146 1119.17C789.439 1122.37 784.57 1125.68 774.895 1125.68C765.219 1125.68 760.35 1122.37 755.642 1119.17C751.202 1116.16 747.009 1113.31 738.474 1113.31C729.939 1113.31 725.745 1116.16 721.305 1119.17C716.597 1122.37 711.728 1125.68 702.054 1125.68C692.378 1125.68 687.511 1122.37 682.802 1119.17C678.362 1116.16 674.169 1113.31 665.635 1113.31C657.101 1113.31 652.908 1116.16 648.469 1119.17C643.762 1122.37 638.894 1125.68 629.22 1125.68C619.545 1125.68 614.676 1122.37 609.969 1119.17C605.529 1116.16 601.336 1113.31 592.802 1113.31C591.777 1113.31 590.946 1112.48 590.946 1111.46C590.946 1110.43 591.777 1109.6 592.802 1109.6C602.476 1109.6 607.345 1112.91 612.052 1116.1C616.492 1119.12 620.686 1121.97 629.22 1121.97C637.754 1121.97 641.946 1119.12 646.385 1116.1C651.093 1112.91 655.96 1109.6 665.635 1109.6C675.309 1109.6 680.178 1112.91 684.886 1116.1C689.326 1119.12 693.519 1121.97 702.054 1121.97C710.589 1121.97 714.782 1119.12 719.221 1116.1C723.93 1112.91 728.798 1109.6 738.474 1109.6C748.148 1109.6 753.018 1112.91 757.725 1116.1C762.165 1119.12 766.36 1121.97 774.895 1121.97C783.429 1121.97 787.623 1119.12 792.063 1116.1C796.77 1112.91 801.639 1109.6 811.314 1109.6C820.991 1109.6 825.86 1112.91 830.569 1116.1C835.01 1119.12 839.204 1121.97 847.74 1121.97C856.276 1121.97 860.47 1119.12 864.911 1116.1C869.619 1112.91 874.489 1109.6 884.165 1109.6C885.19 1109.6 886.02 1110.43 886.02 1111.46C886.02 1112.48 885.19 1113.31 884.165 1113.31C875.628 1113.31 871.434 1116.16 866.994 1119.17C862.285 1122.37 857.416 1125.68 847.74 1125.68Z" fill="#2A1840"/>
<path fill-rule="evenodd" clip-rule="evenodd" d="M774.451 1276.32H699.904C699.196 1276.32 698.622 1275.74 698.622 1275.03C698.622 1274.32 699.196 1273.75 699.904 1273.75H774.451C775.159 1273.75 775.733 1274.32 775.733 1275.03C775.733 1275.74 775.159 1276.32 774.451 1276.32Z" fill="#2A1840"/>
<path fill-rule="evenodd" clip-rule="evenodd" d="M847.74 1440.46C838.063 1440.46 833.195 1437.16 828.485 1433.96C824.046 1430.95 819.851 1428.1 811.314 1428.1C802.779 1428.1 798.586 1430.95 794.146 1433.96C789.439 1437.16 784.57 1440.46 774.895 1440.46C765.219 1440.46 760.35 1437.16 755.642 1433.96C751.202 1430.95 747.009 1428.1 738.474 1428.1C729.939 1428.1 725.745 1430.95 721.305 1433.96C716.597 1437.16 711.728 1440.46 702.054 1440.46C692.378 1440.46 687.511 1437.16 682.802 1433.96C678.362 1430.95 674.169 1428.1 665.635 1428.1C657.101 1428.1 652.908 1430.95 648.469 1433.96C643.762 1437.16 638.894 1440.46 629.22 1440.46C619.545 1440.46 614.676 1437.16 609.969 1433.96C605.529 1430.95 601.336 1428.1 592.802 1428.1C591.777 1428.1 590.946 1427.27 590.946 1426.25C590.946 1425.22 591.777 1424.39 592.802 1424.39C602.476 1424.39 607.345 1427.7 612.052 1430.89C616.492 1433.91 620.686 1436.76 629.22 1436.76C637.754 1436.76 641.946 1433.91 646.385 1430.89C651.093 1427.7 655.96 1424.39 665.635 1424.39C675.309 1424.39 680.178 1427.7 684.886 1430.89C689.326 1433.91 693.519 1436.76 702.054 1436.76C710.589 1436.76 714.782 1433.91 719.221 1430.89C723.93 1427.7 728.798 1424.39 738.474 1424.39C748.148 1424.39 753.018 1427.7 757.725 1430.89C762.165 1433.91 766.36 1436.76 774.895 1436.76C783.429 1436.76 787.623 1433.91 792.063 1430.89C796.77 1427.7 801.639 1424.39 811.314 1424.39C820.991 1424.39 825.86 1427.7 830.569 1430.89C835.01 1433.91 839.204 1436.76 847.74 1436.76C856.276 1436.76 860.47 1433.91 864.911 1430.89C869.619 1427.7 874.489 1424.39 884.165 1424.39C885.19 1424.39 886.02 1425.22 886.02 1426.25C886.02 1427.27 885.19 1428.1 884.165 1428.1C875.628 1428.1 871.434 1430.95 866.994 1433.96C862.285 1437.16 857.416 1440.46 847.74 1440.46Z" fill="#2A1840"/>
<path fill-rule="evenodd" clip-rule="evenodd" d="M1540.8 1231.29L1136.13 951.279L1051.44 1053.95L1403.25 1398.02L1540.8 1231.29Z" fill="#50478B"/>
<path opacity="0.2" fill-rule="evenodd" clip-rule="evenodd" d="M1540.8 1231.29L1136.13 951.279L1051.44 1053.95L1403.25 1398.02L1540.8 1231.29Z" fill="#3B3046"/>
<path fill-rule="evenodd" clip-rule="evenodd" d="M1401.66 1396.69C1409.48 1403.23 1427.83 1398.96 1448.68 1386.11C1466.04 1375.39 1485.13 1358.72 1501.31 1337.37C1511.56 1323.86 1520.56 1310.37 1527.8 1297.75C1545.73 1266.56 1552.99 1240.66 1542.39 1232.62C1530.81 1223.85 1499.63 1240.62 1469.6 1270.63C1461.04 1279.19 1452.55 1288.84 1444.64 1299.27C1430.97 1317.32 1419.88 1334.56 1412.03 1349.46C1399.41 1373.34 1395.11 1391.21 1401.66 1396.69Z" fill="#2A1840"/>
<mask id="mask13" mask-type="alpha" maskUnits="userSpaceOnUse" x="1412" y="1270" width="274" height="192">
<path fill-rule="evenodd" clip-rule="evenodd" d="M1412.03 1270.63H1685.74V1461.78H1412.03V1270.63Z" fill="white"/>
</mask>
<g mask="url(#mask13)">
<path fill-rule="evenodd" clip-rule="evenodd" d="M1412.03 1349.46L1448.68 1386.11L1524.34 1461.78L1685.74 1300.37C1685.74 1300.37 1660.56 1282.2 1585.26 1299.57C1566.63 1303.88 1548 1302.64 1530.6 1298.48C1529.68 1298.25 1528.74 1298.02 1527.8 1297.75C1509.07 1292.59 1485 1279.67 1469.6 1270.63C1461.04 1279.19 1452.55 1288.83 1444.64 1299.27C1430.97 1317.31 1419.88 1334.56 1412.03 1349.46Z" fill="#DBAAC4"/>
</g>
<path fill-rule="evenodd" clip-rule="evenodd" d="M1443.07 1299.4C1442.77 1299.4 1442.47 1299.3 1442.22 1299.09L1207.17 1101.65C1206.62 1101.18 1206.54 1100.35 1207.01 1099.8C1207.48 1099.24 1208.31 1099.17 1208.86 1099.63L1443.91 1297.08C1444.47 1297.54 1444.54 1298.37 1444.07 1298.93C1443.81 1299.24 1443.44 1299.4 1443.07 1299.4Z" fill="#2A1840"/>
<path fill-rule="evenodd" clip-rule="evenodd" d="M1368.07 1360.58C1367.98 1360.58 1367.89 1360.57 1367.79 1360.55C1367.08 1360.4 1366.63 1359.7 1366.79 1358.99C1379.27 1302 1415.36 1262.58 1443.44 1239.54C1473.84 1214.6 1501.7 1202.95 1501.98 1202.83C1502.65 1202.56 1503.42 1202.88 1503.69 1203.55C1503.97 1204.22 1503.65 1204.99 1502.98 1205.26C1502.71 1205.38 1475.15 1216.91 1445.04 1241.63C1417.31 1264.4 1381.67 1303.33 1369.36 1359.55C1369.22 1360.16 1368.68 1360.58 1368.07 1360.58Z" fill="#2A1840"/>
<path fill-rule="evenodd" clip-rule="evenodd" d="M1513.31 1451.34C1512.98 1451.34 1512.64 1451.21 1512.39 1450.96C1511.87 1450.46 1511.86 1449.62 1512.37 1449.11L1664.5 1293.73C1665.01 1293.21 1665.84 1293.21 1666.36 1293.71C1666.87 1294.22 1666.88 1295.05 1666.38 1295.57L1514.25 1450.94C1513.99 1451.21 1513.65 1451.34 1513.31 1451.34Z" fill="#2A1840"/>
<path fill-rule="evenodd" clip-rule="evenodd" d="M1488.45 1427C1488.1 1427 1487.75 1426.86 1487.5 1426.59C1487 1426.06 1487.02 1425.23 1487.54 1424.73C1487.84 1424.45 1517.65 1396.61 1542.13 1420.59C1542.65 1421.09 1542.66 1421.92 1542.15 1422.44C1541.64 1422.96 1540.81 1422.97 1540.29 1422.46C1530.82 1413.18 1519.42 1411.02 1506.43 1416.04C1496.56 1419.85 1489.42 1426.57 1489.35 1426.64C1489.1 1426.88 1488.77 1427 1488.45 1427Z" fill="#2A1840"/>
<path fill-rule="evenodd" clip-rule="evenodd" d="M1470.76 1337.35C1476.99 1343.45 1477.09 1353.44 1470.99 1359.67C1464.89 1365.9 1454.9 1366 1448.68 1359.91C1442.45 1353.81 1442.34 1343.82 1448.44 1337.59C1454.54 1331.36 1464.53 1331.26 1470.76 1337.35Z" fill="white"/>
<path fill-rule="evenodd" clip-rule="evenodd" d="M1516.89 1319.23C1516.7 1319.23 1516.51 1319.19 1516.33 1319.11C1515.67 1318.8 1515.4 1318.01 1515.71 1317.36L1525.49 1296.73C1525.8 1296.07 1526.58 1295.79 1527.24 1296.1C1527.89 1296.41 1528.17 1297.2 1527.86 1297.85L1518.08 1318.48C1517.86 1318.96 1517.38 1319.23 1516.89 1319.23Z" fill="#2A1840"/>
<path fill-rule="evenodd" clip-rule="evenodd" d="M1533.32 1325.6C1533.13 1325.6 1532.95 1325.56 1532.77 1325.48C1532.11 1325.18 1531.82 1324.41 1532.12 1323.75L1542.34 1301.21C1542.64 1300.54 1543.42 1300.25 1544.08 1300.55C1544.74 1300.85 1545.03 1301.63 1544.73 1302.29L1534.51 1324.83C1534.29 1325.31 1533.82 1325.6 1533.32 1325.6Z" fill="#2A1840"/>
<path fill-rule="evenodd" clip-rule="evenodd" d="M1553.87 1326.57C1553.7 1326.57 1553.53 1326.53 1553.37 1326.46C1552.7 1326.18 1552.38 1325.42 1552.66 1324.75L1562.26 1301.73C1562.54 1301.06 1563.31 1300.74 1563.98 1301.02C1564.65 1301.3 1564.96 1302.07 1564.68 1302.74L1555.08 1325.76C1554.87 1326.26 1554.39 1326.57 1553.87 1326.57Z" fill="#2A1840"/>
<path fill-rule="evenodd" clip-rule="evenodd" d="M1568.6 1207.9C1567.64 1207.9 1566.66 1208.1 1565.67 1208.51C1557.56 1211.81 1548.43 1228.1 1539.25 1255.62C1534.26 1270.58 1530.52 1285.16 1528.76 1292.39C1533.63 1287.18 1543.14 1276.72 1552.39 1264.89C1569.64 1242.83 1578.2 1226.09 1577.14 1216.48C1576.79 1213.28 1575.4 1210.92 1572.89 1209.29C1571.47 1208.36 1570.05 1207.9 1568.6 1207.9ZM1526.36 1298.14C1526.15 1298.14 1525.93 1298.08 1525.74 1297.98C1525.22 1297.7 1524.95 1297.11 1525.08 1296.54C1525.12 1296.33 1529.7 1275.95 1536.75 1254.81C1546.31 1226.12 1555.71 1209.73 1564.67 1206.08C1567.99 1204.73 1571.23 1205.07 1574.33 1207.09C1577.49 1209.15 1579.32 1212.21 1579.76 1216.19C1582.48 1240.9 1529.56 1295.43 1527.3 1297.74C1527.05 1298 1526.71 1298.14 1526.36 1298.14Z" fill="#2A1840"/>
<path fill-rule="evenodd" clip-rule="evenodd" d="M1587.43 1247.07C1579.27 1247.07 1566.56 1255.47 1550.56 1271.45C1541.67 1280.32 1533.98 1289.36 1530.18 1293.96C1543.85 1290.25 1589.37 1276.78 1596.09 1260.57C1597.35 1257.51 1597.1 1254.59 1595.32 1251.65C1593.58 1248.77 1591.22 1247.28 1588.12 1247.09C1587.89 1247.08 1587.66 1247.07 1587.43 1247.07ZM1526.63 1297.57C1526.19 1297.57 1525.77 1297.35 1525.52 1296.97C1525.22 1296.5 1525.25 1295.88 1525.59 1295.44C1527.28 1293.31 1567.05 1243.17 1588.28 1244.47C1592.25 1244.71 1595.38 1246.67 1597.57 1250.29C1599.78 1253.95 1600.1 1257.74 1598.51 1261.58C1590.13 1281.81 1529.52 1296.9 1526.94 1297.53C1526.83 1297.56 1526.73 1297.57 1526.63 1297.57Z" fill="#2A1840"/>
<path fill-rule="evenodd" clip-rule="evenodd" d="M646.892 985.826C646.892 1041.65 692.571 1086.77 748.39 1085.88C780.42 1085.37 812.449 1085.22 844.479 1085.22C904.08 1085.32 963.682 1086.22 1023.28 1087.74C1027.46 1087.85 1027.44 1087.85 1023.22 1087.75C1028.76 1113.52 1032.18 1129.45 1033.48 1135.54C1036.78 1151.69 1036.24 1152.06 1039.42 1168.25C1045.9 1200.59 1052.07 1233.02 1057.84 1265.54L1062.1 1289.96L1066.18 1314.42C1068.87 1330.74 1071.35 1347.11 1073.62 1363.53L1282.75 1308.85C1276.69 1293.41 1270.84 1277.92 1265.2 1262.38L1256.77 1239.05L1248.54 1215.68C1237.65 1184.48 1231.09 1168.95 1220.91 1137.58C1215.76 1121.91 1210.83 1106.18 1205.8 1090.47C1200.91 1074.73 1195.92 1059.02 1191.13 1043.25L1187.53 1031.43L1185.73 1025.52L1184.79 1022.43L1183.61 1018.73C1182.79 1016.26 1182 1013.81 1180.99 1011.4C1180.02 1008.99 1179.01 1006.6 1177.96 1004.22C1176.93 1001.84 1175.69 999.544 1174.51 997.232C1172.17 992.587 1169.42 988.174 1166.58 983.825C1160.75 975.252 1154.13 967.209 1146.6 960.153C1131.72 945.85 1113.62 935.14 1094.14 928.531C1091.7 927.737 1089.23 927.018 1086.75 926.315L1083.04 925.302C1081.79 924.993 1080.53 924.733 1079.28 924.463C1076.76 923.931 1074.24 923.442 1071.71 922.994C1069.18 922.605 1066.63 922.304 1064.08 922.02C1058.99 921.38 1053.89 921.311 1048.8 921.22L1047.85 921.213L1047.47 921.223L1046.7 921.245L1045.15 921.288L1042.07 921.372C976.203 923.19 910.341 923.345 844.479 923.456C782.214 922.524 715.475 923.456 646.892 923.456V985.826Z" fill="#50478B"/>
<path fill-rule="evenodd" clip-rule="evenodd" d="M1073.63 1363.53C1076.32 1374.03 1094.96 1378.6 1121.29 1377.72C1140.35 1377.09 1163.44 1373.6 1187.41 1367.46C1207.16 1362.4 1225.2 1355.99 1240.16 1349.03C1268.48 1335.86 1285.78 1320.69 1282.75 1308.84C1279.5 1296.17 1253.81 1290.67 1219.07 1293.55C1204.23 1294.77 1187.73 1297.54 1170.63 1301.92C1152.52 1306.56 1135.7 1312.63 1121.29 1319.33C1090.23 1333.78 1070.46 1351.17 1073.63 1363.53Z" fill="#2A1840"/>
<path fill-rule="evenodd" clip-rule="evenodd" d="M1121.29 1319.32V1461.78H1349.55C1349.55 1461.78 1344.58 1431.12 1279.06 1390.16C1262.85 1380.03 1250.54 1365.99 1241.18 1350.73C1240.84 1350.17 1240.5 1349.61 1240.16 1349.03C1229.83 1331.53 1223.25 1310.1 1219.07 1293.55C1204.23 1294.77 1187.73 1297.54 1170.63 1301.92C1152.52 1306.56 1135.7 1312.62 1121.29 1319.32Z" fill="#DBAAC4"/>
<path fill-rule="evenodd" clip-rule="evenodd" d="M1170.63 1302.44C1170.07 1302.44 1169.55 1302.09 1169.37 1301.52L1092.74 1057.12C1082.89 1025.3 1053.89 1003.93 1020.59 1003.93H765.673C743.381 1003.93 725.246 985.791 725.246 963.499V925.768C725.246 925.042 725.835 924.454 726.56 924.454C727.285 924.454 727.873 925.042 727.873 925.768V963.499C727.873 984.342 744.831 1001.3 765.673 1001.3H1020.59C1055.05 1001.3 1085.05 1023.42 1095.25 1056.34L1171.88 1300.74C1172.1 1301.43 1171.71 1302.17 1171.02 1302.38C1170.89 1302.43 1170.76 1302.44 1170.63 1302.44Z" fill="#2A1840"/>
<path fill-rule="evenodd" clip-rule="evenodd" d="M1065.15 1310.33C1064.77 1310.33 1064.39 1310.16 1064.13 1309.84C1063.67 1309.28 1063.76 1308.45 1064.32 1307.99C1107.09 1273.2 1159.19 1262.57 1195.36 1259.78C1234.52 1256.77 1264 1262.03 1264.29 1262.09C1265.01 1262.22 1265.48 1262.9 1265.35 1263.62C1265.22 1264.33 1264.54 1264.8 1263.82 1264.67C1263.53 1264.62 1234.32 1259.41 1195.49 1262.41C1159.71 1265.18 1108.2 1275.69 1065.98 1310.03C1065.73 1310.23 1065.44 1310.33 1065.15 1310.33Z" fill="#2A1840"/>
<path fill-rule="evenodd" clip-rule="evenodd" d="M1342.41 1448.72H1121.98C1121.25 1448.72 1120.66 1448.13 1120.66 1447.41C1120.66 1446.68 1121.25 1446.09 1121.98 1446.09H1342.41C1343.13 1446.09 1343.72 1446.68 1343.72 1447.41C1343.72 1448.13 1343.13 1448.72 1342.41 1448.72Z" fill="#2A1840"/>
<path fill-rule="evenodd" clip-rule="evenodd" d="M1161.87 1448.72C1161.14 1448.72 1160.55 1448.13 1160.55 1447.41C1160.55 1434.14 1154.12 1424.49 1141.45 1418.71C1131.82 1414.33 1122.03 1413.93 1121.93 1413.93C1121.21 1413.9 1120.64 1413.29 1120.66 1412.57C1120.69 1411.84 1121.31 1411.28 1122.02 1411.3C1122.43 1411.32 1163.18 1413.14 1163.18 1447.41C1163.18 1448.13 1162.59 1448.72 1161.87 1448.72Z" fill="#2A1840"/>
<path fill-rule="evenodd" clip-rule="evenodd" d="M1172.72 1338.18C1172.72 1346.89 1165.65 1353.96 1156.93 1353.96C1148.22 1353.96 1141.15 1346.89 1141.15 1338.18C1141.15 1329.46 1148.22 1322.4 1156.93 1322.4C1165.65 1322.4 1172.72 1329.46 1172.72 1338.18Z" fill="white"/>
<path fill-rule="evenodd" clip-rule="evenodd" d="M1218.32 1358.85C1217.78 1358.85 1217.27 1358.51 1217.08 1357.97C1216.84 1357.28 1217.21 1356.54 1217.89 1356.3L1239.48 1348.86C1240.16 1348.62 1240.91 1348.98 1241.15 1349.67C1241.38 1350.35 1241.02 1351.1 1240.33 1351.34L1218.75 1358.78C1218.61 1358.83 1218.46 1358.85 1218.32 1358.85Z" fill="#2A1840"/>
<path fill-rule="evenodd" clip-rule="evenodd" d="M1225.82 1375.05C1225.28 1375.05 1224.78 1374.72 1224.58 1374.19C1224.34 1373.5 1224.69 1372.75 1225.37 1372.5L1249.77 1363.62C1250.45 1363.37 1251.21 1363.72 1251.46 1364.4C1251.7 1365.08 1251.35 1365.84 1250.67 1366.08L1226.27 1374.97C1226.12 1375.02 1225.97 1375.05 1225.82 1375.05Z" fill="#2A1840"/>
<path fill-rule="evenodd" clip-rule="evenodd" d="M1239.51 1390.41C1238.99 1390.41 1238.5 1390.1 1238.29 1389.59C1238.02 1388.91 1238.35 1388.15 1239.02 1387.88L1263.33 1378.18C1264 1377.91 1264.76 1378.24 1265.03 1378.92C1265.3 1379.59 1264.97 1380.35 1264.3 1380.62L1240 1390.32C1239.84 1390.38 1239.67 1390.41 1239.51 1390.41Z" fill="#2A1840"/>
<path fill-rule="evenodd" clip-rule="evenodd" d="M1324.82 1314.76C1315.22 1314.76 1299.63 1319.91 1279.02 1329.94C1264.84 1336.84 1251.82 1344.36 1245.42 1348.16C1252.56 1348 1266.68 1347.48 1281.6 1345.81C1309.43 1342.71 1327.38 1337.11 1333.51 1329.63C1335.55 1327.14 1336.26 1324.5 1335.68 1321.56C1335.12 1318.79 1333.65 1316.93 1331.18 1315.85C1329.49 1315.12 1327.37 1314.76 1324.82 1314.76ZM1240.58 1350.87C1239.99 1350.87 1239.48 1350.48 1239.31 1349.91C1239.15 1349.35 1239.39 1348.75 1239.88 1348.44C1240.06 1348.33 1257.82 1337.34 1277.87 1327.58C1305.05 1314.35 1323.34 1309.59 1332.22 1313.44C1335.5 1314.86 1337.53 1317.42 1338.25 1321.04C1338.99 1324.75 1338.08 1328.2 1335.55 1331.29C1319.8 1350.52 1243.81 1350.86 1240.58 1350.87H1240.58Z" fill="#2A1840"/>
<path fill-rule="evenodd" clip-rule="evenodd" d="M1315.26 1374.01C1318.33 1372.78 1320.24 1370.56 1321.1 1367.22C1321.94 1363.96 1321.35 1361.24 1319.32 1358.89C1314 1352.74 1298.89 1349.35 1275.63 1349.09C1263.08 1348.95 1251.23 1349.78 1245.29 1350.28C1257.5 1357.45 1298.98 1380.55 1315.26 1374.01ZM1240.47 1350.46C1240 1350.17 1239.76 1349.6 1239.89 1349.05C1240.01 1348.51 1240.47 1348.1 1241.03 1348.04C1243.73 1347.75 1307.38 1341.08 1321.31 1357.17C1323.91 1360.17 1324.7 1363.78 1323.64 1367.88C1322.58 1372.02 1320.09 1374.9 1316.24 1376.45C1313.99 1377.35 1311.34 1377.75 1308.41 1377.75C1284.78 1377.75 1242.48 1351.71 1240.47 1350.46Z" fill="#2A1840"/>
<path fill-rule="evenodd" clip-rule="evenodd" d="M808.259 774.586C832.102 769.151 855.776 763.032 879.405 756.705L914.816 747.073L917.029 746.469L917.583 746.318C917.161 746.427 916.621 746.552 916.14 746.646C915.178 746.849 914.082 746.963 913.211 747.07C909.655 747.422 905.974 747.254 902.463 746.466C895.423 744.891 889.067 741.209 884.268 735.809C881.852 733.135 879.834 730.034 878.362 726.709C877.98 725.892 877.641 725.048 877.35 724.193C877.065 723.376 876.848 722.786 876.649 722.053L876.509 721.525L876.444 721.26C876.438 721.23 876.416 721.14 876.421 721.159L876.442 721.229L876.614 721.793L876.956 722.92L879.693 731.934L890.656 767.984L901.78 803.982L915.323 862.254L926.663 898.176C934.157 921.915 959.074 934.954 982.316 927.3C1004.46 920.005 1017.1 896.551 1011.75 873.816L1011.71 873.644L1000.69 814.932L991.881 778.57L983.006 742.233L973.967 705.947L971.705 696.878L971.421 695.744L971.281 695.177L970.739 693.23C970.3 691.754 969.898 690.401 969.331 688.857C968.742 687.28 968.104 685.716 967.424 684.176C964.627 678.028 960.885 672.304 956.399 667.317C947.399 657.375 935.494 650.378 922.423 647.606C915.911 646.215 909.133 645.821 902.528 646.546C900.891 646.698 899.047 647.012 897.328 647.329C896.47 647.492 895.552 647.682 894.753 647.861L894.19 647.992L891.938 648.516L855.911 656.931C831.914 662.635 807.963 668.548 784.18 675.143C757.444 682.557 741.657 710.704 748.917 738.011C755.964 764.522 782.147 780.494 808.132 774.616L808.259 774.586Z" fill="#C478CB"/>
<path fill-rule="evenodd" clip-rule="evenodd" d="M628.495 931.331L692.539 722.748C697.281 682.901 730.942 658.61 770.354 660.047L841.666 665.51C875.573 666.747 905.047 683.932 913.152 717.464L932.033 931.331H628.495Z" fill="#C478CB"/>
<mask id="mask14" mask-type="alpha" maskUnits="userSpaceOnUse" x="532" y="639" width="315" height="299">
<path fill-rule="evenodd" clip-rule="evenodd" d="M532.605 639.722H846.042V937.389H532.605V639.722Z" fill="white"/>
</mask>
<g mask="url(#mask14)">
<path fill-rule="evenodd" clip-rule="evenodd" d="M807.741 666.988C796.744 664.245 785.712 661.661 774.691 659.022L741.577 651.347L708.42 643.865L700.123 642.029L698.049 641.57L697.013 641.34L694.965 640.921L692.688 640.518C686.597 639.563 680.277 639.437 674.106 640.304C661.733 641.959 650.043 647.287 640.605 655.425C635.893 659.512 631.735 664.287 628.301 669.576C624.892 674.888 622.256 680.67 620.447 686.627L623.313 679.246L601.391 727.848C594.092 744.052 586.744 760.232 579.541 776.485L557.845 825.199C550.696 841.479 543.471 857.719 536.395 874.035C526.507 896.833 536.631 923.48 559.008 933.555C580.284 943.133 605.056 934.126 615.933 913.634C624.219 897.92 632.355 882.133 640.568 866.383L664.96 819.011C673.12 803.235 681.134 787.386 689.198 771.562L713.362 724.077L716.228 716.695C715.302 719.911 713.863 723.066 711.989 725.948C710.149 728.853 707.885 731.462 705.317 733.667C700.226 738.115 693.895 740.98 687.147 741.916C683.777 742.351 680.319 742.355 677.019 741.82C676.607 741.759 676.195 741.687 675.787 741.605L674.783 741.381L675.816 741.628L677.883 742.124L686.147 744.107L719.234 751.903L752.364 759.507C763.426 761.96 774.474 764.468 785.559 766.818C812.725 772.578 839.329 754.81 844.982 727.134C850.509 700.075 833.869 673.539 807.741 666.988Z" fill="#C478CB"/>
</g>
<path fill-rule="evenodd" clip-rule="evenodd" d="M623.218 679.688C615.304 695.558 607.61 711.535 599.981 727.547L588.622 751.605L577.392 775.727C569.921 791.817 562.428 807.896 555.075 824.044C547.648 840.154 540.381 856.345 533.09 872.524L531.582 875.873C520.814 899.77 531.137 928.018 554.641 938.967C565.429 943.992 577.196 944.475 587.729 941.242L826.05 867.727C844.69 861.978 855.216 841.953 849.561 823.001C844.275 805.286 826.56 794.815 809.069 798.212L564.612 846.615L619.251 915.332C627.324 899.543 635.422 883.765 643.36 867.907C651.371 852.086 659.243 836.196 667.137 820.317L678.953 796.486L690.641 772.591C698.377 756.634 706.048 740.643 713.497 724.543C725.312 699.013 714.533 668.579 689.423 656.567C664.788 644.782 635.473 655.183 623.218 679.688Z" fill="#C478CB"/>
<path fill-rule="evenodd" clip-rule="evenodd" d="M658.489 850.388C658.294 850.388 658.097 850.342 657.912 850.245C657.819 850.196 648.457 845.343 631.304 840.225C615.475 835.502 589.586 829.58 556.138 828.191C555.433 828.162 554.883 827.548 554.912 826.82C554.94 826.091 555.537 825.521 556.241 825.554C589.991 826.955 616.123 832.941 632.102 837.716C649.458 842.902 658.685 847.69 659.069 847.891C659.699 848.221 659.95 849.015 659.631 849.664C659.405 850.123 658.955 850.388 658.489 850.388Z" fill="#2A1840"/>
<path fill-rule="evenodd" clip-rule="evenodd" d="M795.931 731.732C785.383 731.732 775.325 728.331 766.844 721.895C754.72 712.694 747.359 697.628 747.155 681.59C747.11 678.102 747.476 674.439 748.277 670.389L751.024 654.623C751.146 653.916 751.806 653.442 752.505 653.569C753.2 653.695 753.664 654.37 753.54 655.078L750.787 670.873C750.018 674.769 749.668 678.254 749.71 681.556C749.905 696.789 756.881 711.089 768.371 719.809C776.407 725.906 785.937 729.129 795.931 729.129C805.282 729.129 814.304 726.277 822.021 720.879C834.431 712.199 841.935 697.469 842.093 681.476C842.127 678.012 841.726 674.365 840.866 670.326L838.904 661.674C838.746 660.974 839.175 660.276 839.862 660.114C840.549 659.952 841.236 660.388 841.395 661.089L843.36 669.758C844.265 674.007 844.685 677.842 844.649 681.502C844.482 698.342 836.564 713.865 823.469 723.023C815.324 728.721 805.801 731.732 795.931 731.732Z" fill="#2A1840"/>
<path fill-rule="evenodd" clip-rule="evenodd" d="M654.592 828.312C654.512 828.312 654.429 828.304 654.347 828.287C653.664 828.147 653.219 827.461 653.355 826.754L671.07 733.705C671.205 732.998 671.866 732.537 672.549 732.677C673.233 732.816 673.678 733.502 673.542 734.21L655.827 827.259C655.708 827.881 655.182 828.312 654.592 828.312Z" fill="#2A1840"/>
<path fill-rule="evenodd" clip-rule="evenodd" d="M938.516 931.331L907.206 737.832C907.104 737.203 908.005 737.01 908.156 737.629L953.189 921.894L938.516 931.331Z" fill="#2A1840"/>
<path fill-rule="evenodd" clip-rule="evenodd" d="M591.895 943.013C601.694 940.064 611.479 937.055 621.257 934.02L650.599 924.939C670.15 918.844 689.714 912.806 709.226 906.55C728.745 900.322 748.202 893.85 767.689 887.495L796.874 877.776L826.018 867.892C844.525 861.617 854.52 841.288 848.343 822.487C842.753 805.475 825.83 795.55 808.951 798.463L778.655 803.66L748.399 809.021C728.258 812.719 708.09 816.3 687.981 820.125C667.865 823.923 647.803 827.939 627.728 831.897L597.628 837.897C587.593 839.888 577.565 841.906 567.551 843.983C540.341 849.628 522.787 876.611 528.343 904.254C533.898 931.896 560.46 949.73 587.67 944.085C589.074 943.794 590.544 943.415 591.895 943.013Z" fill="#B48490"/>
<path fill-rule="evenodd" clip-rule="evenodd" d="M778.596 843.506C790.391 839.981 802.146 836.293 813.885 832.527L831.471 826.779L835.861 825.315C837.285 824.843 838.937 824.282 839.938 823.977C842.276 823.236 844.475 822.706 846.075 822.446C847.721 822.186 848.814 822.135 849.979 822.299C851.131 822.465 852.511 822.98 854.14 824.022C855.757 825.064 857.566 826.455 859.361 828.209L859.933 828.734L860.395 829.187C860.701 829.498 860.998 829.828 861.287 830.17L861.505 830.427L861.614 830.56L861.786 830.798L862.469 831.752L863.838 833.659C871.137 843.829 878.563 853.922 886.442 863.733C889.447 867.475 894.861 868.027 898.533 864.964C901.562 862.439 902.454 858.235 900.99 854.742C896.093 843.088 890.741 831.713 885.264 820.417L884.237 818.3L883.723 817.24L883.594 816.975L883.402 816.607L883.003 815.869C882.455 814.894 881.866 813.939 881.239 813.001C880.924 812.534 880.601 812.07 880.266 811.611L879.757 810.926L879.318 810.364C877.065 807.387 874.448 804.379 871.232 801.531C868.022 798.707 864.01 795.992 859.31 794.168C854.631 792.315 849.506 791.54 845.007 791.521C840.445 791.491 836.553 792.059 832.886 792.697C830.877 793.054 829.562 793.344 828.004 793.654L823.457 794.577L805.292 798.37C793.196 800.964 781.117 803.636 769.078 806.472C758.964 808.852 752.66 819.135 754.996 829.44C757.331 839.745 767.423 846.17 777.536 843.789C777.874 843.71 778.267 843.603 778.596 843.506Z" fill="#B48490"/>
<path fill-rule="evenodd" clip-rule="evenodd" d="M766.328 868.268L846.146 836.561L834.057 834.798C833.946 834.687 834.21 834.842 834.325 834.896L834.824 835.175C835.166 835.372 835.529 835.596 835.89 835.826C836.616 836.284 837.349 836.792 838.075 837.312C839.528 838.362 840.951 839.501 842.306 840.703C845.018 843.111 847.49 845.768 849.542 848.631C850.581 850.059 851.519 851.539 852.324 853.069C853.147 854.597 853.862 856.171 854.421 857.793C855.61 861.031 856.174 864.463 856.262 868.045L856.276 868.611C856.393 873.396 860.296 877.178 864.994 877.059C869.061 876.956 872.388 873.957 873.134 870.051C874.154 864.712 874.406 859.047 873.632 853.52C873.284 850.748 872.69 848.018 871.916 845.361C871.157 842.693 870.198 840.106 869.091 837.614C866.891 832.606 864.102 827.982 860.941 823.699C859.355 821.556 857.671 819.501 855.877 817.514C854.975 816.521 854.055 815.544 853.075 814.578C852.586 814.094 852.089 813.615 851.559 813.127L850.742 812.386C850.415 812.106 850.233 811.93 849.671 811.499L849.669 811.497C846.383 809.1 842.379 808.468 838.747 809.421L837.579 809.734L754.723 831.936C744.69 834.625 738.696 845.089 741.335 855.309C743.975 865.529 754.248 871.635 764.282 868.946C764.979 868.759 765.672 868.527 766.328 868.268Z" fill="#B48490"/>
<path fill-rule="evenodd" clip-rule="evenodd" d="M751.624 876.737L831.482 844.921L820.748 843.989L820.747 843.988C820.589 843.894 820.604 843.894 820.61 843.889C820.605 843.879 820.605 843.869 820.634 843.879C820.679 843.891 820.704 843.885 820.77 843.913C820.882 843.948 821.007 843.992 821.147 844.054C821.42 844.165 821.721 844.303 822.025 844.455C822.633 844.763 823.268 845.105 823.889 845.495C825.142 846.259 826.361 847.152 827.508 848.127C829.813 850.076 831.823 852.374 833.429 854.983C835.056 857.585 836.26 860.527 837.029 863.75C837.774 866.975 838.092 870.477 837.951 874.124L837.938 874.444C837.753 879.253 841.419 883.304 846.126 883.494C850.2 883.657 853.718 880.87 854.711 877.001C855.947 872.197 856.656 867.068 856.606 861.76C856.538 856.463 855.667 850.985 853.877 845.76C852.113 840.52 849.481 835.551 846.196 831.113C844.553 828.888 842.759 826.785 840.784 824.811C839.804 823.817 838.766 822.865 837.669 821.925C837.12 821.454 836.553 820.992 835.942 820.523C835.644 820.292 835.323 820.054 834.987 819.813L834.447 819.437L834.129 819.228C834.019 819.158 833.921 819.092 833.648 818.935L833.645 818.933C830.575 817.215 827.128 816.876 823.988 817.712L822.909 818.001L740.013 840.28C729.975 842.978 723.977 853.479 726.618 863.734C729.26 873.989 739.538 880.115 749.577 877.418C750.275 877.23 750.967 876.997 751.624 876.737Z" fill="#B48490"/>
<path fill-rule="evenodd" clip-rule="evenodd" d="M738.483 885.609L819.42 850.127L805.268 847.296H805.267C805.422 847.364 805.835 847.684 806.14 847.908L807.146 848.684C807.821 849.215 808.495 849.765 809.162 850.325C810.492 851.446 811.787 852.607 813.018 853.784C815.472 856.128 817.71 858.61 819.291 860.842C820.084 861.945 820.684 862.982 821.044 863.662C821.42 864.372 821.526 864.532 821.827 864.303C821.971 864.211 822.165 864.106 822.281 864.144C822.398 864.176 822.413 864.344 822.265 864.592C821.984 865.101 821.011 865.816 819.793 866.422L819.053 866.79C814.833 868.89 813.091 874.063 815.161 878.343C816.921 881.985 820.879 883.805 824.619 882.975C827.19 882.404 829.96 881.599 832.92 879.757C834.386 878.833 835.886 877.634 837.233 876.082C838.581 874.54 839.738 872.639 840.509 870.635C841.289 868.629 841.691 866.566 841.829 864.657C841.968 862.741 841.863 860.966 841.645 859.333C841.194 856.061 840.327 853.315 839.365 850.807C837.408 845.81 835.009 841.677 832.473 837.759C831.198 835.807 829.878 833.93 828.505 832.097C827.819 831.18 827.118 830.275 826.396 829.373L825.29 828.016C824.884 827.536 824.581 827.159 824.007 826.543L824.004 826.54C820.402 823.048 815.374 822.008 810.923 823.374L809.851 823.709L725.524 849.83C715.586 852.909 709.989 863.578 713.024 873.66C716.059 883.743 726.575 889.422 736.515 886.343C737.185 886.134 737.853 885.884 738.483 885.609Z" fill="#B48490"/>
<path fill-rule="evenodd" clip-rule="evenodd" d="M876.48 852.227C876.002 852.227 875.543 851.956 875.322 851.49C875.226 851.289 865.581 831.277 853.717 826.219C853.062 825.94 852.755 825.176 853.03 824.512C853.305 823.848 854.058 823.536 854.713 823.815C867.474 829.256 877.227 849.498 877.636 850.357C877.945 851.005 877.677 851.784 877.037 852.097C876.858 852.185 876.668 852.227 876.48 852.227Z" fill="#2A1840"/>
<path fill-rule="evenodd" clip-rule="evenodd" d="M855.99 869.704C855.933 869.704 855.875 869.7 855.817 869.691C855.122 869.595 854.636 868.94 854.73 868.229C854.76 867.999 857.625 845.119 842.76 840.041C842.094 839.813 841.735 839.078 841.957 838.397C842.18 837.717 842.9 837.35 843.564 837.577C850.597 839.98 855.19 846.154 856.847 855.432C858.069 862.271 857.281 868.327 857.246 868.581C857.16 869.232 856.615 869.704 855.99 869.704Z" fill="#2A1840"/>
<path fill-rule="evenodd" clip-rule="evenodd" d="M837.811 876.142C837.629 876.142 837.443 876.103 837.267 876.021C836.616 875.717 836.333 874.939 836.632 874.282C836.668 874.202 840.241 866.219 837.008 859.56C835.01 855.445 830.802 852.611 824.501 851.135C823.802 850.971 823.367 850.267 823.529 849.562C823.692 848.857 824.39 848.419 825.089 848.582C832.197 850.246 836.995 853.559 839.349 858.426C843.12 866.217 839.16 875.013 838.99 875.384C838.77 875.861 838.301 876.142 837.811 876.142Z" fill="#2A1840"/>
<path fill-rule="evenodd" clip-rule="evenodd" d="M812.841 871.543C812.292 871.543 811.781 871.203 811.601 870.67C811.38 870.006 811.754 869.293 812.439 869.078L817.896 867.359L815.566 866.655C814.879 866.447 814.496 865.739 814.71 865.073C814.924 864.407 815.652 864.034 816.34 864.243L822.579 866.127C823.121 866.291 823.491 866.775 823.495 867.326C823.499 867.876 823.134 868.365 822.595 868.534L813.243 871.481C813.11 871.523 812.974 871.543 812.841 871.543Z" fill="#2A1840"/>
<path fill-rule="evenodd" clip-rule="evenodd" d="M915.476 932.251H1145.41L1207.06 755.647H985.142C980.333 755.647 976.041 758.725 974.426 763.334L915.476 932.251Z" fill="#2A1840"/>
<path fill-rule="evenodd" clip-rule="evenodd" d="M933.833 932.251H1159.76C1160.52 932.251 1161.2 931.763 1161.46 931.034L1218.5 767.406C1220.51 761.674 1216.34 755.647 1210.36 755.647H1002.16C996.593 755.647 991.627 759.211 989.757 764.55L932.139 929.804C931.721 930.996 932.59 932.251 933.833 932.251Z" fill="#50478B"/>
<mask id="mask15" mask-type="alpha" maskUnits="userSpaceOnUse" x="931" y="756" width="288" height="177">
<path fill-rule="evenodd" clip-rule="evenodd" d="M1209.91 756.359C1215.89 756.359 1220.06 762.369 1218.05 768.083L1161.04 931.22C1160.78 931.946 1160.1 932.432 1159.34 932.432H933.554C932.312 932.432 931.443 931.181 931.861 929.992L989.444 765.236C991.313 759.913 996.275 756.359 1001.84 756.359H1209.91Z" fill="white"/>
</mask>
<g mask="url(#mask15)">
<path fill-rule="evenodd" clip-rule="evenodd" d="M1195.69 720.116L912.306 918.23L984.455 965.872L1248.12 796.246L1195.69 720.116Z" fill="#6D61B3"/>
</g>
<path fill-rule="evenodd" clip-rule="evenodd" d="M1088.4 915.694V932.251H806.939C806.939 923.107 814.076 915.694 822.88 915.694H1088.4ZM1078.63 826.472C1085.42 826.472 1090.15 832.031 1089.2 838.889C1088.24 845.748 1081.97 851.307 1075.17 851.307C1068.39 851.307 1063.65 845.748 1064.61 838.889C1065.56 832.031 1071.84 826.472 1078.63 826.472Z" fill="#50478B"/>
<path fill-rule="evenodd" clip-rule="evenodd" d="M1165.3 916.614H936.992C936.285 916.614 935.712 915.996 935.712 915.235C935.712 914.473 936.285 913.854 936.992 913.854H1165.3C1166.01 913.854 1166.58 914.473 1166.58 915.235C1166.58 915.996 1166.01 916.614 1165.3 916.614Z" fill="#2A1840"/>
<path fill-rule="evenodd" clip-rule="evenodd" d="M832.531 662.531L834.279 677.565C834.513 679.71 834.603 682.118 834.474 684.345C833.234 705.637 815.167 721.88 794.12 720.626C773.073 719.372 757.016 701.096 758.256 679.804L759.678 655.388C759.678 655.388 785.922 664.119 832.531 662.531Z" fill="#B48490"/>
<path fill-rule="evenodd" clip-rule="evenodd" d="M840.448 502.925C840.448 534.038 815.226 559.26 784.113 559.26C753 559.26 727.778 534.038 727.778 502.925C727.778 471.813 753 446.591 784.113 446.591C815.226 446.591 840.448 471.813 840.448 502.925Z" fill="#351B40"/>
<path fill-rule="evenodd" clip-rule="evenodd" d="M873.121 531.016C873.121 562.129 847.899 587.351 816.787 587.351C785.674 587.351 760.452 562.129 760.452 531.016C760.452 499.903 785.674 474.681 816.787 474.681C847.899 474.681 873.121 499.903 873.121 531.016Z" fill="#351B40"/>
<path fill-rule="evenodd" clip-rule="evenodd" d="M789.153 523.923C789.153 555.035 763.931 580.258 732.818 580.258C701.704 580.258 676.483 555.035 676.483 523.923C676.483 492.81 701.704 467.588 732.818 467.588C763.931 467.588 789.153 492.81 789.153 523.923Z" fill="#351B40"/>
<path fill-rule="evenodd" clip-rule="evenodd" d="M777.957 565.284C777.957 596.396 752.736 621.618 721.623 621.618C690.51 621.618 665.288 596.396 665.288 565.284C665.288 534.171 690.51 508.949 721.623 508.949C752.736 508.949 777.957 534.171 777.957 565.284Z" fill="#351B40"/>
<path fill-rule="evenodd" clip-rule="evenodd" d="M820.114 597.865C820.114 628.977 794.892 654.2 763.779 654.2C732.666 654.2 707.444 628.977 707.444 597.865C707.444 566.752 732.666 541.53 763.779 541.53C794.892 541.53 820.114 566.752 820.114 597.865Z" fill="#351B40"/>
<path fill-rule="evenodd" clip-rule="evenodd" d="M861.264 625.995C853.488 634.098 842.859 635.433 831.627 633.181C802.96 627.435 770.222 598.335 770.222 598.335C763.729 593.243 756.817 586.266 752.458 578.57L752.236 578.164C751.084 576.108 750.128 573.988 749.408 571.854C749.068 570.833 748.78 569.799 748.557 568.765C747.156 562.377 746.162 562.913 744.473 552.245C742.13 537.453 748.309 524.363 761.556 517.216C779.398 507.581 802.515 505.108 821.575 513.236C821.626 513.263 821.679 513.276 821.731 513.302C844.22 523.002 856.054 548.62 864.392 570.152C871.212 587.758 875.794 610.849 861.264 625.995Z" fill="#B48490"/>
<path fill-rule="evenodd" clip-rule="evenodd" d="M821.87 566.999L833.829 668.718C836.191 688.807 821.82 707.007 801.731 709.368C781.643 711.73 763.444 697.36 761.082 677.271C760.834 675.17 760.787 672.886 760.894 670.841L766.916 568.598C767.812 553.384 780.872 541.777 796.086 542.674C809.652 543.472 820.348 553.953 821.87 566.999Z" fill="#B48490"/>
<path fill-rule="evenodd" clip-rule="evenodd" d="M829.758 632.44C829.758 632.44 821.269 631.023 810.022 625.244C808.647 624.537 807.289 626.21 808.278 627.397L832.288 655.546L829.758 632.44Z" fill="#2A1840"/>
<path fill-rule="evenodd" clip-rule="evenodd" d="M764.717 604.015C764.717 604.015 767.423 602.4 769.372 599.544C769.669 599.108 770.342 599.232 770.443 599.75C771.137 603.279 771.758 612.618 763.778 620.306L764.717 604.015Z" fill="#2A1840"/>
<path fill-rule="evenodd" clip-rule="evenodd" d="M773.482 588.529C772.832 599.749 763.209 608.316 751.99 607.665C740.77 607.015 732.203 597.392 732.853 586.173C733.503 574.953 743.125 566.386 754.345 567.037C765.565 567.687 774.133 577.309 773.482 588.529Z" fill="#B48490"/>
<path fill-rule="evenodd" clip-rule="evenodd" d="M760.451 589.879C760.282 589.879 760.111 589.846 759.946 589.777L743.968 583.083C743.301 582.804 742.987 582.037 743.267 581.371C743.546 580.703 744.313 580.389 744.979 580.669L760.957 587.362C761.624 587.642 761.939 588.408 761.659 589.075C761.448 589.577 760.963 589.879 760.451 589.879Z" fill="#2A1840"/>
<path fill-rule="evenodd" clip-rule="evenodd" d="M750.519 592.686C750.364 592.686 750.206 592.658 750.053 592.6C749.376 592.341 749.039 591.585 749.296 590.91L751.591 584.903C751.85 584.228 752.605 583.889 753.281 584.147C753.956 584.405 754.295 585.162 754.037 585.837L751.742 591.843C751.543 592.365 751.046 592.686 750.519 592.686Z" fill="#2A1840"/>
<path fill-rule="evenodd" clip-rule="evenodd" d="M754.46 498.751C773.635 498.751 789.18 514.296 789.18 533.471C789.18 542.403 785.807 550.548 780.265 556.7C783.36 564.421 785.586 571.73 786.944 578.627C787.211 579.391 787.346 580.181 787.346 580.958C787.346 583.729 785.659 586.355 782.913 587.412C779.653 588.669 775.983 587.301 774.332 584.26L774.223 584.05L770.821 577.583C769.022 572.506 764.233 569.301 760.758 567.62C758.716 567.996 756.611 568.191 754.46 568.191C735.284 568.191 719.74 552.646 719.74 533.471C719.74 514.296 735.284 498.751 754.46 498.751Z" fill="#351B40"/>
<path fill-rule="evenodd" clip-rule="evenodd" d="M836.741 502.925C836.741 522.101 821.196 537.645 802.021 537.645C782.845 537.645 767.301 522.101 767.301 502.925C767.301 483.75 782.845 468.205 802.021 468.205C821.196 468.205 836.741 483.75 836.741 502.925Z" fill="#351B40"/>
<path fill-rule="evenodd" clip-rule="evenodd" d="M874.801 564.309C874.801 564.309 870.395 574.255 859.549 576.765C854.951 577.821 849.198 577.566 842.152 574.611C842.152 574.611 846.075 566.568 855.354 563.393C860.267 561.695 866.668 561.352 874.801 564.309Z" fill="white"/>
<path fill-rule="evenodd" clip-rule="evenodd" d="M833.839 593.736H833.822L829.046 593.723C828.283 593.721 827.664 593.1 827.667 592.336C827.669 591.574 828.288 590.958 829.05 590.958H829.053L833.829 590.971H833.839C834.855 590.971 835.791 590.509 836.408 589.701C837.027 588.892 837.228 587.863 836.958 586.881L831.22 565.977C831.018 565.241 831.45 564.481 832.187 564.278C832.921 564.077 833.685 564.509 833.886 565.245L839.624 586.149C840.125 587.972 839.754 589.879 838.606 591.381C837.46 592.878 835.724 593.736 833.839 593.736Z" fill="#2A1840"/>
<mask id="mask16" mask-type="alpha" maskUnits="userSpaceOnUse" x="841" y="550" width="33" height="8">
<path fill-rule="evenodd" clip-rule="evenodd" d="M841.115 550.529H873.52V557.485H841.115V550.529Z" fill="white"/>
</mask>
<g mask="url(#mask16)">
<path fill-rule="evenodd" clip-rule="evenodd" d="M872.136 557.485C871.9 557.485 871.661 557.424 871.442 557.297C856.421 548.563 843.8 556.811 843.27 557.166C842.634 557.592 841.777 557.422 841.351 556.79C840.925 556.158 841.092 555.3 841.724 554.873C842.31 554.477 856.273 545.279 872.833 554.907C873.493 555.29 873.716 556.136 873.333 556.797C873.075 557.238 872.613 557.485 872.136 557.485Z" fill="#2A1840"/>
</g>
<mask id="mask17" mask-type="alpha" maskUnits="userSpaceOnUse" x="792" y="552" width="33" height="8">
<path fill-rule="evenodd" clip-rule="evenodd" d="M792.222 552.607H824.627V559.563H792.222V552.607Z" fill="white"/>
</mask>
<g mask="url(#mask17)">
<path fill-rule="evenodd" clip-rule="evenodd" d="M823.243 559.563C823.006 559.563 822.767 559.502 822.548 559.375C807.528 550.641 794.906 558.889 794.376 559.244C793.742 559.67 792.883 559.501 792.457 558.868C792.032 558.236 792.198 557.378 792.83 556.952C793.417 556.555 807.38 547.357 823.939 556.985C824.599 557.368 824.823 558.214 824.439 558.875C824.182 559.316 823.719 559.563 823.243 559.563Z" fill="#2A1840"/>
</g>
<path fill-rule="evenodd" clip-rule="evenodd" d="M827.275 573.969C827.275 573.969 818.596 580.53 807.895 577.464C803.362 576.158 798.455 573.145 793.726 567.143C793.726 567.143 801.056 562.011 810.712 563.736C815.832 564.634 821.597 567.438 827.275 573.969Z" fill="white"/>
<mask id="mask18" mask-type="alpha" maskUnits="userSpaceOnUse" x="793" y="563" width="35" height="16">
<path fill-rule="evenodd" clip-rule="evenodd" d="M793.726 567.143C798.455 573.144 803.362 576.158 807.895 577.464C818.597 580.53 827.275 573.968 827.275 573.968C821.598 567.438 815.832 564.634 810.712 563.736C809.323 563.489 807.983 563.382 806.704 563.382C799.1 563.383 793.726 567.143 793.726 567.143Z" fill="white"/>
</mask>
<g mask="url(#mask18)">
<path fill-rule="evenodd" clip-rule="evenodd" d="M807.104 572.228C807.104 579.815 813.253 585.965 820.84 585.965C828.427 585.965 834.577 579.815 834.577 572.228C834.577 564.642 828.427 558.492 820.84 558.492C813.253 558.492 807.104 564.642 807.104 572.228Z" fill="#2A1840"/>
</g>
<mask id="mask19" mask-type="alpha" maskUnits="userSpaceOnUse" x="842" y="562" width="33" height="16">
<path fill-rule="evenodd" clip-rule="evenodd" d="M855.355 563.394C846.075 566.568 842.152 574.612 842.152 574.612C849.198 577.565 854.95 577.822 859.549 576.765C870.395 574.256 874.801 564.309 874.801 564.309C870.481 562.739 866.65 562.099 863.271 562.099C860.289 562.099 857.658 562.597 855.355 563.394Z" fill="white"/>
</mask>
<g mask="url(#mask19)">
<path fill-rule="evenodd" clip-rule="evenodd" d="M854.681 569.447C854.681 577.034 860.832 583.183 868.419 583.183C876.005 583.183 882.154 577.034 882.154 569.447C882.154 561.86 876.005 555.711 868.419 555.711C860.832 555.711 854.681 561.86 854.681 569.447Z" fill="#2A1840"/>
</g>
<path fill-rule="evenodd" clip-rule="evenodd" d="M828.888 601.613C823.548 601.613 820.77 597.708 820.021 595.493C819.788 594.805 820.158 594.059 820.845 593.828C821.535 593.595 822.275 593.962 822.509 594.646C822.584 594.857 824.306 599.523 829.833 598.932C830.539 598.858 831.203 599.38 831.279 600.102C831.355 600.824 830.832 601.47 830.11 601.547C829.688 601.592 829.282 601.613 828.888 601.613Z" fill="#2A1840"/>
<path fill-rule="evenodd" clip-rule="evenodd" d="M860.702 546.984C857.819 546.984 854.945 547.612 852.252 548.863C847.383 551.124 843.688 555.146 841.843 560.186C838.037 570.592 843.406 582.154 853.812 585.96C864.217 589.767 875.78 584.398 879.586 573.992C881.43 568.95 881.2 563.494 878.94 558.625C876.679 553.758 872.658 550.061 867.617 548.218C865.366 547.394 863.031 546.984 860.702 546.984ZM860.69 590.492C858.026 590.492 855.319 590.034 852.675 589.068C840.556 584.634 834.303 571.169 838.736 559.049C840.884 553.178 845.189 548.496 850.858 545.863C856.528 543.23 862.883 542.963 868.754 545.111C874.624 547.257 879.308 551.562 881.941 557.232C884.573 562.902 884.841 569.257 882.693 575.129C879.227 584.604 870.24 590.492 860.69 590.492Z" fill="#B75B7C"/>
<path fill-rule="evenodd" clip-rule="evenodd" d="M809.87 547.068C806.987 547.068 804.113 547.697 801.419 548.948C796.552 551.208 792.855 555.229 791.011 560.27C787.204 570.675 792.573 582.237 802.979 586.044C813.385 589.85 824.947 584.482 828.753 574.075C832.559 563.67 827.19 552.107 816.785 548.302C814.534 547.478 812.198 547.068 809.87 547.068ZM809.858 590.576C807.194 590.576 804.486 590.118 801.842 589.152C789.724 584.718 783.471 571.252 787.904 559.133C790.051 553.262 794.356 548.58 800.026 545.946C805.695 543.313 812.051 543.046 817.922 545.194C830.04 549.627 836.294 563.093 831.86 575.213C828.395 584.687 819.407 590.576 809.858 590.576Z" fill="#B75B7C"/>
<path fill-rule="evenodd" clip-rule="evenodd" d="M789.381 562.24C789.309 562.26 789.236 562.276 789.16 562.286L750.699 567.461C749.858 567.574 749.086 566.985 748.973 566.145C748.86 565.305 749.451 564.537 750.289 564.418L788.751 559.244C789.591 559.13 790.363 559.72 790.477 560.56C790.579 561.324 790.1 562.033 789.381 562.24Z" fill="#B75B7C"/>
<path fill-rule="evenodd" clip-rule="evenodd" d="M831.892 565.422C831.412 565.422 830.935 565.214 830.608 564.813C830.031 564.103 830.138 563.062 830.846 562.485C834.742 559.314 838.711 560.479 840.265 561.538C841.02 562.053 841.214 563.082 840.7 563.837C840.189 564.587 839.17 564.784 838.415 564.282C838.141 564.107 835.791 562.726 832.936 565.051C832.629 565.3 832.259 565.422 831.892 565.422Z" fill="#B75B7C"/>
<path fill-rule="evenodd" clip-rule="evenodd" d="M1361.42 850.052C1361.42 850.052 1287.69 839.748 1294.05 764.089C1294.05 764.089 1374.41 774.911 1361.42 850.052Z" fill="#555A78"/>
<path fill-rule="evenodd" clip-rule="evenodd" d="M1361.42 850.972C1361.14 850.972 1360.87 850.851 1360.69 850.621L1293.88 765.762C1293.57 765.363 1293.64 764.785 1294.04 764.471C1294.44 764.157 1295.01 764.225 1295.33 764.625L1362.14 849.483C1362.45 849.882 1362.38 850.46 1361.99 850.775C1361.82 850.907 1361.62 850.972 1361.42 850.972Z" fill="white"/>
<path fill-rule="evenodd" clip-rule="evenodd" d="M1429.64 840.513C1429.64 840.513 1439.75 766.764 1515.42 772.924C1515.42 772.924 1504.81 853.31 1429.64 840.513Z" fill="#DBAAC4"/>
<path fill-rule="evenodd" clip-rule="evenodd" d="M1393.26 854.423C1393.26 854.423 1293.35 812.063 1330.89 707.941C1330.89 707.941 1439.94 753.536 1393.26 854.423Z" fill="#DBAAC4"/>
<path fill-rule="evenodd" clip-rule="evenodd" d="M1419.73 861.938C1419.73 861.938 1536.45 765.833 1445.12 641.574C1445.12 641.574 1317.46 745.618 1419.73 861.938Z" fill="#555A78"/>
<path fill-rule="evenodd" clip-rule="evenodd" d="M1419.73 862.858C1419.7 862.858 1419.66 862.858 1419.62 862.851C1419.12 862.794 1418.76 862.337 1418.82 861.832L1444.21 642.848C1444.26 642.343 1444.72 641.976 1445.22 642.04C1445.73 642.098 1446.09 642.554 1446.03 643.059L1420.64 862.044C1420.59 862.513 1420.19 862.858 1419.73 862.858Z" fill="white"/>
<path fill-rule="evenodd" clip-rule="evenodd" d="M1491.48 835.762H1306.36C1306.36 871.308 1326.4 902.166 1355.8 917.674L1349.35 931.555H1448.49L1442.04 917.674C1471.43 902.166 1491.48 871.308 1491.48 835.762Z" fill="#E3C3BB"/>
<path fill-rule="evenodd" clip-rule="evenodd" d="M1442.96 918.594H1355.8C1355.29 918.594 1354.88 918.182 1354.88 917.674C1354.88 917.166 1355.29 916.754 1355.8 916.754H1442.96C1443.47 916.754 1443.88 917.166 1443.88 917.674C1443.88 918.182 1443.47 918.594 1442.96 918.594Z" fill="white"/>
<mask id="mask20" mask-type="alpha" maskUnits="userSpaceOnUse" x="1306" y="835" width="186" height="97">
<path fill-rule="evenodd" clip-rule="evenodd" d="M1306.36 835.763C1306.36 871.307 1326.4 902.166 1355.79 917.674L1349.34 931.554H1448.49L1442.04 917.674C1471.43 902.166 1491.47 871.307 1491.47 835.763" fill="white"/>
</mask>
<g mask="url(#mask20)">
<path fill-rule="evenodd" clip-rule="evenodd" d="M1357.9 850.747C1356.15 850.747 1354.44 851.054 1352.86 851.673C1345.5 854.56 1340.72 863.275 1341.73 871.945C1342.51 878.606 1346.42 885.115 1352.38 889.92C1354.89 887.791 1357.33 885.685 1359.71 883.619C1366.47 877.74 1374 869.872 1372.18 861.14C1371.45 857.682 1369.01 854.6 1365.47 852.689C1363.09 851.403 1360.46 850.747 1357.9 850.747ZM1294.38 933.872C1294.06 933.872 1293.75 933.705 1293.58 933.407C1293.33 932.965 1293.49 932.404 1293.93 932.153C1315.36 919.967 1334.49 905.064 1350.96 891.131C1344.77 886.046 1340.73 879.191 1339.91 872.159C1338.8 862.685 1344.08 853.142 1352.19 849.961C1356.58 848.237 1361.87 848.653 1366.35 851.07C1370.36 853.24 1373.14 856.774 1373.98 860.764C1376 870.431 1368.06 878.799 1360.91 885.008C1358.63 886.994 1356.28 889.015 1353.88 891.061C1354.41 891.436 1354.94 891.798 1355.49 892.147C1361.77 896.133 1369.72 898.576 1379.8 899.614C1400.95 901.794 1424.32 897.68 1453.32 886.669C1462.42 883.212 1471.55 879.331 1480.38 875.577C1494.44 869.603 1508.96 863.426 1523.8 858.786C1524.28 858.636 1524.8 858.905 1524.95 859.39C1525.1 859.874 1524.83 860.391 1524.35 860.542C1509.6 865.155 1495.11 871.313 1481.1 877.27C1472.26 881.031 1463.11 884.919 1453.97 888.39C1424.69 899.505 1401.06 903.655 1379.61 901.443C1369.24 900.376 1361.03 897.843 1354.51 893.701C1353.8 893.25 1353.11 892.777 1352.44 892.286C1335.84 906.346 1316.52 921.422 1294.84 933.752C1294.69 933.834 1294.54 933.872 1294.38 933.872Z" fill="#2A1840"/>
</g>
<mask id="mask21" mask-type="alpha" maskUnits="userSpaceOnUse" x="1306" y="835" width="186" height="97">
<path fill-rule="evenodd" clip-rule="evenodd" d="M1306.36 835.763C1306.36 871.307 1326.4 902.166 1355.79 917.674L1349.34 931.554H1448.49L1442.04 917.674C1471.43 902.166 1491.47 871.307 1491.47 835.763" fill="white"/>
</mask>
<g mask="url(#mask21)">
<path fill-rule="evenodd" clip-rule="evenodd" d="M1455.36 840.103C1454.09 840.103 1452.99 840.27 1452.39 840.38C1445.7 841.623 1438.98 846.182 1439.11 852.491C1439.2 857.099 1443.02 860.737 1446.76 862.297C1447.09 862.439 1447.44 862.569 1447.78 862.688C1451.77 859.901 1455.49 856.446 1458.78 852.431C1460.61 850.205 1463.38 845.988 1461.48 842.76C1460.21 840.603 1457.55 840.103 1455.36 840.103ZM1424.23 872.434C1416.12 872.434 1408.25 869.905 1402.37 865.196C1393.42 858.031 1389.36 845.867 1392.49 835.614C1392.64 835.128 1393.15 834.853 1393.64 835.003C1394.12 835.151 1394.4 835.665 1394.25 836.151C1391.33 845.701 1395.14 857.055 1403.52 863.76C1411.2 869.915 1422.52 872.124 1433.05 869.526C1437.47 868.437 1441.81 866.536 1445.91 863.937C1441.66 862.113 1437.38 857.905 1437.27 852.528C1437.13 845.195 1444.6 839.956 1452.06 838.571C1457.19 837.619 1461.3 838.836 1463.06 841.825C1465.54 846.017 1462.33 851 1460.2 853.597C1457.14 857.33 1453.72 860.597 1450.06 863.316C1453.38 864.028 1456.94 863.975 1460.36 863.777C1480.49 862.615 1500.52 856.94 1518.27 847.364C1518.72 847.122 1519.28 847.289 1519.52 847.737C1519.76 848.184 1519.59 848.742 1519.14 848.982C1501.16 858.685 1480.87 864.436 1460.46 865.613C1456.36 865.85 1452.07 865.883 1448.08 864.713C1443.47 867.818 1438.53 870.07 1433.49 871.312C1430.44 872.067 1427.32 872.434 1424.23 872.434Z" fill="#2A1840"/>
</g>
<mask id="mask22" mask-type="alpha" maskUnits="userSpaceOnUse" x="1306" y="835" width="186" height="97">
<path fill-rule="evenodd" clip-rule="evenodd" d="M1306.36 835.763C1306.36 871.307 1326.4 902.166 1355.79 917.674L1349.34 931.554H1448.49L1442.04 917.674C1471.43 902.166 1491.47 871.307 1491.47 835.763" fill="white"/>
</mask>
<g mask="url(#mask22)">
<path fill-rule="evenodd" clip-rule="evenodd" d="M1293.37 878.027C1293.1 878.027 1292.84 877.914 1292.66 877.694C1292.33 877.303 1292.39 876.723 1292.78 876.399C1309.9 862.211 1324.34 845.33 1335.72 826.226C1335.98 825.789 1336.54 825.647 1336.98 825.906C1337.41 826.166 1337.56 826.731 1337.3 827.168C1325.81 846.451 1311.23 863.492 1293.95 877.815C1293.78 877.958 1293.57 878.027 1293.37 878.027Z" fill="#2A1840"/>
</g>
<path fill-rule="evenodd" clip-rule="evenodd" d="M1599.63 923.536C1599.47 923.536 1599.32 923.512 1599.17 923.462C1598.39 923.206 1597.97 922.37 1598.22 921.594L1675.95 686.078L1476.72 512.763C1476.1 512.227 1476.04 511.293 1476.57 510.677C1477.11 510.062 1478.04 509.996 1478.66 510.532L1678.63 684.492C1679.08 684.883 1679.25 685.505 1679.07 686.071L1601.03 922.521C1600.83 923.142 1600.25 923.536 1599.63 923.536Z" fill="#2A1840"/>
<path fill-rule="evenodd" clip-rule="evenodd" d="M1693.58 685.608C1693.58 698.934 1682.77 709.736 1669.45 709.736C1656.12 709.736 1645.32 698.934 1645.32 685.608C1645.32 672.281 1656.12 661.478 1669.45 661.478C1682.77 661.478 1693.58 672.281 1693.58 685.608Z" fill="#CEC6F7"/>
<path fill-rule="evenodd" clip-rule="evenodd" d="M1669.45 678.872C1665.73 678.872 1662.71 681.893 1662.71 685.607C1662.71 689.321 1665.73 692.343 1669.45 692.343C1673.16 692.343 1676.18 689.321 1676.18 685.607C1676.18 681.893 1673.16 678.872 1669.45 678.872ZM1669.45 695.299C1664.1 695.299 1659.76 690.951 1659.76 685.607C1659.76 680.263 1664.1 675.915 1669.45 675.915C1674.79 675.915 1679.14 680.263 1679.14 685.607C1679.14 690.951 1674.79 695.299 1669.45 695.299Z" fill="#2A1840"/>
<mask id="mask23" mask-type="alpha" maskUnits="userSpaceOnUse" x="1517" y="909" width="183" height="21">
<path d="M1517.03 909.442H1699.74V929.977H1517.03V909.442Z" fill="white"/>
</mask>
<g mask="url(#mask23)">
<path fill-rule="evenodd" clip-rule="evenodd" d="M1679.2 909.442H1537.56C1526.22 909.442 1517.03 918.636 1517.03 929.977H1699.74C1699.74 918.636 1690.54 909.442 1679.2 909.442Z" fill="#CEC6F7"/>
</g>
<path fill-rule="evenodd" clip-rule="evenodd" d="M1430.23 655.843L1313.6 539.21L1342.61 510.198C1374.82 477.99 1427.04 477.99 1459.24 510.198C1491.45 542.405 1491.45 594.623 1459.24 626.83L1430.23 655.843Z" fill="#CEC6F7"/>
<path fill-rule="evenodd" clip-rule="evenodd" d="M1467.88 539.972L1429.47 501.562L1448.02 483.015C1453.66 477.374 1462.8 477.374 1468.44 483.015L1486.43 501C1492.07 506.64 1492.07 515.785 1486.43 521.425L1467.88 539.972Z" fill="#CEC6F7"/>
<mask id="mask24" mask-type="alpha" maskUnits="userSpaceOnUse" x="1307" y="532" width="131" height="131">
<path d="M1307.32 532.93H1437.09V662.707H1307.32V532.93Z" fill="white"/>
</mask>
<g mask="url(#mask24)">
<path fill-rule="evenodd" clip-rule="evenodd" d="M1430.23 655.843C1414.21 671.868 1375.24 658.877 1343.19 626.833C1311.14 594.784 1298.15 555.814 1314.18 539.79C1326.11 527.855 1350.79 532.024 1375.86 548.186C1384.43 553.708 1393.05 560.64 1401.22 568.81C1409.38 576.974 1416.31 585.595 1421.84 594.164C1438 619.221 1442.17 643.904 1430.23 655.843Z" fill="#50478B"/>
</g>
<path fill-rule="evenodd" clip-rule="evenodd" d="M1415.87 602.214C1402.6 615.482 1381.08 615.488 1367.81 602.218C1354.53 588.946 1354.54 567.423 1367.81 554.155C1370.24 551.719 1372.96 549.724 1375.86 548.185C1384.43 553.709 1393.05 560.639 1401.22 568.81C1409.38 576.974 1416.31 585.596 1421.84 594.165C1420.3 597.058 1418.3 599.777 1415.87 602.214Z" fill="#E3C3BB"/>
<path fill-rule="evenodd" clip-rule="evenodd" d="M1474.92 534.408C1474.32 534.408 1473.76 534.04 1473.53 533.445C1473.45 533.217 1464.72 510.495 1436.39 495.237C1435.67 494.85 1435.41 493.953 1435.79 493.234C1436.18 492.515 1437.08 492.248 1437.8 492.633C1467.16 508.451 1475.95 531.446 1476.31 532.417C1476.59 533.182 1476.2 534.031 1475.43 534.315C1475.26 534.378 1475.09 534.408 1474.92 534.408Z" fill="#2A1840"/>
<path fill-rule="evenodd" clip-rule="evenodd" d="M1699.27 927.091H1517.03C1516.21 927.091 1515.55 926.43 1515.55 925.613C1515.55 924.796 1516.21 924.135 1517.03 924.135H1699.27C1700.09 924.135 1700.75 924.796 1700.75 925.613C1700.75 926.43 1700.09 927.091 1699.27 927.091Z" fill="#2A1840"/>
<path fill-rule="evenodd" clip-rule="evenodd" d="M441.787 1461.68C441.139 1461.68 440.544 1461.25 440.363 1460.59L308.395 982.745C308.178 981.958 308.64 981.144 309.427 980.926C310.214 980.708 311.028 981.172 311.246 981.958L443.213 1459.81C443.431 1460.59 442.968 1461.41 442.182 1461.63C442.05 1461.66 441.918 1461.68 441.787 1461.68Z" fill="#2A1840"/>
<path fill-rule="evenodd" clip-rule="evenodd" d="M303.582 1461.68C303.451 1461.68 303.319 1461.66 303.187 1461.63C302.401 1461.41 301.938 1460.59 302.156 1459.81L434.123 981.958C434.341 981.172 435.156 980.709 435.941 980.926C436.729 981.144 437.191 981.958 436.973 982.746L305.006 1460.59C304.825 1461.25 304.23 1461.68 303.582 1461.68Z" fill="#2A1840"/>
<path fill-rule="evenodd" clip-rule="evenodd" d="M1792.83 1461.68C1792.18 1461.68 1791.59 1461.25 1791.41 1460.59L1659.44 982.745C1659.22 981.958 1659.68 981.144 1660.47 980.926C1661.25 980.708 1662.07 981.172 1662.29 981.958L1794.26 1459.81C1794.47 1460.59 1794.01 1461.41 1793.22 1461.63C1793.09 1461.66 1792.96 1461.68 1792.83 1461.68Z" fill="#2A1840"/>
<path fill-rule="evenodd" clip-rule="evenodd" d="M1654.62 1461.68C1654.49 1461.68 1654.36 1461.66 1654.23 1461.63C1653.44 1461.41 1652.98 1460.59 1653.2 1459.81L1785.17 981.958C1785.38 981.172 1786.2 980.709 1786.98 980.926C1787.77 981.144 1788.23 981.958 1788.02 982.746L1656.05 1460.59C1655.87 1461.25 1655.27 1461.68 1654.62 1461.68Z" fill="#2A1840"/>
<mask id="mask25" mask-type="alpha" maskUnits="userSpaceOnUse" x="271" y="929" width="1546" height="533">
<path d="M271.609 1461.68H1816.66V929.491H271.609V1461.68Z" fill="white"/>
</mask>
<g mask="url(#mask25)">
<path fill-rule="evenodd" clip-rule="evenodd" d="M271.61 982.352H1816.66V929.491H271.61V982.352Z" fill="#CF8CD2"/>
<path fill-rule="evenodd" clip-rule="evenodd" d="M1812.9 949.477H274.742C273.726 949.477 272.902 948.652 272.902 947.637C272.902 946.621 273.726 945.797 274.742 945.797H1812.9C1813.92 945.797 1814.74 946.621 1814.74 947.637C1814.74 948.652 1813.92 949.477 1812.9 949.477Z" fill="white"/>
</g>
</g>
<defs>
<filter id="filter0_d" x="0.495605" y="0" width="1920.26" height="1476.5" filterUnits="userSpaceOnUse" color-interpolation-filters="sRGB">
<feFlood flood-opacity="0" result="BackgroundImageFix"/>
<feColorMatrix in="SourceAlpha" type="matrix" values="0 0 0 0 0 0 0 0 0 0 0 0 0 0 0 0 0 0 127 0"/>
<feOffset dy="4"/>
<feGaussianBlur stdDeviation="2"/>
<feColorMatrix type="matrix" values="0 0 0 0 0.478431 0 0 0 0 0.333333 0 0 0 0 0.603922 0 0 0 0.35 0"/>
<feBlend mode="normal" in2="BackgroundImageFix" result="effect1_dropShadow"/>
<feBlend mode="normal" in="SourceGraphic" in2="effect1_dropShadow" result="shape"/>
</filter>
</defs>
</svg>
