<svg width="390" height="239" viewBox="0 0 390 239" fill="none" xmlns="http://www.w3.org/2000/svg">
<g filter="url(#filter0_d)">
<rect x="4" width="382" height="231" rx="20" fill="#D9BBF2"/>
</g>
<g filter="url(#filter1_d)">
<path d="M288.104 110.925C287.579 108.351 286.947 104.891 286.947 103.072C286.943 102.343 287.083 101.62 287.36 100.946C287.638 100.271 288.047 99.658 288.563 99.1424C289.08 98.6268 289.694 98.2187 290.37 97.9418C291.045 97.6649 291.77 97.5247 292.5 97.5294V97.5294C295.567 97.5294 298.053 100.07 298.053 103.072C298.053 104.841 297.424 108.321 296.896 110.925" stroke="#FFD085" stroke-width="3" stroke-miterlimit="10" stroke-linecap="round"/>
<path d="M288.104 132.173C287.577 134.753 286.947 138.195 286.947 140.026C286.943 140.755 287.083 141.478 287.36 142.153C287.638 142.827 288.047 143.44 288.563 143.956C289.08 144.471 289.694 144.879 290.37 145.156C291.045 145.433 291.77 145.573 292.5 145.569V145.569C295.567 145.569 298.053 143.028 298.053 140.026C298.053 138.252 297.424 134.779 296.896 132.173" stroke="#FFD085" stroke-width="3" stroke-miterlimit="10" stroke-linecap="round"/>
<path d="M303.143 117.161C305.728 116.635 309.176 116.006 311.01 116.006C311.74 116.002 312.465 116.142 313.14 116.419C313.816 116.695 314.43 117.104 314.947 117.619C315.463 118.135 315.872 118.748 316.149 119.422C316.427 120.097 316.567 120.82 316.562 121.549V121.549C316.562 124.61 314.018 127.092 311.01 127.092C309.237 127.092 305.752 126.464 303.143 125.937" stroke="#FFD085" stroke-width="3" stroke-miterlimit="10" stroke-linecap="round"/>
<path d="M281.857 117.16C279.279 116.636 275.814 116.006 273.99 116.006C273.26 116.002 272.536 116.142 271.86 116.419C271.184 116.695 270.57 117.104 270.053 117.619C269.537 118.135 269.128 118.748 268.851 119.422C268.573 120.097 268.433 120.82 268.438 121.549V121.549C268.438 124.61 270.982 127.092 273.99 127.092C275.763 127.092 279.249 126.464 281.857 125.937" stroke="#FFD085" stroke-width="3" stroke-miterlimit="10" stroke-linecap="round"/>
<path d="M296.896 110.925C298.351 108.729 300.365 105.858 301.662 104.565C302.175 104.046 302.786 103.634 303.46 103.352C304.134 103.071 304.858 102.926 305.588 102.926C306.319 102.926 307.042 103.071 307.716 103.352C308.39 103.634 309.001 104.046 309.515 104.565V104.565C311.683 106.73 311.642 110.28 309.515 112.403C308.262 113.655 305.361 115.692 303.143 117.161" stroke="#FFD085" stroke-width="3" stroke-miterlimit="10" stroke-linecap="round"/>
<path d="M281.857 125.937C279.657 127.39 276.781 129.4 275.486 130.695C274.966 131.207 274.553 131.817 274.271 132.49C273.989 133.163 273.844 133.885 273.844 134.614C273.844 135.343 273.989 136.065 274.271 136.738C274.553 137.411 274.966 138.021 275.486 138.533C277.654 140.698 281.211 140.656 283.338 138.533C284.592 137.283 286.633 134.387 288.104 132.173" stroke="#FFD085" stroke-width="3" stroke-miterlimit="10" stroke-linecap="round"/>
<path d="M303.143 125.937C305.343 127.39 308.219 129.4 309.515 130.695C310.035 131.207 310.447 131.817 310.729 132.49C311.011 133.163 311.156 133.885 311.156 134.614C311.156 135.343 311.011 136.065 310.729 136.738C310.447 137.411 310.035 138.021 309.515 138.533V138.533C307.346 140.698 303.789 140.656 301.662 138.533C300.406 137.28 298.368 134.389 296.896 132.173" stroke="#FFD085" stroke-width="3" stroke-miterlimit="10" stroke-linecap="round"/>
<path d="M288.104 110.925C286.651 108.734 284.626 105.85 283.338 104.565C282.825 104.046 282.213 103.634 281.539 103.352C280.865 103.071 280.142 102.926 279.412 102.926C278.681 102.926 277.958 103.071 277.284 103.352C276.61 103.634 275.998 104.046 275.485 104.565V104.565C273.317 106.73 273.358 110.28 275.485 112.403C276.733 113.648 279.643 115.693 281.857 117.161" stroke="#FFD085" stroke-width="3" stroke-miterlimit="10" stroke-linecap="round"/>
<path d="M292.5 128.412C296.297 128.412 299.375 125.339 299.375 121.549C299.375 117.759 296.297 114.686 292.5 114.686C288.703 114.686 285.625 117.759 285.625 121.549C285.625 125.339 288.703 128.412 292.5 128.412Z" stroke="#FFD085" stroke-width="3" stroke-miterlimit="10" stroke-linecap="round"/>
</g>
<g filter="url(#filter2_d)">
<path d="M288.104 109.827C287.579 107.253 286.947 103.793 286.947 101.974C286.943 101.245 287.083 100.522 287.36 99.8475C287.638 99.1729 288.047 98.56 288.563 98.0444C289.08 97.5287 289.694 97.1206 290.37 96.8437C291.045 96.5669 291.77 96.4267 292.5 96.4314V96.4314C295.567 96.4314 298.053 98.9717 298.053 101.974C298.053 103.743 297.424 107.223 296.896 109.827" stroke="#7A559A" stroke-width="3" stroke-miterlimit="10" stroke-linecap="round"/>
<path d="M288.104 131.075C287.577 133.655 286.947 137.097 286.947 138.928C286.943 139.657 287.083 140.38 287.36 141.055C287.638 141.729 288.047 142.342 288.563 142.858C289.08 143.373 289.694 143.781 290.37 144.058C291.045 144.335 291.77 144.475 292.5 144.471V144.471C295.567 144.471 298.053 141.93 298.053 138.928C298.053 137.154 297.424 133.681 296.896 131.075" stroke="#7A559A" stroke-width="3" stroke-miterlimit="10" stroke-linecap="round"/>
<path d="M303.143 116.063C305.728 115.537 309.176 114.908 311.01 114.908C311.74 114.904 312.465 115.044 313.14 115.321C313.816 115.597 314.43 116.006 314.947 116.521C315.463 117.037 315.872 117.65 316.149 118.324C316.427 118.999 316.567 119.722 316.562 120.451V120.451C316.562 123.512 314.018 125.994 311.01 125.994C309.237 125.994 305.752 125.366 303.143 124.839" stroke="#7A559A" stroke-width="3" stroke-miterlimit="10" stroke-linecap="round"/>
<path d="M281.857 116.062C279.279 115.538 275.814 114.908 273.99 114.908C273.26 114.904 272.536 115.044 271.86 115.321C271.184 115.597 270.57 116.006 270.053 116.521C269.537 117.037 269.128 117.65 268.851 118.324C268.573 118.999 268.433 119.722 268.438 120.451V120.451C268.438 123.512 270.982 125.994 273.99 125.994C275.763 125.994 279.249 125.366 281.857 124.839" stroke="#7A559A" stroke-width="3" stroke-miterlimit="10" stroke-linecap="round"/>
<path d="M296.896 109.827C298.351 107.631 300.365 104.76 301.662 103.467C302.175 102.948 302.786 102.536 303.46 102.254C304.134 101.973 304.858 101.828 305.588 101.828C306.319 101.828 307.042 101.973 307.716 102.254C308.39 102.536 309.001 102.948 309.515 103.467V103.467C311.683 105.632 311.642 109.182 309.515 111.305C308.262 112.557 305.361 114.594 303.143 116.063" stroke="#7A559A" stroke-width="3" stroke-miterlimit="10" stroke-linecap="round"/>
<path d="M281.857 124.839C279.657 126.292 276.781 128.302 275.486 129.597C274.966 130.109 274.553 130.719 274.271 131.392C273.989 132.065 273.844 132.787 273.844 133.516C273.844 134.245 273.989 134.967 274.271 135.64C274.553 136.313 274.966 136.923 275.486 137.435C277.654 139.6 281.211 139.558 283.338 137.435C284.592 136.185 286.633 133.289 288.104 131.075" stroke="#7A559A" stroke-width="3" stroke-miterlimit="10" stroke-linecap="round"/>
<path d="M303.143 124.839C305.343 126.292 308.219 128.302 309.515 129.597C310.035 130.109 310.447 130.719 310.729 131.392C311.011 132.065 311.156 132.787 311.156 133.516C311.156 134.245 311.011 134.967 310.729 135.64C310.447 136.313 310.035 136.923 309.515 137.435V137.435C307.346 139.6 303.789 139.558 301.662 137.435C300.406 136.182 298.368 133.291 296.896 131.075" stroke="#7A559A" stroke-width="3" stroke-miterlimit="10" stroke-linecap="round"/>
<path d="M288.104 109.827C286.651 107.636 284.626 104.752 283.338 103.467C282.825 102.948 282.213 102.536 281.539 102.254C280.865 101.973 280.142 101.828 279.412 101.828C278.681 101.828 277.958 101.973 277.284 102.254C276.61 102.536 275.998 102.948 275.485 103.467V103.467C273.317 105.632 273.358 109.182 275.485 111.305C276.733 112.55 279.643 114.595 281.857 116.063" stroke="#7A559A" stroke-width="3" stroke-miterlimit="10" stroke-linecap="round"/>
<path d="M292.5 127.314C296.297 127.314 299.375 124.241 299.375 120.451C299.375 116.661 296.297 113.588 292.5 113.588C288.703 113.588 285.625 116.661 285.625 120.451C285.625 124.241 288.703 127.314 292.5 127.314Z" stroke="#7A559A" stroke-width="3" stroke-miterlimit="10" stroke-linecap="round"/>
</g>
<g filter="url(#filter3_d)">
<path d="M108.438 122.332C108.438 128.426 107.137 133.184 104.535 136.605C101.934 140.004 98.3008 141.703 93.6367 141.703C89.5117 141.703 86.2188 140.121 83.7578 136.957L83.3008 141H74.1602V87H84.3203V106.371C86.6641 103.629 89.7461 102.258 93.5664 102.258C98.207 102.258 101.84 103.969 104.465 107.391C107.113 110.789 108.438 115.582 108.438 121.77V122.332ZM98.2773 121.594C98.2773 117.75 97.668 114.949 96.4492 113.191C95.2305 111.41 93.4141 110.52 91 110.52C87.7656 110.52 85.5391 111.844 84.3203 114.492V129.504C85.5625 132.176 87.8125 133.512 91.0703 133.512C94.3516 133.512 96.5078 131.895 97.5391 128.66C98.0312 127.113 98.2773 124.758 98.2773 121.594ZM125.453 141H115.258V87H125.453V141ZM132.273 121.629C132.273 117.855 133 114.492 134.453 111.539C135.906 108.586 137.992 106.301 140.711 104.684C143.453 103.066 146.629 102.258 150.238 102.258C155.371 102.258 159.555 103.828 162.789 106.969C166.047 110.109 167.863 114.375 168.238 119.766L168.309 122.367C168.309 128.203 166.68 132.891 163.422 136.43C160.164 139.945 155.793 141.703 150.309 141.703C144.824 141.703 140.441 139.945 137.16 136.43C133.902 132.914 132.273 128.133 132.273 122.086V121.629ZM142.434 122.367C142.434 125.977 143.113 128.742 144.473 130.664C145.832 132.562 147.777 133.512 150.309 133.512C152.77 133.512 154.691 132.574 156.074 130.699C157.457 128.801 158.148 125.777 158.148 121.629C158.148 118.09 157.457 115.348 156.074 113.402C154.691 111.457 152.746 110.484 150.238 110.484C147.754 110.484 145.832 111.457 144.473 113.402C143.113 115.324 142.434 118.312 142.434 122.367ZM172.984 121.629C172.984 117.855 173.711 114.492 175.164 111.539C176.617 108.586 178.703 106.301 181.422 104.684C184.164 103.066 187.34 102.258 190.949 102.258C196.082 102.258 200.266 103.828 203.5 106.969C206.758 110.109 208.574 114.375 208.949 119.766L209.02 122.367C209.02 128.203 207.391 132.891 204.133 136.43C200.875 139.945 196.504 141.703 191.02 141.703C185.535 141.703 181.152 139.945 177.871 136.43C174.613 132.914 172.984 128.133 172.984 122.086V121.629ZM183.145 122.367C183.145 125.977 183.824 128.742 185.184 130.664C186.543 132.562 188.488 133.512 191.02 133.512C193.48 133.512 195.402 132.574 196.785 130.699C198.168 128.801 198.859 125.777 198.859 121.629C198.859 118.09 198.168 115.348 196.785 113.402C195.402 111.457 193.457 110.484 190.949 110.484C188.465 110.484 186.543 111.457 185.184 113.402C183.824 115.324 183.145 118.312 183.145 122.367ZM224.805 102.961L225.121 107.215C227.816 103.91 231.461 102.258 236.055 102.258C240.953 102.258 244.316 104.191 246.145 108.059C248.816 104.191 252.625 102.258 257.57 102.258C261.695 102.258 264.766 103.465 266.781 105.879C268.797 108.27 269.805 111.879 269.805 116.707V141H259.609V116.742C259.609 114.586 259.188 113.016 258.344 112.031C257.5 111.023 256.012 110.52 253.879 110.52C250.832 110.52 248.723 111.973 247.551 114.879L247.586 141H237.426V116.777C237.426 114.574 236.992 112.98 236.125 111.996C235.258 111.012 233.781 110.52 231.695 110.52C228.812 110.52 226.727 111.715 225.438 114.105V141H215.277V102.961H224.805Z" fill="#FFD085"/>
</g>
<g filter="url(#filter4_d)">
<path d="M108.438 120.332C108.438 126.426 107.137 131.184 104.535 134.605C101.934 138.004 98.3008 139.703 93.6367 139.703C89.5117 139.703 86.2188 138.121 83.7578 134.957L83.3008 139H74.1602V85H84.3203V104.371C86.6641 101.629 89.7461 100.258 93.5664 100.258C98.207 100.258 101.84 101.969 104.465 105.391C107.113 108.789 108.438 113.582 108.438 119.77V120.332ZM98.2773 119.594C98.2773 115.75 97.668 112.949 96.4492 111.191C95.2305 109.41 93.4141 108.52 91 108.52C87.7656 108.52 85.5391 109.844 84.3203 112.492V127.504C85.5625 130.176 87.8125 131.512 91.0703 131.512C94.3516 131.512 96.5078 129.895 97.5391 126.66C98.0312 125.113 98.2773 122.758 98.2773 119.594ZM125.453 139H115.258V85H125.453V139ZM132.273 119.629C132.273 115.855 133 112.492 134.453 109.539C135.906 106.586 137.992 104.301 140.711 102.684C143.453 101.066 146.629 100.258 150.238 100.258C155.371 100.258 159.555 101.828 162.789 104.969C166.047 108.109 167.863 112.375 168.238 117.766L168.309 120.367C168.309 126.203 166.68 130.891 163.422 134.43C160.164 137.945 155.793 139.703 150.309 139.703C144.824 139.703 140.441 137.945 137.16 134.43C133.902 130.914 132.273 126.133 132.273 120.086V119.629ZM142.434 120.367C142.434 123.977 143.113 126.742 144.473 128.664C145.832 130.562 147.777 131.512 150.309 131.512C152.77 131.512 154.691 130.574 156.074 128.699C157.457 126.801 158.148 123.777 158.148 119.629C158.148 116.09 157.457 113.348 156.074 111.402C154.691 109.457 152.746 108.484 150.238 108.484C147.754 108.484 145.832 109.457 144.473 111.402C143.113 113.324 142.434 116.312 142.434 120.367ZM172.984 119.629C172.984 115.855 173.711 112.492 175.164 109.539C176.617 106.586 178.703 104.301 181.422 102.684C184.164 101.066 187.34 100.258 190.949 100.258C196.082 100.258 200.266 101.828 203.5 104.969C206.758 108.109 208.574 112.375 208.949 117.766L209.02 120.367C209.02 126.203 207.391 130.891 204.133 134.43C200.875 137.945 196.504 139.703 191.02 139.703C185.535 139.703 181.152 137.945 177.871 134.43C174.613 130.914 172.984 126.133 172.984 120.086V119.629ZM183.145 120.367C183.145 123.977 183.824 126.742 185.184 128.664C186.543 130.562 188.488 131.512 191.02 131.512C193.48 131.512 195.402 130.574 196.785 128.699C198.168 126.801 198.859 123.777 198.859 119.629C198.859 116.09 198.168 113.348 196.785 111.402C195.402 109.457 193.457 108.484 190.949 108.484C188.465 108.484 186.543 109.457 185.184 111.402C183.824 113.324 183.145 116.312 183.145 120.367ZM224.805 100.961L225.121 105.215C227.816 101.91 231.461 100.258 236.055 100.258C240.953 100.258 244.316 102.191 246.145 106.059C248.816 102.191 252.625 100.258 257.57 100.258C261.695 100.258 264.766 101.465 266.781 103.879C268.797 106.27 269.805 109.879 269.805 114.707V139H259.609V114.742C259.609 112.586 259.188 111.016 258.344 110.031C257.5 109.023 256.012 108.52 253.879 108.52C250.832 108.52 248.723 109.973 247.551 112.879L247.586 139H237.426V114.777C237.426 112.574 236.992 110.98 236.125 109.996C235.258 109.012 233.781 108.52 231.695 108.52C228.812 108.52 226.727 109.715 225.438 112.105V139H215.277V100.961H224.805Z" fill="#240046"/>
</g>
<defs>
<filter id="filter0_d" x="0" y="0" width="390" height="239" filterUnits="userSpaceOnUse" color-interpolation-filters="sRGB">
<feFlood flood-opacity="0" result="BackgroundImageFix"/>
<feColorMatrix in="SourceAlpha" type="matrix" values="0 0 0 0 0 0 0 0 0 0 0 0 0 0 0 0 0 0 127 0"/>
<feOffset dy="4"/>
<feGaussianBlur stdDeviation="2"/>
<feColorMatrix type="matrix" values="0 0 0 0 0.478431 0 0 0 0 0.333333 0 0 0 0 0.603922 0 0 0 0.35 0"/>
<feBlend mode="normal" in2="BackgroundImageFix" result="effect1_dropShadow"/>
<feBlend mode="normal" in="SourceGraphic" in2="effect1_dropShadow" result="shape"/>
</filter>
<filter id="filter1_d" x="261" y="94.098" width="63" height="62.902" filterUnits="userSpaceOnUse" color-interpolation-filters="sRGB">
<feFlood flood-opacity="0" result="BackgroundImageFix"/>
<feColorMatrix in="SourceAlpha" type="matrix" values="0 0 0 0 0 0 0 0 0 0 0 0 0 0 0 0 0 0 127 0"/>
<feOffset dy="4"/>
<feGaussianBlur stdDeviation="2"/>
<feColorMatrix type="matrix" values="0 0 0 0 0.478431 0 0 0 0 0.333333 0 0 0 0 0.603922 0 0 0 0.35 0"/>
<feBlend mode="normal" in2="BackgroundImageFix" result="effect1_dropShadow"/>
<feBlend mode="normal" in="SourceGraphic" in2="effect1_dropShadow" result="shape"/>
</filter>
<filter id="filter2_d" x="261" y="93" width="63" height="62.902" filterUnits="userSpaceOnUse" color-interpolation-filters="sRGB">
<feFlood flood-opacity="0" result="BackgroundImageFix"/>
<feColorMatrix in="SourceAlpha" type="matrix" values="0 0 0 0 0 0 0 0 0 0 0 0 0 0 0 0 0 0 127 0"/>
<feOffset dy="4"/>
<feGaussianBlur stdDeviation="2"/>
<feColorMatrix type="matrix" values="0 0 0 0 0.478431 0 0 0 0 0.333333 0 0 0 0 0.603922 0 0 0 0.35 0"/>
<feBlend mode="normal" in2="BackgroundImageFix" result="effect1_dropShadow"/>
<feBlend mode="normal" in="SourceGraphic" in2="effect1_dropShadow" result="shape"/>
</filter>
<filter id="filter3_d" x="70.1602" y="87" width="203.645" height="62.7031" filterUnits="userSpaceOnUse" color-interpolation-filters="sRGB">
<feFlood flood-opacity="0" result="BackgroundImageFix"/>
<feColorMatrix in="SourceAlpha" type="matrix" values="0 0 0 0 0 0 0 0 0 0 0 0 0 0 0 0 0 0 127 0"/>
<feOffset dy="4"/>
<feGaussianBlur stdDeviation="2"/>
<feColorMatrix type="matrix" values="0 0 0 0 0.478431 0 0 0 0 0.333333 0 0 0 0 0.603922 0 0 0 0.25 0"/>
<feBlend mode="normal" in2="BackgroundImageFix" result="effect1_dropShadow"/>
<feBlend mode="normal" in="SourceGraphic" in2="effect1_dropShadow" result="shape"/>
</filter>
<filter id="filter4_d" x="70.1602" y="85" width="203.645" height="62.7031" filterUnits="userSpaceOnUse" color-interpolation-filters="sRGB">
<feFlood flood-opacity="0" result="BackgroundImageFix"/>
<feColorMatrix in="SourceAlpha" type="matrix" values="0 0 0 0 0 0 0 0 0 0 0 0 0 0 0 0 0 0 127 0"/>
<feOffset dy="4"/>
<feGaussianBlur stdDeviation="2"/>
<feColorMatrix type="matrix" values="0 0 0 0 0.478431 0 0 0 0 0.333333 0 0 0 0 0.603922 0 0 0 0.25 0"/>
<feBlend mode="normal" in2="BackgroundImageFix" result="effect1_dropShadow"/>
<feBlend mode="normal" in="SourceGraphic" in2="effect1_dropShadow" result="shape"/>
</filter>
</defs>
</svg>
