<svg width="128" height="128" viewBox="0 0 128 128" fill="none" xmlns="http://www.w3.org/2000/svg">
<g filter="url(#filter0_d)">
<rect x="4" width="120" height="120" rx="20" fill="#D9BBF2"/>
</g>
<g filter="url(#filter1_d)">
<path d="M58.5059 45.7424C57.7896 42.2714 56.9282 37.6043 56.9282 35.1515C56.9218 34.168 57.1133 33.1931 57.4915 32.2832C57.8698 31.3734 58.4272 30.5467 59.1316 29.8513C59.836 29.1558 60.6733 28.6054 61.5948 28.232C62.5164 27.8586 63.5039 27.6695 64.5 27.6759V27.6759C68.6821 27.6759 72.0718 31.102 72.0718 35.1515C72.0718 37.5378 71.2149 42.2309 70.4941 45.7424" stroke="#FFD085" stroke-width="3" stroke-miterlimit="10" stroke-linecap="round"/>
<path d="M58.5059 74.4012C57.7866 77.8808 56.9282 82.5233 56.9282 84.992C56.9218 85.9755 57.1133 86.9505 57.4915 87.8603C57.8698 88.7702 58.4272 89.5968 59.1316 90.2922C59.836 90.9877 60.6733 91.5381 61.5948 91.9115C62.5164 92.285 63.5039 92.474 64.5 92.4677V92.4677C68.6821 92.4677 72.0718 89.0415 72.0718 84.992C72.0718 82.5999 71.2149 77.9155 70.4941 74.4012" stroke="#FFD085" stroke-width="3" stroke-miterlimit="10" stroke-linecap="round"/>
<path d="M79.0137 54.1537C82.5381 53.4436 87.2402 52.5961 89.7407 52.5961C90.7369 52.5897 91.7244 52.7788 92.6459 53.1522C93.5675 53.5256 94.4047 54.076 95.1091 54.7715C95.8135 55.4669 96.371 56.2936 96.7492 57.2034C97.1275 58.1133 97.3189 59.0882 97.3125 60.0717V60.0717C97.3125 64.2007 93.8423 67.5474 89.7407 67.5474C87.3237 67.5474 82.5703 66.7013 79.0137 65.9898" stroke="#FFD085" stroke-width="3" stroke-miterlimit="10" stroke-linecap="round"/>
<path d="M49.9865 54.1522C46.4708 53.445 41.7467 52.5961 39.2594 52.5961C38.2633 52.5897 37.2758 52.7788 36.3542 53.1522C35.4327 53.5256 34.5954 54.076 33.891 54.7715C33.1866 55.4669 32.6292 56.2936 32.2509 57.2034C31.8727 58.1133 31.6812 59.0882 31.6876 60.0717V60.0717C31.6876 64.2007 35.1578 67.5474 39.2594 67.5474C41.6764 67.5474 46.4298 66.7013 49.9865 65.9898" stroke="#FFD085" stroke-width="3" stroke-miterlimit="10" stroke-linecap="round"/>
<path d="M70.4941 45.7423C72.479 42.7804 75.2256 38.9088 76.9937 37.1646C77.6934 36.4645 78.527 35.9087 79.4461 35.5293C80.3652 35.1499 81.3515 34.9545 82.3477 34.9545C83.3439 34.9545 84.3301 35.1499 85.2492 35.5293C86.1683 35.9087 87.002 36.4645 87.7017 37.1646V37.1646C90.6592 40.0846 90.6021 44.8731 87.7017 47.7367C85.9937 49.4244 82.0371 52.1723 79.0137 54.1537" stroke="#FFD085" stroke-width="3" stroke-miterlimit="10" stroke-linecap="round"/>
<path d="M49.9864 65.9898C46.9864 67.9494 43.065 70.6611 41.2984 72.4068C40.5893 73.0976 40.0263 73.9206 39.642 74.8281C39.2578 75.7355 39.0599 76.7092 39.0599 77.6928C39.0599 78.6763 39.2578 79.6501 39.642 80.5575C40.0263 81.4649 40.5893 82.288 41.2984 82.9788C44.2559 85.8988 49.106 85.8424 52.0064 82.9788C53.7159 81.2925 56.4991 77.3862 58.5059 74.4011" stroke="#FFD085" stroke-width="3" stroke-miterlimit="10" stroke-linecap="round"/>
<path d="M79.0137 65.9898C82.0137 67.9494 85.9351 70.6611 87.7017 72.4068C88.4107 73.0976 88.9738 73.9206 89.358 74.8281C89.7423 75.7355 89.9402 76.7092 89.9402 77.6928C89.9402 78.6763 89.7423 79.6501 89.358 80.5575C88.9738 81.4649 88.4107 82.288 87.7017 82.9788V82.9788C84.7441 85.8988 79.894 85.8424 76.9937 82.9788C75.2813 81.2882 72.5024 77.3891 70.4941 74.4011" stroke="#FFD085" stroke-width="3" stroke-miterlimit="10" stroke-linecap="round"/>
<path d="M58.5058 45.7423C56.5238 42.7876 53.7626 38.8987 52.0063 37.1646C51.3065 36.4645 50.4729 35.9087 49.5538 35.5293C48.6347 35.1499 47.6484 34.9545 46.6522 34.9545C45.656 34.9545 44.6698 35.1499 43.7507 35.5293C42.8316 35.9087 41.998 36.4645 41.2982 37.1646V37.1646C38.3407 40.0846 38.3978 44.8731 41.2982 47.7367C42.9989 49.4158 46.9672 52.1738 49.9862 54.1537" stroke="#FFD085" stroke-width="3" stroke-miterlimit="10" stroke-linecap="round"/>
<path d="M64.5 69.3277C69.6777 69.3277 73.875 65.1837 73.875 60.0717C73.875 54.9598 69.6777 50.8158 64.5 50.8158C59.3223 50.8158 55.125 54.9598 55.125 60.0717C55.125 65.1837 59.3223 69.3277 64.5 69.3277Z" stroke="#FFD085" stroke-width="3" stroke-miterlimit="10" stroke-linecap="round"/>
</g>
<g filter="url(#filter2_d)">
<path d="M58.5059 44.6945C57.7896 41.2236 56.9282 36.5565 56.9282 34.1037C56.9218 33.1202 57.1133 32.1452 57.4915 31.2354C57.8698 30.3255 58.4272 29.4989 59.1316 28.8035C59.836 28.108 60.6733 27.5576 61.5948 27.1842C62.5164 26.8107 63.5039 26.6217 64.5 26.628V26.628C68.6821 26.628 72.0718 30.0542 72.0718 34.1037C72.0718 36.49 71.2149 41.1831 70.4941 44.6945" stroke="#7A559A" stroke-width="3" stroke-miterlimit="10" stroke-linecap="round"/>
<path d="M58.5059 73.3533C57.7866 76.833 56.9282 81.4755 56.9282 83.9442C56.9218 84.9277 57.1133 85.9026 57.4915 86.8125C57.8698 87.7223 58.4272 88.549 59.1316 89.2444C59.836 89.9399 60.6733 90.4903 61.5948 90.8637C62.5164 91.2372 63.5039 91.4262 64.5 91.4198V91.4198C68.6821 91.4198 72.0718 87.9937 72.0718 83.9442C72.0718 81.5521 71.2149 76.8677 70.4941 73.3533" stroke="#7A559A" stroke-width="3" stroke-miterlimit="10" stroke-linecap="round"/>
<path d="M79.0137 53.1058C82.5381 52.3957 87.2402 51.5482 89.7407 51.5482C90.7369 51.5419 91.7244 51.7309 92.6459 52.1044C93.5675 52.4778 94.4047 53.0282 95.1091 53.7237C95.8135 54.4191 96.371 55.2457 96.7492 56.1556C97.1275 57.0654 97.3189 58.0404 97.3125 59.0239V59.0239C97.3125 63.1529 93.8423 66.4995 89.7407 66.4995C87.3237 66.4995 82.5703 65.6535 79.0137 64.9419" stroke="#7A559A" stroke-width="3" stroke-miterlimit="10" stroke-linecap="round"/>
<path d="M49.9865 53.1044C46.4708 52.3972 41.7467 51.5482 39.2594 51.5482C38.2633 51.5419 37.2758 51.7309 36.3542 52.1044C35.4327 52.4778 34.5954 53.0282 33.891 53.7237C33.1866 54.4191 32.6292 55.2457 32.2509 56.1556C31.8727 57.0654 31.6812 58.0404 31.6876 59.0239V59.0239C31.6876 63.1529 35.1578 66.4995 39.2594 66.4995C41.6764 66.4995 46.4298 65.6535 49.9865 64.9419" stroke="#7A559A" stroke-width="3" stroke-miterlimit="10" stroke-linecap="round"/>
<path d="M70.4941 44.6945C72.479 41.7326 75.2256 37.861 76.9937 36.1168C77.6934 35.4167 78.527 34.8608 79.4461 34.4814C80.3652 34.102 81.3515 33.9067 82.3477 33.9067C83.3439 33.9067 84.3301 34.102 85.2492 34.4814C86.1683 34.8608 87.002 35.4167 87.7017 36.1168V36.1168C90.6592 39.0368 90.6021 43.8253 87.7017 46.6889C85.9937 48.3766 82.0371 51.1245 79.0137 53.1059" stroke="#7A559A" stroke-width="3" stroke-miterlimit="10" stroke-linecap="round"/>
<path d="M49.9864 64.9419C46.9864 66.9016 43.065 69.6133 41.2984 71.3589C40.5893 72.0498 40.0263 72.8728 39.642 73.7802C39.2578 74.6877 39.0599 75.6614 39.0599 76.645C39.0599 77.6285 39.2578 78.6023 39.642 79.5097C40.0263 80.4171 40.5893 81.2402 41.2984 81.931C44.2559 84.851 49.106 84.7946 52.0064 81.931C53.7159 80.2447 56.4991 76.3384 58.5059 73.3533" stroke="#7A559A" stroke-width="3" stroke-miterlimit="10" stroke-linecap="round"/>
<path d="M79.0137 64.9419C82.0137 66.9016 85.9351 69.6133 87.7017 71.3589C88.4107 72.0498 88.9738 72.8728 89.358 73.7802C89.7423 74.6877 89.9402 75.6614 89.9402 76.645C89.9402 77.6285 89.7423 78.6023 89.358 79.5097C88.9738 80.4171 88.4107 81.2402 87.7017 81.931V81.931C84.7441 84.851 79.894 84.7946 76.9937 81.931C75.2813 80.2403 72.5024 76.3413 70.4941 73.3533" stroke="#7A559A" stroke-width="3" stroke-miterlimit="10" stroke-linecap="round"/>
<path d="M58.5058 44.6945C56.5238 41.7398 53.7626 37.8508 52.0063 36.1168C51.3065 35.4167 50.4729 34.8608 49.5538 34.4814C48.6347 34.102 47.6484 33.9067 46.6522 33.9067C45.656 33.9067 44.6698 34.102 43.7507 34.4814C42.8316 34.8608 41.998 35.4167 41.2982 36.1168V36.1168C38.3407 39.0368 38.3978 43.8253 41.2982 46.6889C42.9989 48.3679 46.9672 51.1259 49.9862 53.1059" stroke="#7A559A" stroke-width="3" stroke-miterlimit="10" stroke-linecap="round"/>
<path d="M64.5 68.2799C69.6777 68.2799 73.875 64.1358 73.875 59.0239C73.875 53.912 69.6777 49.7679 64.5 49.7679C59.3223 49.7679 55.125 53.912 55.125 59.0239C55.125 64.1358 59.3223 68.2799 64.5 68.2799Z" stroke="#7A559A" stroke-width="3" stroke-miterlimit="10" stroke-linecap="round"/>
</g>
<defs>
<filter id="filter0_d" x="0" y="0" width="128" height="128" filterUnits="userSpaceOnUse" color-interpolation-filters="sRGB">
<feFlood flood-opacity="0" result="BackgroundImageFix"/>
<feColorMatrix in="SourceAlpha" type="matrix" values="0 0 0 0 0 0 0 0 0 0 0 0 0 0 0 0 0 0 127 0"/>
<feOffset dy="4"/>
<feGaussianBlur stdDeviation="2"/>
<feColorMatrix type="matrix" values="0 0 0 0 0.478431 0 0 0 0 0.333333 0 0 0 0 0.603922 0 0 0 0.35 0"/>
<feBlend mode="normal" in2="BackgroundImageFix" result="effect1_dropShadow"/>
<feBlend mode="normal" in="SourceGraphic" in2="effect1_dropShadow" result="shape"/>
</filter>
<filter id="filter1_d" x="23" y="23.0478" width="83" height="82.0478" filterUnits="userSpaceOnUse" color-interpolation-filters="sRGB">
<feFlood flood-opacity="0" result="BackgroundImageFix"/>
<feColorMatrix in="SourceAlpha" type="matrix" values="0 0 0 0 0 0 0 0 0 0 0 0 0 0 0 0 0 0 127 0"/>
<feOffset dy="4"/>
<feGaussianBlur stdDeviation="2"/>
<feColorMatrix type="matrix" values="0 0 0 0 0.478431 0 0 0 0 0.333333 0 0 0 0 0.603922 0 0 0 0.35 0"/>
<feBlend mode="normal" in2="BackgroundImageFix" result="effect1_dropShadow"/>
<feBlend mode="normal" in="SourceGraphic" in2="effect1_dropShadow" result="shape"/>
</filter>
<filter id="filter2_d" x="23" y="22" width="83" height="82.0478" filterUnits="userSpaceOnUse" color-interpolation-filters="sRGB">
<feFlood flood-opacity="0" result="BackgroundImageFix"/>
<feColorMatrix in="SourceAlpha" type="matrix" values="0 0 0 0 0 0 0 0 0 0 0 0 0 0 0 0 0 0 127 0"/>
<feOffset dy="4"/>
<feGaussianBlur stdDeviation="2"/>
<feColorMatrix type="matrix" values="0 0 0 0 0.478431 0 0 0 0 0.333333 0 0 0 0 0.603922 0 0 0 0.35 0"/>
<feBlend mode="normal" in2="BackgroundImageFix" result="effect1_dropShadow"/>
<feBlend mode="normal" in="SourceGraphic" in2="effect1_dropShadow" result="shape"/>
</filter>
</defs>
</svg>
