<svg width="1926" height="1481" viewBox="0 0 1926 1481" fill="none" xmlns="http://www.w3.org/2000/svg">
<g filter="url(#filter0_d)">
<path fill-rule="evenodd" clip-rule="evenodd" d="M22.3917 621.573H530.559V215.996H22.3917V621.573Z" fill="#EFE6EC"/>
<path fill-rule="evenodd" clip-rule="evenodd" d="M276.476 621.442C275.657 621.442 274.994 620.778 274.994 619.96V214.384C274.994 213.566 275.657 212.902 276.476 212.902C277.295 212.902 277.958 213.566 277.958 214.384V619.96C277.958 620.778 277.295 621.442 276.476 621.442Z" fill="#2A1840"/>
<path fill-rule="evenodd" clip-rule="evenodd" d="M530.56 420.267H22.392C21.574 420.267 20.91 419.603 20.91 418.785C20.91 417.966 21.574 417.302 22.392 417.302H530.56C531.379 417.302 532.042 417.966 532.042 418.785C532.042 419.603 531.379 420.267 530.56 420.267Z" fill="#2A1840"/>
<path fill-rule="evenodd" clip-rule="evenodd" d="M46.8782 395.128H251.597V238.414H46.8782V395.128Z" fill="#CEC6F7"/>
<path fill-rule="evenodd" clip-rule="evenodd" d="M46.8782 599.155H251.597V442.441H46.8782V599.155Z" fill="#CEC6F7"/>
<path fill-rule="evenodd" clip-rule="evenodd" d="M300.121 395.128H504.84V238.414H300.121V395.128Z" fill="#CEC6F7"/>
<path fill-rule="evenodd" clip-rule="evenodd" d="M300.121 599.155H504.84V442.441H300.121V599.155Z" fill="#CEC6F7"/>
<path fill-rule="evenodd" clip-rule="evenodd" d="M4 650.466H549.09V622.534H4V650.466Z" fill="#F0D4DA"/>
<path fill-rule="evenodd" clip-rule="evenodd" d="M530.56 623.055H22.392C21.574 623.055 20.91 622.391 20.91 621.573C20.91 620.754 21.574 620.09 22.392 620.09H530.56C531.379 620.09 532.042 620.754 532.042 621.573C532.042 622.391 531.379 623.055 530.56 623.055Z" fill="#2A1840"/>
<mask id="mask0" mask-type="alpha" maskUnits="userSpaceOnUse" x="22" y="215" width="509" height="357">
<path fill-rule="evenodd" clip-rule="evenodd" d="M22.3917 215.996H530.559V571.237H22.3917V215.996Z" fill="white"/>
</mask>
<g mask="url(#mask0)">
<path opacity="0.35" fill-rule="evenodd" clip-rule="evenodd" d="M-86.0071 503.967L479.545 198.843L570.001 222.179L-65.8412 571.237L-86.0071 503.967Z" fill="white"/>
</g>
<mask id="mask1" mask-type="alpha" maskUnits="userSpaceOnUse" x="22" y="230" width="509" height="392">
<path fill-rule="evenodd" clip-rule="evenodd" d="M22.3917 230.849H530.559V621.573H22.3917V230.849Z" fill="white"/>
</mask>
<g mask="url(#mask1)">
<path opacity="0.35" fill-rule="evenodd" clip-rule="evenodd" d="M-42.117 580.155L591.323 230.849L603.799 355.402L47.9434 677.857C47.9434 677.857 -39.7442 714.756 -42.117 580.155Z" fill="white"/>
</g>
<path fill-rule="evenodd" clip-rule="evenodd" d="M1459.38 451.116L1468.79 543.3H1487.32L1496.73 451.116H1459.38Z" fill="#C8A4B5"/>
<path fill-rule="evenodd" clip-rule="evenodd" d="M1824.2 451.116L1833.61 543.3H1852.14L1861.55 451.116H1824.2Z" fill="#C8A4B5"/>
<path fill-rule="evenodd" clip-rule="evenodd" d="M1468.64 440.609H1485.27V377.438H1468.64V440.609Z" fill="#603152"/>
<path fill-rule="evenodd" clip-rule="evenodd" d="M1452.02 440.609H1468.64V377.439L1452.02 440.609Z" fill="#603152"/>
<path fill-rule="evenodd" clip-rule="evenodd" d="M1670.69 440.609H1687.31V377.438H1670.69V440.609Z" fill="#603152"/>
<path fill-rule="evenodd" clip-rule="evenodd" d="M1703.94 440.609H1687.31V377.439L1703.94 440.609Z" fill="#603152"/>
<path fill-rule="evenodd" clip-rule="evenodd" d="M1538.7 434.434H1593.14V214.522H1538.7V434.434Z" fill="#CEC6F7"/>
<path fill-rule="evenodd" clip-rule="evenodd" d="M1565.92 394.611C1565.19 394.611 1564.6 394.021 1564.6 393.294V267.281C1564.6 266.554 1565.19 265.963 1565.92 265.963C1566.65 265.963 1567.24 266.554 1567.24 267.281V393.294C1567.24 394.021 1566.65 394.611 1565.92 394.611Z" fill="#2A1840"/>
<mask id="mask2" mask-type="alpha" maskUnits="userSpaceOnUse" x="1399" y="214" width="523" height="330">
<path fill-rule="evenodd" clip-rule="evenodd" d="M1399.67 543.3H1921.25V214.521H1399.67V543.3Z" fill="white"/>
</mask>
<g mask="url(#mask2)">
<path fill-rule="evenodd" clip-rule="evenodd" d="M1593.28 434.433H1633.08V256.076H1593.28V434.433Z" fill="#50478B"/>
<path fill-rule="evenodd" clip-rule="evenodd" d="M1613.18 401.813C1612.45 401.813 1611.86 401.223 1611.86 400.496V299.241C1611.86 298.513 1612.45 297.924 1613.18 297.924C1613.91 297.924 1614.5 298.513 1614.5 299.241V400.496C1614.5 401.223 1613.91 401.813 1613.18 401.813Z" fill="#2A1840"/>
<path fill-rule="evenodd" clip-rule="evenodd" d="M1623.25 279.038C1623.25 284.601 1618.74 289.11 1613.18 289.11C1607.62 289.11 1603.11 284.601 1603.11 279.038C1603.11 273.475 1607.62 268.966 1613.18 268.966C1618.74 268.966 1623.25 273.475 1623.25 279.038Z" fill="white"/>
<path fill-rule="evenodd" clip-rule="evenodd" d="M1618.21 415.946C1618.21 418.727 1615.96 420.981 1613.18 420.981C1610.4 420.981 1608.14 418.727 1608.14 415.946C1608.14 413.164 1610.4 410.909 1613.18 410.909C1615.96 410.909 1618.21 413.164 1618.21 415.946Z" fill="white"/>
<path fill-rule="evenodd" clip-rule="evenodd" d="M1484.6 434.433H1539.03V256.076H1484.6V434.433Z" fill="#E3C3BB"/>
<path fill-rule="evenodd" clip-rule="evenodd" d="M1511.82 401.098C1511.09 401.098 1510.5 400.508 1510.5 399.781V302.16C1510.5 301.433 1511.09 300.843 1511.82 300.843C1512.55 300.843 1513.14 301.433 1513.14 302.16V399.781C1513.14 400.508 1512.55 401.098 1511.82 401.098Z" fill="#2A1840"/>
<path fill-rule="evenodd" clip-rule="evenodd" d="M1521.89 279.038C1521.89 284.601 1517.38 289.11 1511.82 289.11C1506.26 289.11 1501.75 284.601 1501.75 279.038C1501.75 273.475 1506.26 268.966 1511.82 268.966C1517.38 268.966 1521.89 273.475 1521.89 279.038Z" fill="white"/>
<path fill-rule="evenodd" clip-rule="evenodd" d="M1523.35 423.053H1500.29C1497.99 423.053 1496.13 421.194 1496.13 418.901C1496.13 416.609 1497.99 414.75 1500.29 414.75H1523.35C1525.64 414.75 1527.5 416.609 1527.5 418.901C1527.5 421.194 1525.64 423.053 1523.35 423.053Z" fill="white"/>
<path fill-rule="evenodd" clip-rule="evenodd" d="M1632.98 434.433H1670.69V298.702H1632.98V434.433Z" fill="#C1989A"/>
<path fill-rule="evenodd" clip-rule="evenodd" d="M1651.83 395.983C1651.1 395.983 1650.51 395.393 1650.51 394.667V328.68C1650.51 327.952 1651.1 327.362 1651.83 327.362C1652.56 327.362 1653.15 327.952 1653.15 328.68V394.667C1653.15 395.393 1652.56 395.983 1651.83 395.983Z" fill="#2A1840"/>
<path fill-rule="evenodd" clip-rule="evenodd" d="M1658.6 414.216C1658.6 417.952 1655.57 420.981 1651.83 420.981C1648.1 420.981 1645.07 417.952 1645.07 414.216C1645.07 410.479 1648.1 407.45 1651.83 407.45C1655.57 407.45 1658.6 410.479 1658.6 414.216Z" fill="white"/>
<path fill-rule="evenodd" clip-rule="evenodd" d="M1659.64 316.345H1644.02C1641.73 316.345 1639.87 314.486 1639.87 312.193C1639.87 309.901 1641.73 308.041 1644.02 308.041H1659.64C1661.94 308.041 1663.8 309.901 1663.8 312.193C1663.8 314.486 1661.94 316.345 1659.64 316.345Z" fill="white"/>
<path fill-rule="evenodd" clip-rule="evenodd" d="M1554.16 251.882H1577.68V228.357H1554.16V251.882Z" fill="white"/>
<path fill-rule="evenodd" clip-rule="evenodd" d="M1554.16 419.213H1577.68V407.45H1554.16V419.213Z" fill="white"/>
<path fill-rule="evenodd" clip-rule="evenodd" d="M1866.15 377.439C1866.15 409.955 1839.79 436.315 1807.28 436.315C1774.76 436.315 1748.4 409.955 1748.4 377.439C1748.4 344.923 1774.76 318.562 1807.28 318.562C1839.79 318.562 1866.15 344.923 1866.15 377.439Z" fill="#D583AD"/>
<path fill-rule="evenodd" clip-rule="evenodd" d="M1819.42 329.423H1795.13L1778.05 272.133C1777.38 269.858 1779.08 267.571 1781.46 267.571H1833.1C1835.47 267.571 1837.18 269.858 1836.5 272.133L1819.42 329.423Z" fill="#D583AD"/>
<path fill-rule="evenodd" clip-rule="evenodd" d="M1832.87 285.634H1781.69C1780.96 285.634 1780.37 285.044 1780.37 284.317C1780.37 283.589 1780.96 283 1781.69 283H1832.87C1833.59 283 1834.18 283.589 1834.18 284.317C1834.18 285.044 1833.59 285.634 1832.87 285.634Z" fill="#2A1840"/>
</g>
<mask id="mask3" mask-type="alpha" maskUnits="userSpaceOnUse" x="1748" y="267" width="119" height="170">
<path fill-rule="evenodd" clip-rule="evenodd" d="M1781.46 267.571C1779.08 267.571 1777.38 269.858 1778.06 272.134L1792.45 320.447C1767.11 327.018 1748.4 350.042 1748.4 377.438C1748.4 409.956 1774.76 436.315 1807.28 436.315C1839.79 436.315 1866.15 409.956 1866.15 377.438C1866.15 350.042 1847.44 327.018 1822.1 320.447L1836.5 272.134C1837.18 269.858 1835.47 267.571 1833.1 267.571H1781.46Z" fill="white"/>
</mask>
<g mask="url(#mask3)">
<path fill-rule="evenodd" clip-rule="evenodd" d="M1842.9 323.598L1781.7 383.636L1796.18 383.348L1783.5 402.082L1798.78 400.689L1789.56 421.176L1824.76 402.536L1791.16 428.119L1827.74 415.164L1816.67 439.014L1891.76 392.922L1842.9 323.598Z" fill="#50478B"/>
</g>
<mask id="mask4" mask-type="alpha" maskUnits="userSpaceOnUse" x="1399" y="432" width="523" height="38">
<path fill-rule="evenodd" clip-rule="evenodd" d="M1399.67 432.441H1921.25V469.792H1399.67V432.441Z" fill="white"/>
</mask>
<g mask="url(#mask4)">
<path fill-rule="evenodd" clip-rule="evenodd" d="M1399.88 469.792H1921.05V432.441H1399.88V469.792Z" fill="#E6BECF"/>
<path fill-rule="evenodd" clip-rule="evenodd" d="M1919.93 452.434H1400.99C1400.26 452.434 1399.67 451.843 1399.67 451.117C1399.67 450.389 1400.26 449.8 1400.99 449.8H1919.93C1920.66 449.8 1921.25 450.389 1921.25 451.117C1921.25 451.843 1920.66 452.434 1919.93 452.434Z" fill="#E6BECF"/>
</g>
<mask id="mask5" mask-type="alpha" maskUnits="userSpaceOnUse" x="878" y="0" width="4" height="272">
<path fill-rule="evenodd" clip-rule="evenodd" d="M878.219 0.0834961H881.183V271.381H878.219V0.0834961Z" fill="white"/>
</mask>
<g mask="url(#mask5)">
<path fill-rule="evenodd" clip-rule="evenodd" d="M879.701 271.381C878.882 271.381 878.219 270.718 878.219 269.899V1.56549C878.219 0.747488 878.882 0.0834961 879.701 0.0834961C880.52 0.0834961 881.183 0.747488 881.183 1.56549V269.899C881.183 270.718 880.52 271.381 879.701 271.381Z" fill="#2A1840"/>
</g>
<path fill-rule="evenodd" clip-rule="evenodd" d="M918.802 391.429C918.802 413.025 901.296 430.531 879.702 430.531C858.106 430.531 840.599 413.025 840.599 391.429C840.599 369.834 858.106 352.327 879.702 352.327C901.296 352.327 918.802 369.834 918.802 391.429Z" fill="#E3C3BB"/>
<path fill-rule="evenodd" clip-rule="evenodd" d="M758.171 391.429C758.171 324.31 812.582 269.899 879.701 269.899C946.82 269.899 1001.23 324.31 1001.23 391.429H758.171Z" fill="#C45F87"/>
<path fill-rule="evenodd" clip-rule="evenodd" d="M885.105 420.726C884.44 420.726 883.836 420.275 883.667 419.601C883.47 418.807 883.953 418.003 884.747 417.805C901.917 413.524 902.152 399.754 902.153 399.17C902.156 398.353 902.819 397.69 903.636 397.69C904.452 397.69 905.115 398.348 905.118 399.164C905.118 399.33 904.947 415.824 885.464 420.681C885.344 420.711 885.224 420.726 885.105 420.726Z" fill="white"/>
<mask id="mask6" mask-type="alpha" maskUnits="userSpaceOnUse" x="758" y="269" width="244" height="123">
<path fill-rule="evenodd" clip-rule="evenodd" d="M758.171 391.429H1001.23C1001.23 324.311 946.82 269.899 879.702 269.899C812.581 269.899 758.171 324.311 758.171 391.429Z" fill="white"/>
</mask>
<g mask="url(#mask6)">
<path fill-rule="evenodd" clip-rule="evenodd" d="M724.24 402.006C723.941 402.006 723.64 401.916 723.378 401.73C722.713 401.253 722.56 400.327 723.036 399.662C738.266 378.377 755.255 356.146 776.26 337.739C798.96 317.85 823.982 305.045 848.622 300.708C858.079 299.045 864.561 300.383 868.432 304.805C872.725 309.714 872.654 317.747 868.24 326.294C866.55 329.564 864.54 332.688 862.594 335.71C860.015 339.716 857.348 343.859 855.508 348.263C852.774 354.799 851.596 364.612 857.266 370.753C860.585 374.346 866.097 376.307 872.454 376.158C885.73 375.824 897.079 367.833 909.484 358.211L1028.64 265.798C1029.29 265.297 1030.22 265.414 1030.72 266.061C1031.22 266.708 1031.1 267.639 1030.46 268.141L911.301 360.554C901.407 368.227 887.858 378.735 872.528 379.121C865.348 379.305 858.986 376.984 855.089 372.765C848.464 365.592 849.701 354.466 852.773 347.118C854.715 342.475 857.454 338.22 860.101 334.106C862.01 331.143 863.982 328.078 865.607 324.933C867.044 322.153 871.331 312.622 866.2 306.757C863.071 303.181 857.487 302.157 849.135 303.627C825.03 307.87 800.505 320.437 778.214 339.968C757.435 358.176 740.573 380.248 725.446 401.386C725.157 401.79 724.702 402.006 724.24 402.006Z" fill="#CF8CD2"/>
</g>
<mask id="mask7" mask-type="alpha" maskUnits="userSpaceOnUse" x="758" y="269" width="244" height="123">
<path fill-rule="evenodd" clip-rule="evenodd" d="M758.171 391.429H1001.23C1001.23 324.311 946.82 269.899 879.702 269.899C812.581 269.899 758.171 324.311 758.171 391.429Z" fill="white"/>
</mask>
<g mask="url(#mask7)">
<path fill-rule="evenodd" clip-rule="evenodd" d="M904.225 331.37C898.57 331.37 892.949 329.228 889.818 324.367C886.408 319.075 886.99 312.279 887.877 306.951C891.642 284.351 902.516 262.863 918.494 246.444C919.063 245.857 920.001 245.844 920.589 246.415C921.176 246.986 921.189 247.925 920.617 248.51C905.057 264.501 894.468 285.428 890.801 307.438C890.001 312.241 889.45 318.324 892.309 322.761C896.302 328.959 905.44 329.69 911.966 326.815C919.178 323.639 924.649 316.854 929.043 311.401C954.664 279.62 979.841 246.773 1003.88 213.772C1004.36 213.11 1005.28 212.965 1005.95 213.446C1006.61 213.928 1006.75 214.855 1006.27 215.517C982.209 248.557 957.003 281.443 931.35 313.262C926.754 318.965 921.034 326.061 913.16 329.528C910.444 330.725 907.33 331.37 904.225 331.37Z" fill="#CF8CD2"/>
</g>
<mask id="mask8" mask-type="alpha" maskUnits="userSpaceOnUse" x="758" y="269" width="244" height="123">
<path fill-rule="evenodd" clip-rule="evenodd" d="M758.171 391.429H1001.23C1001.23 324.311 946.82 269.899 879.702 269.899C812.581 269.899 758.171 324.311 758.171 391.429Z" fill="white"/>
</mask>
<g mask="url(#mask8)">
<path fill-rule="evenodd" clip-rule="evenodd" d="M990.729 405.85C985.801 405.85 981.061 405.109 976.677 403.607C961.822 398.517 951.531 383.601 953.248 369.648C954.283 361.241 959.363 352.814 967.942 345.277C985.655 329.715 1010.96 323.216 1033.98 328.314C1034.78 328.491 1035.28 329.282 1035.11 330.082C1034.93 330.882 1034.14 331.386 1033.34 331.208C1011.23 326.309 986.914 332.554 969.898 347.504C964.303 352.42 957.383 360.315 956.19 370.01C954.638 382.624 964.058 396.15 977.637 400.803C989.371 404.824 1003.93 402.978 1017.58 395.738C1030.04 389.126 1040.47 379.202 1050.56 369.605C1051.15 369.042 1052.09 369.064 1052.65 369.657C1053.22 370.25 1053.2 371.189 1052.6 371.753C1042.37 381.488 1031.79 391.554 1018.97 398.357C1009.63 403.307 999.861 405.85 990.729 405.85Z" fill="#CF8CD2"/>
</g>
<mask id="mask9" mask-type="alpha" maskUnits="userSpaceOnUse" x="758" y="269" width="244" height="123">
<path fill-rule="evenodd" clip-rule="evenodd" d="M758.171 391.429H1001.23C1001.23 324.311 946.82 269.899 879.702 269.899C812.581 269.899 758.171 324.311 758.171 391.429Z" fill="white"/>
</mask>
<g mask="url(#mask9)">
<path fill-rule="evenodd" clip-rule="evenodd" d="M815.219 456.15C815.102 456.15 814.983 456.136 814.864 456.107C814.069 455.911 813.584 455.108 813.779 454.313C819.694 430.287 825.81 405.442 823.895 380.359C823.074 369.59 820.077 362.64 814.734 359.11C807.054 354.038 796.545 357.357 789.081 361.036C764.52 373.14 744.911 395.947 736.625 422.044C736.377 422.824 735.545 423.256 734.764 423.008C733.984 422.76 733.551 421.928 733.799 421.147C742.325 394.296 762.501 370.831 787.77 358.377C795.93 354.356 807.513 350.788 816.367 356.637C822.525 360.704 825.955 368.391 826.851 380.134C828.803 405.689 822.627 430.769 816.658 455.022C816.491 455.698 815.886 456.15 815.219 456.15Z" fill="#CF8CD2"/>
</g>
<mask id="mask10" mask-type="alpha" maskUnits="userSpaceOnUse" x="758" y="269" width="244" height="123">
<path fill-rule="evenodd" clip-rule="evenodd" d="M758.171 391.429H1001.23C1001.23 324.311 946.82 269.899 879.702 269.899C812.581 269.899 758.171 324.311 758.171 391.429Z" fill="white"/>
</mask>
<g mask="url(#mask10)">
<path fill-rule="evenodd" clip-rule="evenodd" d="M813.578 296.692C806.894 296.692 798.953 293.542 795.823 286.367C795.497 285.616 795.84 284.742 796.589 284.416C797.342 284.087 798.214 284.431 798.541 285.182C800.81 290.386 807.163 293.883 814.04 293.722C820.936 293.545 827.532 290.166 832.508 287.24C859.767 271.224 880.287 244.702 898.391 221.301C898.894 220.654 899.825 220.535 900.471 221.036C901.118 221.537 901.237 222.467 900.737 223.115C882.468 246.727 861.762 273.489 834.01 289.797C828.727 292.902 821.69 296.491 814.116 296.685C813.938 296.689 813.758 296.692 813.578 296.692Z" fill="#CF8CD2"/>
</g>
<mask id="mask11" mask-type="alpha" maskUnits="userSpaceOnUse" x="590" y="1084" width="299" height="243">
<path fill-rule="evenodd" clip-rule="evenodd" d="M590.896 1084.47H888.204V1326.54H590.896V1084.47Z" fill="white"/>
</mask>
<g mask="url(#mask11)">
<path fill-rule="evenodd" clip-rule="evenodd" d="M599.952 1151.35L739.55 1326.54L879.148 1151.35C900.654 1124.36 881.436 1084.47 846.926 1084.47H632.175C597.664 1084.47 578.445 1124.36 599.952 1151.35Z" fill="#E3C3BB"/>
</g>
<mask id="mask12" mask-type="alpha" maskUnits="userSpaceOnUse" x="590" y="1278" width="299" height="195">
<path fill-rule="evenodd" clip-rule="evenodd" d="M590.896 1278.44H888.204V1472.42H590.896V1278.44Z" fill="white"/>
</mask>
<g mask="url(#mask12)">
<path fill-rule="evenodd" clip-rule="evenodd" d="M879.148 1405.54L777.876 1278.44H701.224L599.951 1405.54C578.446 1432.53 597.663 1472.42 632.174 1472.42H846.925C881.436 1472.42 900.655 1432.53 879.148 1405.54Z" fill="#6D61B3"/>
</g>
<path fill-rule="evenodd" clip-rule="evenodd" d="M849.445 1128.7C839.743 1128.7 834.862 1125.38 830.141 1122.18C825.689 1119.15 821.484 1116.3 812.925 1116.3C804.367 1116.3 800.163 1119.15 795.712 1122.18C790.992 1125.38 786.11 1128.7 776.41 1128.7C766.709 1128.7 761.828 1125.38 757.107 1122.18C752.655 1119.15 748.451 1116.3 739.894 1116.3C731.337 1116.3 727.132 1119.15 722.681 1122.18C717.96 1125.38 713.079 1128.7 703.379 1128.7C693.678 1128.7 688.798 1125.38 684.077 1122.18C679.625 1119.15 675.421 1116.3 666.865 1116.3C658.309 1116.3 654.105 1119.15 649.655 1122.18C644.935 1125.38 640.054 1128.7 630.355 1128.7C620.655 1128.7 615.773 1125.38 611.054 1122.18C606.602 1119.15 602.398 1116.3 593.841 1116.3C592.814 1116.3 591.981 1115.47 591.981 1114.44C591.981 1113.41 592.814 1112.58 593.841 1112.58C603.541 1112.58 608.423 1115.89 613.142 1119.1C617.594 1122.12 621.798 1124.98 630.355 1124.98C638.911 1124.98 643.114 1122.12 647.565 1119.1C652.285 1115.89 657.165 1112.58 666.865 1112.58C676.565 1112.58 681.446 1115.89 686.166 1119.1C690.617 1122.12 694.822 1124.98 703.379 1124.98C711.936 1124.98 716.14 1122.12 720.591 1119.1C725.312 1115.89 730.193 1112.58 739.894 1112.58C749.594 1112.58 754.476 1115.89 759.196 1119.1C763.647 1122.12 767.853 1124.98 776.41 1124.98C784.967 1124.98 789.171 1122.12 793.623 1119.1C798.343 1115.89 803.224 1112.58 812.925 1112.58C822.626 1112.58 827.509 1115.89 832.229 1119.1C836.682 1122.12 840.887 1124.98 849.445 1124.98C858.003 1124.98 862.209 1122.12 866.661 1119.1C871.382 1115.89 876.264 1112.58 885.966 1112.58C886.993 1112.58 887.825 1113.41 887.825 1114.44C887.825 1115.47 886.993 1116.3 885.966 1116.3C877.407 1116.3 873.201 1119.15 868.75 1122.18C864.028 1125.38 859.147 1128.7 849.445 1128.7Z" fill="#2A1840"/>
<path fill-rule="evenodd" clip-rule="evenodd" d="M775.965 1279.73H701.223C700.513 1279.73 699.938 1279.15 699.938 1278.44C699.938 1277.73 700.513 1277.16 701.223 1277.16H775.965C776.675 1277.16 777.25 1277.73 777.25 1278.44C777.25 1279.15 776.675 1279.73 775.965 1279.73Z" fill="#2A1840"/>
<path fill-rule="evenodd" clip-rule="evenodd" d="M849.445 1444.31C839.743 1444.31 834.862 1440.99 830.141 1437.79C825.689 1434.77 821.484 1431.91 812.925 1431.91C804.367 1431.91 800.163 1434.77 795.712 1437.79C790.992 1440.99 786.11 1444.31 776.41 1444.31C766.709 1444.31 761.828 1440.99 757.107 1437.79C752.655 1434.77 748.451 1431.91 739.894 1431.91C731.337 1431.91 727.132 1434.77 722.681 1437.79C717.96 1440.99 713.079 1444.31 703.379 1444.31C693.678 1444.31 688.798 1440.99 684.077 1437.79C679.625 1434.77 675.421 1431.91 666.865 1431.91C658.309 1431.91 654.105 1434.77 649.655 1437.79C644.935 1440.99 640.054 1444.31 630.355 1444.31C620.655 1444.31 615.773 1440.99 611.054 1437.79C606.602 1434.77 602.398 1431.91 593.841 1431.91C592.814 1431.91 591.981 1431.08 591.981 1430.05C591.981 1429.02 592.814 1428.19 593.841 1428.19C603.541 1428.19 608.423 1431.51 613.142 1434.71C617.594 1437.73 621.798 1440.59 630.355 1440.59C638.911 1440.59 643.114 1437.73 647.565 1434.71C652.285 1431.51 657.165 1428.19 666.865 1428.19C676.565 1428.19 681.446 1431.51 686.166 1434.71C690.617 1437.73 694.822 1440.59 703.379 1440.59C711.936 1440.59 716.14 1437.73 720.591 1434.71C725.312 1431.51 730.193 1428.19 739.894 1428.19C749.594 1428.19 754.476 1431.51 759.196 1434.71C763.647 1437.73 767.853 1440.59 776.41 1440.59C784.967 1440.59 789.171 1437.73 793.623 1434.71C798.343 1431.51 803.224 1428.19 812.925 1428.19C822.626 1428.19 827.509 1431.51 832.229 1434.71C836.682 1437.73 840.887 1440.59 849.445 1440.59C858.003 1440.59 862.209 1437.73 866.661 1434.71C871.382 1431.51 876.264 1428.19 885.966 1428.19C886.993 1428.19 887.825 1429.02 887.825 1430.05C887.825 1431.08 886.993 1431.91 885.966 1431.91C877.407 1431.91 873.201 1434.77 868.75 1437.79C864.028 1440.99 859.147 1444.31 849.445 1444.31Z" fill="#2A1840"/>
<path fill-rule="evenodd" clip-rule="evenodd" d="M1544.32 1234.58L1138.59 953.846L1053.67 1056.78L1406.4 1401.76L1544.32 1234.58Z" fill="#CEC6F7"/>
<path opacity="0.059" fill-rule="evenodd" clip-rule="evenodd" d="M1544.32 1234.58L1138.59 953.846L1053.67 1056.78L1406.4 1401.76L1544.32 1234.58Z" fill="#3B3046"/>
<path fill-rule="evenodd" clip-rule="evenodd" d="M1404.81 1400.42C1412.65 1406.97 1431.05 1402.69 1451.95 1389.81C1469.36 1379.07 1488.5 1362.35 1504.73 1340.95C1515 1327.4 1524.02 1313.87 1531.28 1301.23C1549.26 1269.94 1556.54 1243.98 1545.91 1235.92C1534.29 1227.13 1503.04 1243.95 1472.93 1274.03C1464.34 1282.61 1455.84 1292.28 1447.91 1302.74C1434.2 1320.84 1423.08 1338.13 1415.2 1353.07C1402.56 1377.01 1398.24 1394.92 1404.81 1400.42Z" fill="#2A1840"/>
<mask id="mask13" mask-type="alpha" maskUnits="userSpaceOnUse" x="1415" y="1274" width="275" height="192">
<path fill-rule="evenodd" clip-rule="evenodd" d="M1415.2 1274.03H1689.63V1465.68H1415.2V1274.03Z" fill="white"/>
</mask>
<g mask="url(#mask13)">
<path fill-rule="evenodd" clip-rule="evenodd" d="M1415.2 1353.07L1451.95 1389.81L1527.81 1465.68L1689.63 1303.85C1689.63 1303.85 1664.38 1285.63 1588.89 1303.04C1570.21 1307.36 1551.54 1306.13 1534.08 1301.95C1533.16 1301.73 1532.23 1301.49 1531.28 1301.23C1512.5 1296.05 1488.37 1283.09 1472.93 1274.03C1464.34 1282.61 1455.84 1292.28 1447.91 1302.74C1434.2 1320.84 1423.08 1338.13 1415.2 1353.07Z" fill="#EFE6EC"/>
</g>
<path fill-rule="evenodd" clip-rule="evenodd" d="M1446.32 1302.87C1446.03 1302.87 1445.73 1302.77 1445.48 1302.56L1209.82 1104.6C1209.26 1104.14 1209.19 1103.31 1209.66 1102.75C1210.12 1102.19 1210.95 1102.12 1211.51 1102.59L1447.17 1300.55C1447.73 1301.01 1447.8 1301.84 1447.33 1302.4C1447.07 1302.71 1446.7 1302.87 1446.32 1302.87Z" fill="#2A1840"/>
<path fill-rule="evenodd" clip-rule="evenodd" d="M1371.14 1364.22C1371.04 1364.22 1370.95 1364.21 1370.85 1364.19C1370.14 1364.03 1369.69 1363.33 1369.85 1362.62C1382.36 1305.49 1418.55 1265.96 1446.7 1242.86C1477.18 1217.86 1505.11 1206.17 1505.39 1206.06C1506.06 1205.78 1506.83 1206.1 1507.11 1206.77C1507.39 1207.44 1507.07 1208.21 1506.4 1208.49C1506.12 1208.61 1478.49 1220.17 1448.31 1244.95C1420.5 1267.78 1384.76 1306.82 1372.42 1363.18C1372.29 1363.8 1371.74 1364.22 1371.14 1364.22Z" fill="#2A1840"/>
<path fill-rule="evenodd" clip-rule="evenodd" d="M1516.75 1455.21C1516.42 1455.21 1516.08 1455.08 1515.83 1454.83C1515.31 1454.33 1515.3 1453.49 1515.81 1452.97L1668.34 1297.19C1668.84 1296.67 1669.68 1296.66 1670.2 1297.17C1670.72 1297.68 1670.73 1298.52 1670.22 1299.04L1517.69 1454.81C1517.43 1455.08 1517.09 1455.21 1516.75 1455.21Z" fill="#2A1840"/>
<path fill-rule="evenodd" clip-rule="evenodd" d="M1491.83 1430.81C1491.48 1430.81 1491.13 1430.67 1490.87 1430.4C1490.37 1429.87 1490.39 1429.04 1490.92 1428.54C1491.22 1428.25 1521.1 1400.34 1545.65 1424.38C1546.17 1424.89 1546.18 1425.72 1545.67 1426.24C1545.16 1426.76 1544.33 1426.77 1543.81 1426.26C1534.3 1416.95 1522.88 1414.79 1509.85 1419.82C1499.96 1423.64 1492.8 1430.38 1492.73 1430.44C1492.48 1430.69 1492.15 1430.81 1491.83 1430.81Z" fill="#2A1840"/>
<path fill-rule="evenodd" clip-rule="evenodd" d="M1474.09 1340.93C1480.33 1347.04 1480.44 1357.06 1474.32 1363.3C1468.21 1369.55 1458.19 1369.65 1451.95 1363.54C1445.71 1357.43 1445.6 1347.41 1451.71 1341.16C1457.83 1334.92 1467.84 1334.81 1474.09 1340.93Z" fill="white"/>
<path fill-rule="evenodd" clip-rule="evenodd" d="M1520.34 1322.76C1520.16 1322.76 1519.96 1322.72 1519.78 1322.63C1519.12 1322.32 1518.84 1321.54 1519.15 1320.88L1528.96 1300.2C1529.27 1299.54 1530.06 1299.26 1530.72 1299.57C1531.37 1299.88 1531.65 1300.67 1531.34 1301.32L1521.54 1322.01C1521.31 1322.48 1520.84 1322.76 1520.34 1322.76Z" fill="#2A1840"/>
<path fill-rule="evenodd" clip-rule="evenodd" d="M1536.81 1329.14C1536.63 1329.14 1536.44 1329.11 1536.27 1329.03C1535.61 1328.73 1535.31 1327.95 1535.61 1327.28L1545.86 1304.69C1546.16 1304.02 1546.94 1303.73 1547.6 1304.03C1548.26 1304.33 1548.55 1305.11 1548.25 1305.77L1538.01 1328.37C1537.79 1328.86 1537.31 1329.14 1536.81 1329.14Z" fill="#2A1840"/>
<path fill-rule="evenodd" clip-rule="evenodd" d="M1557.42 1330.11C1557.25 1330.11 1557.08 1330.08 1556.91 1330.01C1556.24 1329.73 1555.92 1328.96 1556.21 1328.29L1565.83 1305.21C1566.11 1304.54 1566.88 1304.22 1567.55 1304.5C1568.22 1304.78 1568.54 1305.55 1568.26 1306.22L1558.64 1329.3C1558.43 1329.81 1557.94 1330.11 1557.42 1330.11Z" fill="#2A1840"/>
<path fill-rule="evenodd" clip-rule="evenodd" d="M1572.19 1211.14C1571.22 1211.14 1570.25 1211.34 1569.25 1211.75C1561.12 1215.06 1551.96 1231.39 1542.76 1258.98C1537.75 1273.98 1534 1288.59 1532.24 1295.85C1537.13 1290.62 1546.66 1280.14 1555.94 1268.28C1573.23 1246.16 1581.82 1229.38 1580.75 1219.74C1580.4 1216.53 1579.01 1214.17 1576.49 1212.53C1575.07 1211.6 1573.64 1211.14 1572.19 1211.14ZM1529.84 1301.61C1529.62 1301.61 1529.41 1301.56 1529.21 1301.45C1528.69 1301.17 1528.42 1300.58 1528.55 1300C1528.6 1299.8 1533.18 1279.37 1540.25 1258.17C1549.84 1229.41 1559.26 1212.97 1568.25 1209.31C1571.57 1207.96 1574.83 1208.3 1577.93 1210.32C1581.1 1212.39 1582.93 1215.46 1583.37 1219.45C1586.1 1244.22 1533.04 1298.9 1530.78 1301.21C1530.53 1301.47 1530.18 1301.61 1529.84 1301.61Z" fill="#2A1840"/>
<path fill-rule="evenodd" clip-rule="evenodd" d="M1591.06 1250.41C1582.89 1250.41 1570.14 1258.83 1554.1 1274.85C1545.19 1283.75 1537.47 1292.81 1533.67 1297.43C1547.37 1293.7 1593.01 1280.19 1599.75 1263.94C1601.02 1260.88 1600.76 1257.95 1598.98 1255C1597.23 1252.11 1594.87 1250.62 1591.76 1250.43C1591.53 1250.41 1591.3 1250.41 1591.06 1250.41ZM1530.1 1301.04C1529.66 1301.04 1529.24 1300.82 1529 1300.44C1528.69 1299.96 1528.72 1299.35 1529.07 1298.91C1530.76 1296.77 1570.63 1246.5 1591.92 1247.8C1595.9 1248.04 1599.03 1250.01 1601.23 1253.64C1603.45 1257.3 1603.77 1261.11 1602.18 1264.95C1593.77 1285.24 1533 1300.37 1530.42 1301C1530.31 1301.03 1530.21 1301.04 1530.1 1301.04Z" fill="#2A1840"/>
<path fill-rule="evenodd" clip-rule="evenodd" d="M648.073 988.483C648.073 1044.45 693.872 1089.69 749.836 1088.8C781.949 1088.29 814.063 1088.13 846.176 1088.14C905.933 1088.24 965.69 1089.14 1025.45 1090.66C1029.63 1090.77 1029.61 1090.77 1025.39 1090.67C1030.94 1116.51 1034.36 1132.48 1035.67 1138.58C1038.98 1154.78 1038.44 1155.15 1041.62 1171.38C1048.12 1203.81 1054.3 1236.32 1060.1 1268.93L1064.37 1293.41L1068.46 1317.94C1071.16 1334.29 1073.64 1350.71 1075.92 1367.18L1285.59 1312.35C1279.52 1296.87 1273.65 1281.34 1267.99 1265.76L1259.55 1242.37L1251.29 1218.93C1240.38 1187.66 1233.8 1172.09 1223.59 1140.63C1218.42 1124.92 1213.48 1109.15 1208.44 1093.4C1203.54 1077.62 1198.53 1061.87 1193.73 1046.06L1190.12 1034.2L1188.32 1028.28L1187.38 1025.18L1186.19 1021.47C1185.37 1019 1184.58 1016.54 1183.57 1014.13C1182.59 1011.71 1181.58 1009.31 1180.53 1006.93C1179.5 1004.54 1178.25 1002.24 1177.07 999.918C1174.72 995.261 1171.96 990.837 1169.12 986.477C1163.27 977.881 1156.63 969.817 1149.09 962.743C1134.16 948.402 1116.02 937.664 1096.49 931.038C1094.04 930.242 1091.56 929.521 1089.08 928.817L1085.35 927.8C1084.11 927.49 1082.84 927.23 1081.58 926.959C1079.06 926.426 1076.53 925.936 1074 925.486C1071.46 925.096 1068.91 924.795 1066.35 924.51C1061.25 923.869 1056.14 923.799 1051.03 923.708L1050.08 923.701L1049.7 923.711L1048.92 923.733L1047.37 923.776L1044.28 923.861C978.244 925.683 912.21 925.839 846.176 925.95C783.749 925.015 716.835 925.95 648.073 925.95V988.483Z" fill="#CEC6F7"/>
<path fill-rule="evenodd" clip-rule="evenodd" d="M1075.92 1367.17C1078.62 1377.7 1097.31 1382.28 1123.71 1381.4C1142.82 1380.76 1165.97 1377.27 1190.01 1371.11C1209.8 1366.04 1227.89 1359.61 1242.89 1352.63C1271.29 1339.43 1288.63 1324.22 1285.59 1312.34C1282.34 1299.63 1256.57 1294.13 1221.75 1297.01C1206.87 1298.24 1190.32 1301.01 1173.18 1305.4C1155.03 1310.05 1138.15 1316.13 1123.71 1322.85C1092.57 1337.34 1072.75 1354.78 1075.92 1367.17Z" fill="#2A1840"/>
<path fill-rule="evenodd" clip-rule="evenodd" d="M1123.71 1322.85V1465.68H1352.56C1352.56 1465.68 1347.58 1434.94 1281.89 1393.87C1265.63 1383.72 1253.29 1369.63 1243.92 1354.34C1243.57 1353.78 1243.23 1353.21 1242.89 1352.63C1232.54 1335.09 1225.94 1313.61 1221.75 1297.01C1206.87 1298.24 1190.32 1301.01 1173.18 1305.4C1155.03 1310.05 1138.15 1316.13 1123.71 1322.85Z" fill="#EFE6EC"/>
<path fill-rule="evenodd" clip-rule="evenodd" d="M1173.17 1305.93C1172.61 1305.93 1172.09 1305.57 1171.92 1305L1095.09 1059.96C1085.21 1028.06 1056.13 1006.63 1022.74 1006.63H767.164C744.814 1006.63 726.632 988.447 726.632 966.098V928.268C726.632 927.54 727.222 926.951 727.949 926.951C728.676 926.951 729.266 927.54 729.266 928.268V966.098C729.266 986.995 746.268 1004 767.164 1004H1022.74C1057.3 1004 1087.38 1026.17 1097.6 1059.18L1174.43 1304.22C1174.65 1304.91 1174.26 1305.65 1173.57 1305.87C1173.44 1305.91 1173.31 1305.93 1173.17 1305.93Z" fill="#2A1840"/>
<path fill-rule="evenodd" clip-rule="evenodd" d="M1067.42 1313.83C1067.04 1313.83 1066.66 1313.66 1066.4 1313.34C1065.94 1312.78 1066.03 1311.95 1066.59 1311.49C1109.47 1276.61 1161.7 1265.95 1197.97 1263.16C1237.23 1260.13 1266.79 1265.41 1267.09 1265.46C1267.8 1265.6 1268.28 1266.28 1268.15 1267C1268.02 1267.71 1267.33 1268.19 1266.61 1268.06C1266.32 1268 1237.04 1262.78 1198.1 1265.79C1162.23 1268.56 1110.58 1279.1 1068.25 1313.53C1068.01 1313.73 1067.71 1313.83 1067.42 1313.83Z" fill="#2A1840"/>
<path fill-rule="evenodd" clip-rule="evenodd" d="M1345.4 1452.59H1124.4C1123.67 1452.59 1123.08 1452 1123.08 1451.27C1123.08 1450.54 1123.67 1449.95 1124.4 1449.95H1345.4C1346.13 1449.95 1346.72 1450.54 1346.72 1451.27C1346.72 1452 1346.13 1452.59 1345.4 1452.59Z" fill="#2A1840"/>
<path fill-rule="evenodd" clip-rule="evenodd" d="M1164.39 1452.59C1163.66 1452.59 1163.07 1452 1163.07 1451.27C1163.07 1437.97 1156.63 1428.29 1143.92 1422.5C1134.27 1418.11 1124.45 1417.71 1124.35 1417.7C1123.62 1417.68 1123.06 1417.07 1123.08 1416.34C1123.11 1415.61 1123.73 1415.05 1124.44 1415.07C1124.86 1415.09 1165.71 1416.91 1165.71 1451.27C1165.71 1452 1165.12 1452.59 1164.39 1452.59Z" fill="#2A1840"/>
<path fill-rule="evenodd" clip-rule="evenodd" d="M1175.27 1341.75C1175.27 1350.49 1168.18 1357.58 1159.45 1357.58C1150.71 1357.58 1143.62 1350.49 1143.62 1341.75C1143.62 1333.02 1150.71 1325.93 1159.45 1325.93C1168.18 1325.93 1175.27 1333.02 1175.27 1341.75Z" fill="white"/>
<path fill-rule="evenodd" clip-rule="evenodd" d="M1220.99 1362.48C1220.45 1362.48 1219.94 1362.14 1219.75 1361.6C1219.51 1360.91 1219.88 1360.16 1220.56 1359.92L1242.2 1352.46C1242.89 1352.22 1243.64 1352.59 1243.88 1353.28C1244.12 1353.96 1243.75 1354.71 1243.06 1354.95L1221.42 1362.41C1221.28 1362.46 1221.14 1362.48 1220.99 1362.48Z" fill="#2A1840"/>
<path fill-rule="evenodd" clip-rule="evenodd" d="M1228.51 1378.72C1227.97 1378.72 1227.47 1378.39 1227.27 1377.86C1227.02 1377.17 1227.38 1376.42 1228.06 1376.17L1252.53 1367.26C1253.21 1367.01 1253.97 1367.36 1254.21 1368.04C1254.46 1368.73 1254.11 1369.48 1253.43 1369.73L1228.96 1378.64C1228.81 1378.7 1228.66 1378.72 1228.51 1378.72Z" fill="#2A1840"/>
<path fill-rule="evenodd" clip-rule="evenodd" d="M1242.24 1394.13C1241.72 1394.13 1241.22 1393.81 1241.02 1393.3C1240.75 1392.62 1241.08 1391.85 1241.75 1391.58L1266.12 1381.86C1266.79 1381.59 1267.56 1381.92 1267.83 1382.6C1268.1 1383.27 1267.77 1384.04 1267.09 1384.31L1242.73 1394.03C1242.57 1394.09 1242.4 1394.13 1242.24 1394.13Z" fill="#2A1840"/>
<path fill-rule="evenodd" clip-rule="evenodd" d="M1327.77 1318.27C1318.15 1318.27 1302.52 1323.43 1281.85 1333.5C1267.63 1340.42 1254.58 1347.95 1248.16 1351.77C1255.32 1351.6 1269.48 1351.08 1284.44 1349.41C1312.34 1346.3 1330.34 1340.68 1336.49 1333.18C1338.53 1330.68 1339.24 1328.04 1338.65 1325.09C1338.1 1322.32 1336.63 1320.45 1334.14 1319.37C1332.45 1318.64 1330.32 1318.27 1327.77 1318.27ZM1243.31 1354.48C1242.72 1354.48 1242.2 1354.09 1242.04 1353.52C1241.88 1352.95 1242.11 1352.35 1242.61 1352.04C1242.79 1351.93 1260.6 1340.91 1280.69 1331.13C1307.95 1317.86 1326.29 1313.09 1335.19 1316.95C1338.48 1318.38 1340.51 1320.94 1341.24 1324.58C1341.98 1328.29 1341.07 1331.75 1338.52 1334.85C1322.73 1354.13 1246.55 1354.47 1243.31 1354.48H1243.31Z" fill="#2A1840"/>
<path fill-rule="evenodd" clip-rule="evenodd" d="M1318.19 1377.68C1321.27 1376.44 1323.18 1374.22 1324.04 1370.88C1324.88 1367.61 1324.3 1364.87 1322.26 1362.52C1316.92 1356.35 1301.78 1352.96 1278.46 1352.7C1265.87 1352.56 1253.99 1353.38 1248.03 1353.89C1260.28 1361.07 1301.87 1384.24 1318.19 1377.68ZM1243.2 1354.07C1242.73 1353.77 1242.49 1353.21 1242.61 1352.66C1242.74 1352.11 1243.2 1351.7 1243.76 1351.64C1246.47 1351.35 1310.28 1344.66 1324.25 1360.79C1326.86 1363.81 1327.65 1367.42 1326.59 1371.53C1325.52 1375.68 1323.03 1378.57 1319.17 1380.12C1316.92 1381.03 1314.26 1381.43 1311.31 1381.43C1287.62 1381.43 1245.21 1355.32 1243.2 1354.07Z" fill="#2A1840"/>
<path fill-rule="evenodd" clip-rule="evenodd" d="M809.862 776.691C833.766 771.242 857.503 765.107 881.193 758.764L916.697 749.107L918.916 748.501L919.471 748.35C919.047 748.459 918.506 748.584 918.024 748.678C917.06 748.882 915.96 748.996 915.088 749.104C911.522 749.457 907.831 749.288 904.312 748.498C897.253 746.919 890.88 743.227 886.069 737.814C883.646 735.132 881.623 732.023 880.148 728.69C879.765 727.87 879.424 727.024 879.132 726.167C878.847 725.348 878.63 724.756 878.43 724.021L878.29 723.492L878.224 723.226C878.218 723.196 878.196 723.106 878.201 723.125L878.223 723.195L878.395 723.761L878.737 724.891L881.482 733.928L892.473 770.072L903.627 806.164L917.205 864.589L928.574 900.603C936.088 924.405 961.07 937.478 984.373 929.804C1006.58 922.49 1019.25 898.975 1013.89 876.181L1013.84 876.008L1002.8 817.142L993.963 780.685L985.064 744.254L976.002 707.873L973.734 698.78L973.449 697.643L973.309 697.075L972.765 695.123C972.325 693.643 971.922 692.286 971.354 690.739C970.763 689.157 970.124 687.59 969.442 686.046C966.638 679.881 962.886 674.142 958.388 669.142C949.365 659.174 937.429 652.159 924.323 649.38C917.794 647.985 910.999 647.59 904.376 648.317C902.735 648.47 900.887 648.785 899.162 649.102C898.303 649.265 897.382 649.456 896.581 649.636L896.017 649.767L893.759 650.292L857.638 658.729C833.578 664.448 809.564 670.376 785.719 676.988C758.914 684.423 743.085 712.642 750.364 740.02C757.43 766.601 783.681 782.615 809.734 776.721L809.862 776.691Z" fill="#C478CB"/>
<path fill-rule="evenodd" clip-rule="evenodd" d="M629.629 933.845L693.839 724.718C698.594 684.767 732.343 660.412 771.857 661.854L843.356 667.33C877.351 668.571 906.902 685.801 915.028 719.42L933.958 933.845H629.629Z" fill="#C478CB"/>
<mask id="mask14" mask-type="alpha" maskUnits="userSpaceOnUse" x="533" y="641" width="315" height="299">
<path fill-rule="evenodd" clip-rule="evenodd" d="M533.487 641.476H847.743V939.919H533.487V641.476Z" fill="white"/>
</mask>
<g mask="url(#mask14)">
<path fill-rule="evenodd" clip-rule="evenodd" d="M809.342 668.812C798.316 666.062 787.255 663.471 776.206 660.825L743.006 653.13L709.762 645.629L701.443 643.788L699.364 643.328L698.324 643.098L696.272 642.678L693.989 642.274C687.881 641.316 681.546 641.19 675.358 642.059C662.953 643.718 651.233 649.06 641.77 657.219C637.045 661.317 632.877 666.105 629.433 671.408C626.016 676.733 623.373 682.53 621.559 688.503L624.432 681.103L602.453 729.831C595.135 746.078 587.768 762.3 580.546 778.595L558.794 827.437C551.626 843.759 544.382 860.041 537.288 876.4C527.374 899.258 537.524 925.974 559.96 936.075C581.291 945.678 606.128 936.648 617.033 916.102C625.341 900.347 633.498 884.519 641.733 868.728L666.188 821.232C674.369 805.415 682.404 789.525 690.489 773.66L714.717 726.05L717.59 718.649C716.662 721.874 715.219 725.037 713.34 727.927C711.495 730.839 709.225 733.455 706.651 735.666C701.547 740.125 695.199 742.998 688.433 743.936C685.055 744.373 681.587 744.376 678.278 743.84C677.865 743.779 677.453 743.706 677.043 743.624L676.037 743.399L677.073 743.647L679.145 744.144L687.43 746.132L720.604 753.949L753.82 761.573C764.912 764.032 775.988 766.547 787.102 768.903C814.339 774.678 841.013 756.864 846.68 729.115C852.221 701.985 835.538 675.381 809.342 668.812Z" fill="#C478CB"/>
</g>
<path fill-rule="evenodd" clip-rule="evenodd" d="M624.338 681.546C616.403 697.457 608.688 713.476 601.04 729.529L589.651 753.65L578.392 777.835C570.901 793.967 563.389 810.088 556.017 826.278C548.57 842.431 541.284 858.664 533.974 874.885L532.462 878.243C521.666 902.202 532.016 930.524 555.581 941.501C566.398 946.54 578.195 947.024 588.755 943.783L827.699 870.076C846.388 864.311 856.941 844.234 851.271 825.232C845.972 807.471 828.21 796.973 810.673 800.379L565.579 848.908L620.36 917.805C628.454 901.974 636.574 886.155 644.532 870.256C652.563 854.394 660.456 838.462 668.371 822.542L680.218 798.649L691.937 774.691C699.693 758.692 707.383 742.659 714.852 726.518C726.698 700.921 715.891 670.408 690.715 658.365C666.016 646.548 636.624 656.977 624.338 681.546Z" fill="#C478CB"/>
<path fill-rule="evenodd" clip-rule="evenodd" d="M659.7 852.691C659.505 852.691 659.307 852.645 659.121 852.547C659.028 852.499 649.642 847.633 632.445 842.502C616.575 837.766 590.618 831.829 557.082 830.436C556.375 830.407 555.824 829.791 555.853 829.061C555.881 828.33 556.48 827.759 557.185 827.792C591.023 829.197 617.224 835.199 633.245 839.986C650.646 845.186 659.897 849.986 660.282 850.188C660.913 850.518 661.165 851.315 660.845 851.966C660.619 852.426 660.168 852.691 659.7 852.691Z" fill="#2A1840"/>
<path fill-rule="evenodd" clip-rule="evenodd" d="M797.501 733.725C786.925 733.725 776.841 730.315 768.339 723.863C756.183 714.638 748.802 699.532 748.598 683.452C748.553 679.956 748.92 676.283 749.722 672.223L752.477 656.415C752.6 655.706 753.261 655.231 753.962 655.358C754.658 655.484 755.123 656.162 754.999 656.871L752.24 672.707C751.469 676.614 751.117 680.107 751.16 683.419C751.355 698.691 758.349 713.028 769.87 721.771C777.927 727.884 787.481 731.116 797.501 731.116C806.877 731.116 815.922 728.256 823.66 722.844C836.102 714.142 843.625 699.373 843.784 683.338C843.818 679.865 843.415 676.209 842.553 672.159L840.587 663.485C840.428 662.782 840.858 662.082 841.547 661.921C842.235 661.758 842.925 662.196 843.084 662.898L845.054 671.589C845.961 675.849 846.382 679.695 846.346 683.364C846.179 700.249 838.241 715.812 825.111 724.994C816.945 730.706 807.397 733.725 797.501 733.725Z" fill="#2A1840"/>
<path fill-rule="evenodd" clip-rule="evenodd" d="M655.793 830.558C655.713 830.558 655.63 830.549 655.548 830.532C654.863 830.392 654.417 829.704 654.553 828.996L672.314 735.703C672.449 734.995 673.112 734.533 673.798 734.673C674.483 734.812 674.928 735.5 674.793 736.21L657.031 829.502C656.913 830.126 656.384 830.558 655.793 830.558Z" fill="#2A1840"/>
<path fill-rule="evenodd" clip-rule="evenodd" d="M940.458 933.845L909.067 739.841C908.964 739.211 909.868 739.017 910.019 739.638L955.169 924.384L940.458 933.845Z" fill="#2A1840"/>
<path fill-rule="evenodd" clip-rule="evenodd" d="M592.932 945.558C602.757 942.601 612.567 939.584 622.371 936.541L651.79 927.437C671.391 921.326 691.007 915.273 710.57 909C730.14 902.756 749.648 896.267 769.185 889.895L798.446 880.15L827.667 870.241C846.222 863.95 856.243 843.568 850.05 824.717C844.445 807.661 827.478 797.71 810.555 800.63L780.18 805.842L749.845 811.216C729.652 814.924 709.431 818.515 689.27 822.35C669.101 826.157 648.986 830.183 628.859 834.152L598.681 840.167C588.62 842.164 578.565 844.187 568.525 846.27C541.244 851.929 523.644 878.983 529.215 906.698C534.784 934.412 561.416 952.292 588.696 946.633C590.104 946.341 591.578 945.961 592.932 945.558Z" fill="#B48490"/>
<path fill-rule="evenodd" clip-rule="evenodd" d="M780.12 845.792C791.947 842.257 803.732 838.56 815.502 834.783L833.134 829.021L837.536 827.553C838.963 827.08 840.619 826.517 841.623 826.211C843.968 825.469 846.172 824.937 847.776 824.676C849.426 824.415 850.522 824.364 851.69 824.529C852.845 824.696 854.229 825.212 855.862 826.257C857.484 827.301 859.297 828.696 861.096 830.454L861.67 830.98L862.134 831.435C862.441 831.747 862.738 832.077 863.027 832.421L863.246 832.678L863.355 832.812L863.528 833.05L864.213 834.006L865.585 835.919C872.904 846.115 880.349 856.234 888.248 866.071C891.261 869.823 896.689 870.376 900.371 867.306C903.408 864.774 904.302 860.559 902.834 857.057C897.924 845.372 892.559 833.968 887.067 822.642L886.037 820.519L885.523 819.457L885.393 819.191L885.2 818.822L884.8 818.082C884.251 817.104 883.661 816.147 883.032 815.207C882.716 814.738 882.392 814.273 882.057 813.812L881.546 813.126L881.106 812.563C878.847 809.578 876.223 806.562 872.999 803.707C869.78 800.875 865.758 798.153 861.045 796.324C856.354 794.467 851.216 793.689 846.705 793.67C842.132 793.64 838.229 794.21 834.553 794.85C832.538 795.208 831.22 795.498 829.658 795.809L825.099 796.734L806.886 800.537C794.759 803.138 782.649 805.817 770.578 808.66C760.438 811.046 754.117 821.357 756.459 831.688C758.801 842.021 768.919 848.462 779.058 846.075C779.397 845.996 779.791 845.889 780.12 845.792Z" fill="#B48490"/>
<path fill-rule="evenodd" clip-rule="evenodd" d="M767.821 870.617L847.848 838.828L835.726 837.061C835.616 836.949 835.88 837.105 835.996 837.158L836.496 837.438C836.839 837.636 837.202 837.86 837.565 838.091C838.293 838.55 839.027 839.06 839.756 839.581C841.212 840.634 842.638 841.776 843.997 842.981C846.717 845.395 849.194 848.059 851.252 850.929C852.294 852.361 853.234 853.845 854.041 855.38C854.867 856.911 855.584 858.489 856.144 860.115C857.335 863.362 857.901 866.803 857.989 870.394L858.003 870.961C858.121 875.759 862.035 879.551 866.744 879.432C870.822 879.329 874.158 876.322 874.906 872.406C875.928 867.053 876.181 861.372 875.405 855.831C875.056 853.052 874.461 850.315 873.685 847.651C872.924 844.976 871.962 842.383 870.852 839.884C868.646 834.863 865.85 830.227 862.68 825.933C861.091 823.784 859.403 821.723 857.604 819.731C856.699 818.736 855.776 817.756 854.794 816.788C854.304 816.302 853.806 815.822 853.275 815.333L852.455 814.59C852.127 814.309 851.945 814.133 851.382 813.701L851.38 813.699C848.085 811.295 844.07 810.662 840.429 811.617L839.257 811.931L756.186 834.191C746.126 836.887 740.117 847.379 742.763 857.625C745.409 867.872 755.71 873.994 765.769 871.298C766.469 871.11 767.163 870.878 767.821 870.617Z" fill="#B48490"/>
<path fill-rule="evenodd" clip-rule="evenodd" d="M753.079 879.109L833.145 847.21L822.383 846.275L822.382 846.274C822.223 846.18 822.239 846.18 822.244 846.175C822.24 846.165 822.24 846.155 822.268 846.165C822.314 846.177 822.339 846.171 822.405 846.199C822.518 846.235 822.642 846.279 822.783 846.34C823.057 846.452 823.358 846.59 823.663 846.743C824.273 847.051 824.91 847.394 825.532 847.786C826.788 848.551 828.01 849.447 829.16 850.424C831.472 852.378 833.487 854.683 835.097 857.298C836.728 859.907 837.935 862.857 838.706 866.088C839.454 869.322 839.772 872.832 839.631 876.49L839.618 876.81C839.433 881.631 843.108 885.693 847.827 885.883C851.912 886.047 855.439 883.253 856.434 879.374C857.674 874.557 858.384 869.414 858.335 864.093C858.266 858.782 857.393 853.29 855.598 848.051C853.83 842.797 851.191 837.816 847.897 833.366C846.25 831.135 844.452 829.026 842.471 827.047C841.489 826.051 840.448 825.096 839.349 824.154C838.798 823.682 838.229 823.218 837.617 822.749C837.318 822.517 836.996 822.278 836.659 822.037L836.117 821.66L835.799 821.449C835.689 821.38 835.59 821.314 835.316 821.156L835.313 821.154C832.235 819.432 828.78 819.091 825.632 819.929L824.55 820.22L741.438 842.557C731.373 845.262 725.36 855.79 728.008 866.072C730.656 876.354 740.961 882.496 751.026 879.792C751.726 879.603 752.42 879.37 753.079 879.109Z" fill="#B48490"/>
<path fill-rule="evenodd" clip-rule="evenodd" d="M739.903 888.004L821.051 852.429L806.862 849.591H806.861C807.016 849.659 807.431 849.98 807.737 850.205L808.745 850.983C809.422 851.515 810.098 852.066 810.766 852.628C812.101 853.752 813.399 854.916 814.633 856.096C817.093 858.447 819.337 860.935 820.922 863.172C821.717 864.278 822.319 865.318 822.679 866C823.056 866.712 823.162 866.872 823.465 866.643C823.609 866.551 823.804 866.445 823.92 866.483C824.038 866.515 824.052 866.684 823.904 866.932C823.622 867.442 822.647 868.159 821.425 868.767L820.683 869.136C816.453 871.242 814.706 876.427 816.781 880.719C818.546 884.37 822.515 886.196 826.264 885.363C828.842 884.791 831.618 883.984 834.587 882.136C836.057 881.21 837.56 880.008 838.911 878.452C840.262 876.907 841.423 875.001 842.195 872.991C842.978 870.98 843.381 868.911 843.518 866.997C843.658 865.076 843.553 863.297 843.335 861.659C842.883 858.379 842.013 855.626 841.048 853.112C839.087 848.101 836.681 843.958 834.138 840.029C832.86 838.072 831.537 836.19 830.16 834.353C829.472 833.433 828.77 832.526 828.046 831.621L826.936 830.261C826.53 829.78 826.226 829.401 825.65 828.783L825.647 828.781C822.036 825.279 816.994 824.237 812.532 825.607L811.457 825.942L726.91 852.132C716.946 855.219 711.334 865.916 714.377 876.024C717.42 886.134 727.965 891.827 737.93 888.74C738.602 888.531 739.271 888.279 739.903 888.004Z" fill="#B48490"/>
<path fill-rule="evenodd" clip-rule="evenodd" d="M878.26 854.535C877.781 854.535 877.321 854.263 877.099 853.796C877.003 853.595 867.333 833.53 855.438 828.459C854.782 828.179 854.473 827.413 854.749 826.747C855.025 826.082 855.78 825.77 856.436 826.049C869.231 831.504 879.01 851.799 879.419 852.66C879.729 853.31 879.461 854.091 878.819 854.405C878.639 854.493 878.449 854.535 878.26 854.535Z" fill="#2A1840"/>
<path fill-rule="evenodd" clip-rule="evenodd" d="M857.717 872.057C857.659 872.057 857.602 872.053 857.543 872.045C856.847 871.948 856.359 871.292 856.454 870.579C856.484 870.349 859.356 847.409 844.452 842.317C843.785 842.089 843.425 841.351 843.648 840.669C843.87 839.987 844.593 839.619 845.259 839.847C852.31 842.256 856.915 848.446 858.577 857.748C859.801 864.605 859.011 870.677 858.977 870.932C858.89 871.585 858.344 872.057 857.717 872.057Z" fill="#2A1840"/>
<path fill-rule="evenodd" clip-rule="evenodd" d="M839.491 878.513C839.308 878.513 839.122 878.473 838.945 878.391C838.292 878.087 838.008 877.306 838.308 876.648C838.345 876.568 841.927 868.563 838.686 861.887C836.682 857.761 832.463 854.92 826.145 853.44C825.445 853.276 825.009 852.57 825.171 851.863C825.335 851.156 826.034 850.717 826.735 850.88C833.861 852.549 838.673 855.87 841.033 860.75C844.813 868.561 840.843 877.381 840.672 877.752C840.452 878.231 839.982 878.513 839.491 878.513Z" fill="#2A1840"/>
<path fill-rule="evenodd" clip-rule="evenodd" d="M814.455 873.902C813.905 873.902 813.393 873.561 813.213 873.026C812.991 872.361 813.365 871.645 814.052 871.43L819.523 869.707L817.187 869.001C816.499 868.792 816.114 868.082 816.329 867.414C816.544 866.746 817.273 866.373 817.964 866.582L824.219 868.471C824.763 868.635 825.134 869.121 825.137 869.673C825.141 870.224 824.776 870.715 824.235 870.885L814.859 873.839C814.725 873.882 814.589 873.902 814.455 873.902Z" fill="#2A1840"/>
<path fill-rule="evenodd" clip-rule="evenodd" d="M917.358 934.767H1147.89L1209.7 757.703H987.206C982.384 757.703 978.081 760.789 976.462 765.41L917.358 934.767Z" fill="#2A1840"/>
<path fill-rule="evenodd" clip-rule="evenodd" d="M935.763 934.767H1162.28C1163.04 934.767 1163.72 934.279 1163.98 933.548L1221.18 769.492C1223.19 763.746 1219.01 757.703 1213.01 757.703H1004.27C998.686 757.703 993.708 761.276 991.833 766.629L934.065 932.314C933.646 933.509 934.517 934.767 935.763 934.767Z" fill="#50478B"/>
<mask id="mask15" mask-type="alpha" maskUnits="userSpaceOnUse" x="933" y="758" width="289" height="177">
<path fill-rule="evenodd" clip-rule="evenodd" d="M1212.57 758.417C1218.55 758.417 1222.74 764.442 1220.72 770.171L1163.56 933.734C1163.3 934.463 1162.63 934.95 1161.86 934.95H935.484C934.238 934.95 933.367 933.695 933.786 932.503L991.519 767.317C993.393 761.98 998.368 758.417 1003.95 758.417H1212.57Z" fill="white"/>
</mask>
<g mask="url(#mask15)">
<path fill-rule="evenodd" clip-rule="evenodd" d="M1198.3 722.079L914.18 920.711L986.518 968.477L1250.87 798.408L1198.3 722.079Z" fill="#6D61B3"/>
</g>
<path fill-rule="evenodd" clip-rule="evenodd" d="M1090.73 918.168V934.767H808.538C808.538 925.6 815.694 918.168 824.52 918.168H1090.73ZM1080.94 828.713C1087.75 828.713 1092.49 834.286 1091.53 841.163C1090.58 848.039 1084.28 853.613 1077.47 853.613C1070.67 853.613 1065.92 848.039 1066.88 841.163C1067.84 834.286 1074.13 828.713 1080.94 828.713Z" fill="#50478B"/>
<path fill-rule="evenodd" clip-rule="evenodd" d="M1167.84 919.09H938.93C938.222 919.09 937.647 918.471 937.647 917.707C937.647 916.943 938.222 916.323 938.93 916.323H1167.84C1168.55 916.323 1169.12 916.943 1169.12 917.707C1169.12 918.471 1168.55 919.09 1167.84 919.09Z" fill="#2A1840"/>
<path fill-rule="evenodd" clip-rule="evenodd" d="M834.197 664.344L835.949 679.417C836.184 681.568 836.274 683.982 836.144 686.215C834.901 707.562 816.788 723.848 795.686 722.591C774.584 721.333 758.485 703.009 759.728 681.662L761.153 657.182C761.153 657.182 787.466 665.936 834.197 664.344Z" fill="#B48490"/>
<path fill-rule="evenodd" clip-rule="evenodd" d="M842.134 504.321C842.134 535.515 816.846 560.803 785.652 560.803C754.458 560.803 729.171 535.515 729.171 504.321C729.171 473.128 754.458 447.84 785.652 447.84C816.846 447.84 842.134 473.128 842.134 504.321Z" fill="#351B40"/>
<path fill-rule="evenodd" clip-rule="evenodd" d="M874.893 532.486C874.893 563.679 849.605 588.967 818.411 588.967C787.218 588.967 761.93 563.679 761.93 532.486C761.93 501.292 787.218 476.004 818.411 476.004C849.605 476.004 874.893 501.292 874.893 532.486Z" fill="#351B40"/>
<path fill-rule="evenodd" clip-rule="evenodd" d="M790.705 525.374C790.705 556.568 765.417 581.856 734.223 581.856C703.029 581.856 677.742 556.568 677.742 525.374C677.742 494.18 703.029 468.892 734.223 468.892C765.417 468.892 790.705 494.18 790.705 525.374Z" fill="#351B40"/>
<path fill-rule="evenodd" clip-rule="evenodd" d="M779.481 566.843C779.481 598.036 754.194 623.324 722.999 623.324C691.805 623.324 666.517 598.036 666.517 566.843C666.517 535.649 691.805 510.361 722.999 510.361C754.194 510.361 779.481 535.649 779.481 566.843Z" fill="#351B40"/>
<path fill-rule="evenodd" clip-rule="evenodd" d="M821.747 599.509C821.747 630.703 796.459 655.991 765.265 655.991C734.071 655.991 708.784 630.703 708.784 599.509C708.784 568.315 734.071 543.027 765.265 543.027C796.459 543.027 821.747 568.315 821.747 599.509Z" fill="#351B40"/>
<path fill-rule="evenodd" clip-rule="evenodd" d="M863.004 627.712C855.209 635.836 844.552 637.175 833.291 634.918C804.549 629.157 771.725 599.981 771.725 599.981C765.215 594.875 758.285 587.88 753.915 580.163L753.692 579.756C752.537 577.695 751.579 575.57 750.857 573.43C750.516 572.406 750.227 571.37 750.004 570.333C748.599 563.929 747.602 564.466 745.909 553.77C743.559 538.939 749.755 525.815 763.037 518.65C780.925 508.99 804.103 506.51 823.212 514.659C823.263 514.686 823.316 514.699 823.369 514.725C845.917 524.451 857.781 550.135 866.141 571.724C872.979 589.376 877.572 612.527 863.004 627.712Z" fill="#B48490"/>
<path fill-rule="evenodd" clip-rule="evenodd" d="M823.508 568.562L835.498 670.547C837.866 690.688 823.458 708.936 803.316 711.303C783.176 713.671 764.929 699.264 762.561 679.123C762.313 677.015 762.266 674.725 762.373 672.675L768.411 570.166C769.309 554.912 782.403 543.274 797.657 544.174C811.258 544.974 821.982 555.483 823.508 568.562Z" fill="#B48490"/>
<path fill-rule="evenodd" clip-rule="evenodd" d="M831.416 634.174C831.416 634.174 822.905 632.754 811.629 626.959C810.251 626.25 808.888 627.928 809.881 629.118L833.953 657.341L831.416 634.174Z" fill="#2A1840"/>
<path fill-rule="evenodd" clip-rule="evenodd" d="M766.205 605.675C766.205 605.675 768.919 604.056 770.873 601.193C771.171 600.756 771.846 600.88 771.947 601.399C772.642 604.937 773.265 614.3 765.265 622.009L766.205 605.675Z" fill="#2A1840"/>
<path fill-rule="evenodd" clip-rule="evenodd" d="M774.993 590.148C774.341 601.398 764.694 609.987 753.445 609.335C742.196 608.683 733.606 599.035 734.258 587.787C734.91 576.538 744.558 567.948 755.807 568.6C767.056 569.252 775.646 578.899 774.993 590.148Z" fill="#B48490"/>
<path fill-rule="evenodd" clip-rule="evenodd" d="M761.929 591.502C761.759 591.502 761.588 591.469 761.423 591.4L745.403 584.689C744.733 584.409 744.419 583.639 744.699 582.972C744.98 582.302 745.749 581.988 746.416 582.268L762.436 588.979C763.105 589.259 763.42 590.028 763.14 590.696C762.929 591.2 762.442 591.502 761.929 591.502Z" fill="#2A1840"/>
<path fill-rule="evenodd" clip-rule="evenodd" d="M751.971 594.316C751.816 594.316 751.657 594.289 751.503 594.23C750.825 593.971 750.487 593.213 750.745 592.536L753.046 586.514C753.305 585.837 754.062 585.496 754.74 585.756C755.417 586.014 755.756 586.773 755.498 587.45L753.197 593.472C752.997 593.995 752.499 594.316 751.971 594.316Z" fill="#2A1840"/>
<path fill-rule="evenodd" clip-rule="evenodd" d="M755.922 500.136C775.147 500.136 790.732 515.722 790.732 534.947C790.732 543.903 787.35 552.068 781.794 558.237C784.898 565.978 787.13 573.306 788.491 580.221C788.759 580.987 788.894 581.779 788.894 582.558C788.894 585.337 787.202 587.969 784.449 589.029C781.181 590.289 777.501 588.918 775.846 585.869L775.736 585.658L772.326 579.174C770.522 574.084 765.721 570.87 762.236 569.185C760.189 569.562 758.078 569.758 755.922 569.758C736.696 569.758 721.111 554.172 721.111 534.947C721.111 515.722 736.696 500.136 755.922 500.136Z" fill="#351B40"/>
<path fill-rule="evenodd" clip-rule="evenodd" d="M838.417 504.321C838.417 523.547 822.832 539.132 803.607 539.132C784.381 539.132 768.796 523.547 768.796 504.321C768.796 485.096 784.381 469.511 803.607 469.511C822.832 469.511 838.417 485.096 838.417 504.321Z" fill="#351B40"/>
<path fill-rule="evenodd" clip-rule="evenodd" d="M876.577 565.866C876.577 565.866 872.159 575.838 861.285 578.354C856.675 579.413 850.908 579.157 843.843 576.194C843.843 576.194 847.776 568.131 857.079 564.947C862.005 563.245 868.423 562.901 876.577 565.866Z" fill="white"/>
<path fill-rule="evenodd" clip-rule="evenodd" d="M835.508 595.369H835.491L830.703 595.357C829.937 595.354 829.318 594.731 829.32 593.966C829.322 593.201 829.943 592.583 830.706 592.583H830.71L835.498 592.597H835.508C836.526 592.597 837.465 592.133 838.084 591.324C838.705 590.512 838.906 589.481 838.636 588.496L832.882 567.538C832.68 566.8 833.113 566.038 833.852 565.835C834.588 565.633 835.353 566.066 835.555 566.804L841.308 587.762C841.811 589.59 841.438 591.502 840.287 593.008C839.139 594.509 837.398 595.369 835.508 595.369Z" fill="#2A1840"/>
<mask id="mask16" mask-type="alpha" maskUnits="userSpaceOnUse" x="842" y="552" width="34" height="8">
<path fill-rule="evenodd" clip-rule="evenodd" d="M842.803 552.05H875.293V559.023H842.803V552.05Z" fill="white"/>
</mask>
<g mask="url(#mask16)">
<path fill-rule="evenodd" clip-rule="evenodd" d="M873.905 559.023C873.668 559.023 873.429 558.963 873.209 558.835C858.149 550.078 845.495 558.347 844.964 558.703C844.326 559.13 843.467 558.961 843.04 558.327C842.613 557.693 842.78 556.833 843.413 556.405C844.001 556.008 858.001 546.786 874.603 556.438C875.266 556.823 875.49 557.671 875.105 558.334C874.847 558.776 874.383 559.023 873.905 559.023Z" fill="#2A1840"/>
</g>
<mask id="mask17" mask-type="alpha" maskUnits="userSpaceOnUse" x="793" y="554" width="34" height="8">
<path fill-rule="evenodd" clip-rule="evenodd" d="M793.782 554.133H826.272V561.107H793.782V554.133Z" fill="white"/>
</mask>
<g mask="url(#mask17)">
<path fill-rule="evenodd" clip-rule="evenodd" d="M824.884 561.107C824.647 561.107 824.407 561.046 824.188 560.919C809.128 552.161 796.474 560.431 795.942 560.787C795.306 561.214 794.446 561.045 794.019 560.411C793.592 559.776 793.759 558.917 794.392 558.489C794.98 558.091 808.98 548.869 825.582 558.522C826.244 558.907 826.468 559.755 826.084 560.417C825.826 560.86 825.362 561.107 824.884 561.107Z" fill="#2A1840"/>
</g>
<path fill-rule="evenodd" clip-rule="evenodd" d="M828.927 575.55C828.927 575.55 820.226 582.128 809.497 579.055C804.951 577.745 800.032 574.724 795.29 568.707C795.29 568.707 802.64 563.562 812.321 565.291C817.454 566.191 823.234 569.003 828.927 575.55Z" fill="white"/>
<mask id="mask18" mask-type="alpha" maskUnits="userSpaceOnUse" x="795" y="564" width="34" height="16">
<path fill-rule="evenodd" clip-rule="evenodd" d="M795.29 568.707C800.032 574.723 804.951 577.745 809.497 579.055C820.227 582.129 828.927 575.55 828.927 575.55C823.235 569.003 817.454 566.191 812.321 565.291C810.928 565.043 809.584 564.936 808.302 564.936C800.679 564.937 795.29 568.707 795.29 568.707Z" fill="white"/>
</mask>
<g mask="url(#mask18)">
<path fill-rule="evenodd" clip-rule="evenodd" d="M808.703 573.805C808.703 581.412 814.869 587.578 822.475 587.578C830.082 587.578 836.248 581.412 836.248 573.805C836.248 566.199 830.082 560.033 822.475 560.033C814.869 560.033 808.703 566.199 808.703 573.805Z" fill="#2A1840"/>
</g>
<mask id="mask19" mask-type="alpha" maskUnits="userSpaceOnUse" x="843" y="563" width="34" height="16">
<path fill-rule="evenodd" clip-rule="evenodd" d="M857.08 564.948C847.776 568.13 843.843 576.195 843.843 576.195C850.908 579.156 856.674 579.414 861.285 578.354C872.159 575.838 876.577 565.865 876.577 565.865C872.246 564.291 868.405 563.649 865.016 563.649C862.027 563.649 859.389 564.149 857.08 564.948Z" fill="white"/>
</mask>
<g mask="url(#mask19)">
<path fill-rule="evenodd" clip-rule="evenodd" d="M856.405 571.017C856.405 578.623 862.572 584.789 870.178 584.789C877.785 584.789 883.95 578.623 883.95 571.017C883.95 563.41 877.785 557.245 870.178 557.245C862.572 557.245 856.405 563.41 856.405 571.017Z" fill="#2A1840"/>
</g>
<path fill-rule="evenodd" clip-rule="evenodd" d="M830.544 603.267C825.19 603.267 822.405 599.352 821.654 597.131C821.421 596.441 821.792 595.693 822.48 595.461C823.172 595.228 823.914 595.596 824.149 596.282C824.223 596.493 825.95 601.171 831.491 600.579C832.2 600.505 832.865 601.027 832.941 601.751C833.018 602.475 832.493 603.124 831.769 603.2C831.347 603.245 830.939 603.267 830.544 603.267Z" fill="#2A1840"/>
<path fill-rule="evenodd" clip-rule="evenodd" d="M862.441 548.495C859.55 548.495 856.669 549.125 853.969 550.38C849.088 552.646 845.382 556.678 843.533 561.732C839.717 572.165 845.1 583.757 855.533 587.573C865.965 591.39 877.558 586.006 881.374 575.573C883.223 570.519 882.993 565.048 880.727 560.167C878.46 555.287 874.428 551.58 869.375 549.732C867.117 548.907 864.776 548.495 862.441 548.495ZM862.429 592.117C859.759 592.117 857.044 591.658 854.393 590.689C842.243 586.243 835.973 572.743 840.418 560.592C842.571 554.706 846.887 550.011 852.572 547.371C858.256 544.731 864.628 544.464 870.514 546.617C876.4 548.769 881.096 553.085 883.735 558.77C886.375 564.454 886.643 570.827 884.49 576.713C881.015 586.213 872.004 592.117 862.429 592.117Z" fill="#B75B7C"/>
<path fill-rule="evenodd" clip-rule="evenodd" d="M811.477 548.579C808.586 548.579 805.705 549.21 803.004 550.464C798.123 552.73 794.417 556.762 792.568 561.816C788.752 572.248 794.135 583.841 804.568 587.657C815.001 591.473 826.593 586.091 830.409 575.657C834.225 565.225 828.842 553.632 818.409 549.817C816.153 548.99 813.811 548.579 811.477 548.579ZM811.465 592.201C808.793 592.201 806.078 591.742 803.428 590.773C791.278 586.328 785.009 572.827 789.453 560.676C791.606 554.79 795.922 550.095 801.607 547.455C807.291 544.814 813.664 544.547 819.549 546.7C831.699 551.145 837.969 564.647 833.524 576.798C830.049 586.296 821.039 592.201 811.465 592.201Z" fill="#B75B7C"/>
<path fill-rule="evenodd" clip-rule="evenodd" d="M790.934 563.791C790.862 563.811 790.788 563.827 790.713 563.837L752.151 569.026C751.308 569.139 750.534 568.548 750.42 567.706C750.307 566.864 750.9 566.094 751.74 565.975L790.302 560.787C791.145 560.673 791.919 561.264 792.033 562.107C792.135 562.873 791.655 563.584 790.934 563.791Z" fill="#B75B7C"/>
<path fill-rule="evenodd" clip-rule="evenodd" d="M833.556 566.982C833.075 566.982 832.597 566.772 832.269 566.37C831.69 565.659 831.797 564.615 832.507 564.037C836.413 560.857 840.392 562.026 841.951 563.087C842.708 563.604 842.903 564.636 842.387 565.392C841.874 566.144 840.853 566.342 840.096 565.838C839.822 565.663 837.465 564.278 834.603 566.609C834.295 566.859 833.924 566.982 833.556 566.982Z" fill="#B75B7C"/>
<path fill-rule="evenodd" clip-rule="evenodd" d="M1364.46 852.354C1364.46 852.354 1290.55 842.024 1296.92 766.167C1296.92 766.167 1377.49 777.017 1364.46 852.354Z" fill="#555A78"/>
<path fill-rule="evenodd" clip-rule="evenodd" d="M1364.46 853.277C1364.19 853.277 1363.92 853.156 1363.74 852.925L1296.75 767.845C1296.44 767.445 1296.51 766.864 1296.91 766.55C1297.31 766.235 1297.89 766.304 1298.2 766.704L1365.19 851.783C1365.5 852.184 1365.43 852.764 1365.03 853.079C1364.86 853.212 1364.66 853.277 1364.46 853.277Z" fill="white"/>
<path fill-rule="evenodd" clip-rule="evenodd" d="M1432.86 842.79C1432.86 842.79 1443 768.849 1518.87 775.025C1518.87 775.025 1508.23 855.621 1432.86 842.79Z" fill="#DBAAC4"/>
<path fill-rule="evenodd" clip-rule="evenodd" d="M1396.39 856.737C1396.39 856.737 1296.22 814.266 1333.86 709.873C1333.86 709.873 1443.19 755.587 1396.39 856.737Z" fill="#DBAAC4"/>
<path fill-rule="evenodd" clip-rule="evenodd" d="M1422.93 864.271C1422.93 864.271 1539.95 767.915 1448.38 643.332C1448.38 643.332 1320.39 747.648 1422.93 864.271Z" fill="#555A78"/>
<path fill-rule="evenodd" clip-rule="evenodd" d="M1422.93 865.194C1422.89 865.194 1422.86 865.194 1422.82 865.187C1422.32 865.129 1421.95 864.672 1422.01 864.165L1447.47 644.609C1447.53 644.103 1447.99 643.735 1448.49 643.799C1449 643.857 1449.36 644.315 1449.3 644.821L1423.85 864.377C1423.79 864.848 1423.39 865.194 1422.93 865.194Z" fill="white"/>
<path fill-rule="evenodd" clip-rule="evenodd" d="M1494.86 838.027H1309.26C1309.26 873.666 1329.36 904.605 1358.83 920.153L1352.36 934.07H1451.76L1445.3 920.153C1474.77 904.605 1494.86 873.666 1494.86 838.027Z" fill="#E3C3BB"/>
<path fill-rule="evenodd" clip-rule="evenodd" d="M1446.22 921.075H1358.83C1358.32 921.075 1357.9 920.662 1357.9 920.153C1357.9 919.644 1358.32 919.231 1358.83 919.231H1446.22C1446.73 919.231 1447.14 919.644 1447.14 920.153C1447.14 920.662 1446.73 921.075 1446.22 921.075Z" fill="white"/>
<mask id="mask20" mask-type="alpha" maskUnits="userSpaceOnUse" x="1309" y="838" width="186" height="97">
<path fill-rule="evenodd" clip-rule="evenodd" d="M1309.26 838.028C1309.26 873.665 1329.36 904.605 1358.83 920.153L1352.36 934.069H1451.76L1445.3 920.153C1474.77 904.605 1494.86 873.665 1494.86 838.028" fill="white"/>
</mask>
<g mask="url(#mask20)">
<path fill-rule="evenodd" clip-rule="evenodd" d="M1360.94 853.051C1359.19 853.051 1357.47 853.358 1355.88 853.98C1348.51 856.874 1343.71 865.612 1344.73 874.305C1345.51 880.982 1349.42 887.509 1355.41 892.326C1357.92 890.192 1360.36 888.081 1362.75 886.009C1369.53 880.115 1377.08 872.226 1375.25 863.471C1374.53 860.004 1372.08 856.914 1368.53 854.998C1366.14 853.709 1363.51 853.051 1360.94 853.051ZM1297.26 936.393C1296.93 936.393 1296.62 936.226 1296.45 935.927C1296.2 935.484 1296.36 934.922 1296.8 934.67C1318.28 922.451 1337.47 907.51 1353.98 893.54C1347.78 888.442 1343.72 881.57 1342.9 874.519C1341.78 865.021 1347.08 855.453 1355.21 852.263C1359.61 850.535 1364.92 850.951 1369.41 853.375C1373.43 855.55 1376.22 859.094 1377.06 863.094C1379.08 872.787 1371.12 881.176 1363.96 887.402C1361.67 889.393 1359.32 891.419 1356.91 893.47C1357.43 893.846 1357.97 894.21 1358.52 894.559C1364.82 898.556 1372.79 901.005 1382.89 902.046C1404.1 904.231 1427.53 900.106 1456.6 889.067C1465.73 885.601 1474.89 881.71 1483.74 877.945C1497.83 871.957 1512.4 865.763 1527.27 861.111C1527.75 860.961 1528.27 861.23 1528.42 861.716C1528.58 862.202 1528.31 862.72 1527.82 862.872C1513.03 867.497 1498.51 873.671 1484.46 879.643C1475.59 883.414 1466.42 887.312 1457.26 890.792C1427.9 901.937 1404.21 906.097 1382.7 903.88C1372.31 902.81 1364.07 900.27 1357.53 896.117C1356.82 895.665 1356.13 895.191 1355.46 894.698C1338.82 908.795 1319.45 923.91 1297.71 936.273C1297.57 936.355 1297.41 936.393 1297.26 936.393Z" fill="#2A1840"/>
</g>
<mask id="mask21" mask-type="alpha" maskUnits="userSpaceOnUse" x="1309" y="838" width="186" height="97">
<path fill-rule="evenodd" clip-rule="evenodd" d="M1309.26 838.028C1309.26 873.665 1329.36 904.605 1358.83 920.153L1352.36 934.069H1451.76L1445.3 920.153C1474.77 904.605 1494.86 873.665 1494.86 838.028" fill="white"/>
</mask>
<g mask="url(#mask21)">
<path fill-rule="evenodd" clip-rule="evenodd" d="M1458.65 842.38C1457.38 842.38 1456.27 842.547 1455.68 842.657C1448.96 843.903 1442.23 848.475 1442.36 854.8C1442.45 859.419 1446.27 863.067 1450.03 864.632C1450.36 864.774 1450.71 864.904 1451.06 865.024C1455.05 862.229 1458.78 858.765 1462.08 854.739C1463.91 852.507 1466.7 848.28 1464.79 845.043C1463.51 842.88 1460.85 842.38 1458.65 842.38ZM1427.44 874.794C1419.31 874.794 1411.42 872.259 1405.52 867.538C1396.55 860.355 1392.48 848.158 1395.61 837.878C1395.76 837.391 1396.28 837.116 1396.77 837.266C1397.25 837.415 1397.53 837.93 1397.38 838.417C1394.46 847.992 1398.28 859.375 1406.67 866.098C1414.38 872.269 1425.73 874.484 1436.29 871.879C1440.71 870.787 1445.07 868.881 1449.18 866.275C1444.92 864.446 1440.62 860.228 1440.51 854.837C1440.37 847.484 1447.86 842.232 1455.34 840.843C1460.49 839.889 1464.61 841.109 1466.38 844.106C1468.85 848.309 1465.64 853.305 1463.51 855.909C1460.44 859.651 1457.01 862.927 1453.34 865.653C1456.67 866.366 1460.23 866.314 1463.66 866.115C1483.85 864.95 1503.93 859.26 1521.73 849.66C1522.18 849.417 1522.73 849.584 1522.98 850.033C1523.22 850.481 1523.05 851.041 1522.6 851.282C1504.57 861.01 1484.22 866.776 1463.77 867.956C1459.66 868.193 1455.35 868.227 1451.35 867.053C1446.73 870.167 1441.78 872.424 1436.73 873.669C1433.66 874.427 1430.53 874.794 1427.44 874.794Z" fill="#2A1840"/>
</g>
<mask id="mask22" mask-type="alpha" maskUnits="userSpaceOnUse" x="1309" y="838" width="186" height="97">
<path fill-rule="evenodd" clip-rule="evenodd" d="M1309.26 838.028C1309.26 873.665 1329.36 904.605 1358.83 920.153L1352.36 934.069H1451.76L1445.3 920.153C1474.77 904.605 1494.86 873.665 1494.86 838.028" fill="white"/>
</mask>
<g mask="url(#mask22)">
<path fill-rule="evenodd" clip-rule="evenodd" d="M1296.24 880.402C1295.97 880.402 1295.71 880.289 1295.52 880.068C1295.2 879.676 1295.25 879.095 1295.65 878.77C1312.81 864.545 1327.29 847.62 1338.7 828.466C1338.96 828.028 1339.52 827.886 1339.96 828.145C1340.4 828.406 1340.54 828.972 1340.28 829.41C1328.77 848.744 1314.15 865.829 1296.82 880.19C1296.65 880.333 1296.44 880.402 1296.24 880.402Z" fill="#2A1840"/>
</g>
<path fill-rule="evenodd" clip-rule="evenodd" d="M1603.3 926.03C1603.14 926.03 1602.99 926.006 1602.83 925.955C1602.05 925.699 1601.63 924.861 1601.89 924.083L1679.82 687.952L1480.07 514.185C1479.45 513.648 1479.38 512.711 1479.92 512.094C1480.46 511.477 1481.39 511.411 1482.01 511.948L1682.51 686.362C1682.96 686.754 1683.13 687.378 1682.94 687.946L1604.7 925.012C1604.5 925.635 1603.92 926.03 1603.3 926.03Z" fill="#2A1840"/>
<path fill-rule="evenodd" clip-rule="evenodd" d="M1697.49 687.481C1697.49 700.842 1686.66 711.672 1673.3 711.672C1659.94 711.672 1649.11 700.842 1649.11 687.481C1649.11 674.12 1659.94 663.288 1673.3 663.288C1686.66 663.288 1697.49 674.12 1697.49 687.481Z" fill="#CEC6F7"/>
<path fill-rule="evenodd" clip-rule="evenodd" d="M1673.3 680.727C1669.57 680.727 1666.55 683.756 1666.55 687.48C1666.55 691.204 1669.57 694.234 1673.3 694.234C1677.02 694.234 1680.05 691.204 1680.05 687.48C1680.05 683.756 1677.02 680.727 1673.3 680.727ZM1673.3 697.198C1667.94 697.198 1663.58 692.838 1663.58 687.48C1663.58 682.122 1667.94 677.763 1673.3 677.763C1678.66 677.763 1683.02 682.122 1683.02 687.48C1683.02 692.838 1678.66 697.198 1673.3 697.198Z" fill="#2A1840"/>
<mask id="mask23" mask-type="alpha" maskUnits="userSpaceOnUse" x="1520" y="911" width="184" height="22">
<path d="M1520.48 911.899H1703.67V932.488H1520.48V911.899Z" fill="white"/>
</mask>
<g mask="url(#mask23)">
<path fill-rule="evenodd" clip-rule="evenodd" d="M1683.08 911.899H1541.07C1529.7 911.899 1520.48 921.117 1520.48 932.488H1703.67C1703.67 921.117 1694.45 911.899 1683.08 911.899Z" fill="#CEC6F7"/>
</g>
<path fill-rule="evenodd" clip-rule="evenodd" d="M1433.46 657.638L1316.52 540.701L1345.61 511.613C1377.9 479.321 1430.25 479.321 1462.54 511.613C1494.84 543.904 1494.84 596.259 1462.54 628.55L1433.46 657.638Z" fill="#CEC6F7"/>
<path fill-rule="evenodd" clip-rule="evenodd" d="M1471.2 541.465L1432.69 502.954L1451.29 484.359C1456.94 478.704 1466.11 478.704 1471.77 484.359L1489.8 502.391C1495.45 508.046 1495.45 517.215 1489.8 522.87L1471.2 541.465Z" fill="#CEC6F7"/>
<mask id="mask24" mask-type="alpha" maskUnits="userSpaceOnUse" x="1310" y="534" width="131" height="131">
<path d="M1310.22 534.405H1440.34V664.52H1310.22V534.405Z" fill="white"/>
</mask>
<g mask="url(#mask24)">
<path fill-rule="evenodd" clip-rule="evenodd" d="M1433.46 657.638C1417.39 673.705 1378.32 660.681 1346.19 628.553C1314.06 596.42 1301.04 557.348 1317.1 541.282C1329.07 529.316 1353.81 533.496 1378.94 549.7C1387.53 555.237 1396.18 562.187 1404.37 570.378C1412.55 578.563 1419.5 587.207 1425.04 595.799C1441.24 620.921 1445.43 645.668 1433.46 657.638Z" fill="#50478B"/>
</g>
<path fill-rule="evenodd" clip-rule="evenodd" d="M1419.06 603.869C1405.75 617.172 1384.17 617.178 1370.87 603.874C1357.56 590.566 1357.57 568.987 1370.87 555.685C1373.31 553.243 1376.04 551.242 1378.94 549.699C1387.53 555.237 1396.18 562.186 1404.37 570.378C1412.55 578.564 1419.5 587.208 1425.04 595.799C1423.5 598.7 1421.5 601.426 1419.06 603.869Z" fill="#E3C3BB"/>
<path fill-rule="evenodd" clip-rule="evenodd" d="M1478.26 535.887C1477.66 535.887 1477.09 535.518 1476.87 534.921C1476.79 534.692 1468.04 511.911 1439.64 496.613C1438.91 496.225 1438.65 495.326 1439.03 494.605C1439.42 493.884 1440.32 493.616 1441.04 494.003C1470.49 509.862 1479.29 532.916 1479.65 533.89C1479.94 534.657 1479.55 535.509 1478.78 535.794C1478.61 535.856 1478.43 535.887 1478.26 535.887Z" fill="#2A1840"/>
<path fill-rule="evenodd" clip-rule="evenodd" d="M1703.2 929.595H1520.48C1519.66 929.595 1519 928.932 1519 928.113C1519 927.294 1519.66 926.631 1520.48 926.631H1703.2C1704.02 926.631 1704.68 927.294 1704.68 928.113C1704.68 928.932 1704.02 929.595 1703.2 929.595Z" fill="#2A1840"/>
<path fill-rule="evenodd" clip-rule="evenodd" d="M442.433 1465.58C441.783 1465.58 441.186 1465.15 441.005 1464.49L308.693 985.394C308.475 984.605 308.938 983.789 309.728 983.57C310.516 983.351 311.332 983.816 311.551 984.605L443.862 1463.7C444.081 1464.49 443.617 1465.31 442.829 1465.52C442.697 1465.56 442.564 1465.58 442.433 1465.58Z" fill="#2A1840"/>
<path fill-rule="evenodd" clip-rule="evenodd" d="M303.867 1465.58C303.736 1465.58 303.603 1465.56 303.471 1465.52C302.683 1465.31 302.219 1464.49 302.437 1463.7L434.749 984.605C434.967 983.816 435.784 983.352 436.572 983.57C437.361 983.789 437.824 984.605 437.607 985.394L305.294 1464.49C305.114 1465.15 304.517 1465.58 303.867 1465.58Z" fill="#2A1840"/>
<path fill-rule="evenodd" clip-rule="evenodd" d="M1797 1465.58C1796.35 1465.58 1795.76 1465.15 1795.57 1464.49L1663.26 985.394C1663.04 984.605 1663.51 983.789 1664.3 983.57C1665.08 983.351 1665.9 983.816 1666.12 984.605L1798.43 1463.7C1798.65 1464.49 1798.19 1465.31 1797.4 1465.52C1797.27 1465.56 1797.13 1465.58 1797 1465.58Z" fill="#2A1840"/>
<path fill-rule="evenodd" clip-rule="evenodd" d="M1658.44 1465.58C1658.3 1465.58 1658.17 1465.56 1658.04 1465.52C1657.25 1465.31 1656.79 1464.49 1657.01 1463.7L1789.32 984.605C1789.54 983.816 1790.35 983.352 1791.14 983.57C1791.93 983.789 1792.39 984.605 1792.18 985.394L1659.86 1464.49C1659.68 1465.15 1659.09 1465.58 1658.44 1465.58Z" fill="#2A1840"/>
<mask id="mask25" mask-type="alpha" maskUnits="userSpaceOnUse" x="271" y="932" width="1550" height="534">
<path d="M271.811 1465.58H1820.9V932.001H271.811V1465.58Z" fill="white"/>
</mask>
<g mask="url(#mask25)">
<path fill-rule="evenodd" clip-rule="evenodd" d="M271.812 984.999H1820.9V932.001H271.812V984.999Z" fill="#CF8CD2"/>
<path fill-rule="evenodd" clip-rule="evenodd" d="M1817.13 952.038H274.951C273.933 952.038 273.107 951.212 273.107 950.194C273.107 949.176 273.933 948.349 274.951 948.349H1817.13C1818.15 948.349 1818.97 949.176 1818.97 950.194C1818.97 951.212 1818.15 952.038 1817.13 952.038Z" fill="white"/>
</g>
</g>
<defs>
<filter id="filter0_d" x="0" y="0.0834961" width="1925.25" height="1480.33" filterUnits="userSpaceOnUse" color-interpolation-filters="sRGB">
<feFlood flood-opacity="0" result="BackgroundImageFix"/>
<feColorMatrix in="SourceAlpha" type="matrix" values="0 0 0 0 0 0 0 0 0 0 0 0 0 0 0 0 0 0 127 0"/>
<feOffset dy="4"/>
<feGaussianBlur stdDeviation="2"/>
<feColorMatrix type="matrix" values="0 0 0 0 0.85098 0 0 0 0 0.733333 0 0 0 0 0.94902 0 0 0 0.35 0"/>
<feBlend mode="normal" in2="BackgroundImageFix" result="effect1_dropShadow"/>
<feBlend mode="normal" in="SourceGraphic" in2="effect1_dropShadow" result="shape"/>
</filter>
</defs>
</svg>
