<svg width="96" height="93" viewBox="0 0 96 93" fill="none" xmlns="http://www.w3.org/2000/svg">
<path d="M22.3165 80.3093C24.7976 82.3351 28.8052 83.8936 35.0469 82.84C35.0575 84.5259 35.0709 85.989 35.0816 87.1538C35.0921 88.2982 35.1 89.1548 35.1 89.6522C35.1 90.0652 34.9532 90.444 34.6926 90.6775C34.4646 90.8819 34.0004 91.1078 33.0646 90.9481C14.4208 84.8243 1 67.5336 1 47.1682C1 21.6888 22.0159 1.00024 48 1.00024C73.9723 1.00024 95 21.6889 95 47.1682C95 67.503 81.5895 84.8058 62.8098 90.8889C61.8347 91.0638 61.3705 90.8331 61.1515 90.6366C60.8991 90.41 60.756 90.0356 60.756 89.6202C60.756 89.1182 60.7625 88.233 60.7712 87.0422C60.7757 86.4267 60.7808 85.7295 60.786 84.9614C60.801 82.7118 60.816 79.8633 60.816 76.7042C60.816 73.2151 59.8898 70.5423 58.6022 68.7303C63.4077 68.0432 68.3109 66.6473 72.1664 63.4744C76.5893 59.8346 79.476 53.9926 79.476 44.7082C79.476 39.5315 77.6795 35.2369 74.7025 31.8313C75.3484 29.9171 76.4052 25.2415 74.0054 19.1991L73.8298 18.757L73.3759 18.6143L73.076 19.5682C73.3759 18.6143 73.375 18.614 73.374 18.6137L73.372 18.6131L73.3676 18.6117L73.3578 18.6087L73.3336 18.6018C73.3154 18.5967 73.2932 18.5908 73.2669 18.5843C73.2142 18.5714 73.1454 18.5563 73.06 18.5412C72.8892 18.5109 72.6532 18.4806 72.35 18.4671C71.7429 18.44 70.872 18.4804 69.7222 18.7197C67.4871 19.185 64.2066 20.3999 59.7589 23.3219C55.9578 22.3279 51.9462 21.8358 47.9419 21.8123V21.8122L47.9301 21.8123C43.9251 21.8358 39.913 22.3281 36.1113 23.3223C31.6341 20.3995 28.3388 19.1847 26.0966 18.7196C24.9434 18.4804 24.0708 18.44 23.463 18.467C23.1594 18.4806 22.9231 18.5109 22.7522 18.5412C22.6668 18.5563 22.5979 18.5714 22.5452 18.5843C22.5189 18.5908 22.4967 18.5967 22.4785 18.6018L22.4542 18.6087L22.4444 18.6117L22.44 18.613L22.438 18.6137C22.437 18.614 22.436 18.6143 22.736 19.5682L22.436 18.6143L21.9822 18.757L21.8066 19.1991C19.415 25.2207 20.453 29.8937 21.1557 31.844C18.1675 35.2482 16.376 39.5388 16.376 44.7082C16.376 53.969 19.2589 59.8145 23.673 63.4672C27.5251 66.6548 32.4248 68.0697 37.2271 68.7678C36.353 70.0023 35.6578 71.6192 35.3008 73.6158C33.9644 74.144 31.9702 74.7064 29.8735 74.5221C27.5659 74.3193 25.053 73.2097 23.0845 69.8976L23.0794 69.8886C23.0758 69.8823 23.0714 69.8748 23.0664 69.8662C23.0617 69.8582 23.0565 69.8492 23.0506 69.8394C23.0264 69.7984 22.9919 69.7416 22.9473 69.671C22.8583 69.5299 22.7283 69.3333 22.5578 69.0989C22.2178 68.6312 21.7114 68.006 21.0403 67.3683C19.7043 66.0988 17.6577 64.7278 14.9359 64.5425L14.9084 64.5407L14.8808 64.5403L14.868 65.5402C14.8808 64.5403 14.8805 64.5403 14.8801 64.5403H14.8794H14.8775L14.8725 64.5402H14.8575C14.8452 64.5401 14.8287 64.5402 14.8082 64.5403C14.7673 64.5407 14.7105 64.5416 14.6412 64.544C14.5036 64.5486 14.3124 64.5591 14.0967 64.5823C13.705 64.6246 13.0827 64.723 12.5818 65.0027C12.3218 65.1479 11.9973 65.3957 11.8144 65.8056C11.6163 66.2495 11.659 66.7122 11.8298 67.1142C11.9894 67.4899 12.2669 67.836 12.6034 68.161C12.9474 68.4932 13.4007 68.8485 13.9739 69.2341L14.0404 69.2787L14.1056 69.3088L14.1069 69.3094L14.1071 69.3095L14.1095 69.3106L14.1157 69.3138C14.128 69.3201 14.1515 69.3323 14.1852 69.3511C14.2527 69.3886 14.3608 69.4523 14.5018 69.547C14.7838 69.7364 15.1978 70.0497 15.6818 70.5257C16.6432 71.4713 17.894 73.0717 18.9314 75.6455L18.9315 75.6457C18.9397 75.6704 18.951 75.7036 18.9658 75.7447C18.9953 75.8268 19.0384 75.9404 19.0972 76.0803C19.2147 76.3598 19.3953 76.7456 19.6554 77.1944C20.1751 78.0909 21.0179 79.249 22.3165 80.3093Z" fill="#121212" stroke="#F9F6F2" stroke-width="2"/>
</svg>
