<svg width="128" height="128" viewBox="0 0 128 128" fill="none" xmlns="http://www.w3.org/2000/svg">
<rect width="128" height="128" rx="20" fill="#E5E5E5"/>
<g filter="url(#filter0_d)">
<path d="M97.7596 32.7088C98.1501 32.3183 98.1501 31.6851 97.7596 31.2946L95.6388 29.1738C95.2483 28.7833 94.6151 28.7833 94.2246 29.1738L29.1738 94.2246C28.7833 94.6151 28.7833 95.2483 29.1738 95.6388L31.2946 97.7596C31.6851 98.1501 32.3183 98.1501 32.7088 97.7596L36.7088 93.7596C36.8963 93.572 37.1507 93.4667 37.4159 93.4667H88.4667C89.7921 93.4647 91.0628 92.9373 92 92C92.9373 91.0628 93.4647 89.7921 93.4667 88.4667V37.4159C93.4667 37.1507 93.572 36.8963 93.7596 36.7088L97.7596 32.7088ZM88.4667 87.4667C88.4667 88.019 88.019 88.4667 87.4667 88.4667H44.4159C43.525 88.4667 43.0788 87.3895 43.7088 86.7596L60.7771 69.6913C61.1676 69.3008 61.8008 69.3008 62.1913 69.6913L67.4317 74.9317C68.3693 75.869 69.6409 76.3956 70.9667 76.3956C72.2925 76.3956 73.564 75.869 74.5017 74.9317L77.7598 71.6735C78.1503 71.2831 78.7832 71.283 79.1738 71.6733L88.1735 80.6662C88.3612 80.8538 88.4667 81.1083 88.4667 81.3736V87.4667ZM88.4667 71.4725C88.4667 72.3634 87.3895 72.8095 86.7596 72.1796L82.0017 67.4217C81.064 66.4843 79.7925 65.9577 78.4667 65.9577C77.1409 65.9577 75.8693 66.4843 74.9317 67.4217L71.6738 70.6796C71.2833 71.0701 70.6501 71.0701 70.2596 70.6796L65.7313 66.1513C65.3408 65.7608 65.3408 65.1276 65.7313 64.7371L86.7596 43.7088C87.3895 43.0788 88.4667 43.525 88.4667 44.4159V71.4725Z" fill="#FFD085"/>
<path d="M37.4667 78.4667C38.019 78.4667 38.4667 78.019 38.4667 77.4667V71.3811C38.4667 71.1157 38.5721 70.8613 38.7598 70.6737L50.2593 59.1811C50.65 58.7907 51.2832 58.7909 51.6736 59.1816L53.6921 61.2016C54.0826 61.5923 54.7159 61.5924 55.1065 61.2018L57.2321 59.0763C57.6226 58.6858 57.6226 58.0526 57.2321 57.6621L54.5017 54.9317C53.564 53.9943 52.2925 53.4677 50.9667 53.4677C49.6409 53.4677 48.3693 53.9943 47.4317 54.9317L40.1738 62.1896C39.5438 62.8195 38.4667 62.3734 38.4667 61.4825V39.4667C38.4667 38.9144 38.9144 38.4667 39.4667 38.4667H77.4667C78.019 38.4667 78.4667 38.019 78.4667 37.4667V34.4667C78.4667 33.9144 78.019 33.4667 77.4667 33.4667H38.4667C37.141 33.468 35.87 33.9952 34.9326 34.9326C33.9952 35.87 33.468 37.141 33.4667 38.4667V77.4667C33.4667 78.019 33.9144 78.4667 34.4667 78.4667H37.4667Z" fill="#FFD085"/>
</g>
<g filter="url(#filter1_d)">
<path d="M97.7596 30.5754C98.1501 30.1849 98.1501 29.5517 97.7596 29.1612L95.6388 27.0404C95.2483 26.6499 94.6151 26.6499 94.2246 27.0404L29.1738 92.0912C28.7833 92.4817 28.7833 93.1149 29.1738 93.5054L31.2946 95.6262C31.6851 96.0167 32.3183 96.0167 32.7088 95.6262L36.7088 91.6262C36.8963 91.4387 37.1507 91.3333 37.4159 91.3333H88.4667C89.7922 91.3313 91.0628 90.8039 92 89.8667C92.9373 88.9294 93.4647 87.6588 93.4667 86.3333V35.2825C93.4667 35.0173 93.572 34.763 93.7596 34.5754L97.7596 30.5754ZM88.4667 85.3333C88.4667 85.8856 88.019 86.3333 87.4667 86.3333H44.4159C43.525 86.3333 43.0788 85.2562 43.7088 84.6262L60.7771 67.5579C61.1676 67.1674 61.8008 67.1674 62.1913 67.5579L67.4317 72.7983C68.3693 73.7357 69.6409 74.2623 70.9667 74.2623C72.2925 74.2623 73.564 73.7357 74.5017 72.7983L77.7598 69.5402C78.1503 69.1497 78.7832 69.1496 79.1738 69.5399L88.1735 78.5329C88.3612 78.7204 88.4667 78.9749 88.4667 79.2402V85.3333ZM88.4667 69.3391C88.4667 70.23 87.3895 70.6762 86.7596 70.0462L82.0017 65.2883C81.064 64.351 79.7925 63.8244 78.4667 63.8244C77.1409 63.8244 75.8693 64.351 74.9317 65.2883L71.6738 68.5462C71.2833 68.9367 70.6501 68.9367 70.2596 68.5462L65.7313 64.0179C65.3408 63.6274 65.3408 62.9942 65.7313 62.6037L86.7596 41.5754C87.3895 40.9455 88.4667 41.3916 88.4667 42.2825V69.3391Z" fill="#240046"/>
<path d="M37.4667 76.3333C38.019 76.3333 38.4667 75.8856 38.4667 75.3333V69.2477C38.4667 68.9824 38.5721 68.7279 38.7598 68.5404L50.2593 57.0478C50.65 56.6573 51.2832 56.6575 51.6736 57.0482L53.6921 59.0682C54.0826 59.459 54.7159 59.4591 55.1065 59.0684L57.2321 56.9429C57.6226 56.5524 57.6226 55.9192 57.2321 55.5287L54.5017 52.7983C53.564 51.861 52.2925 51.3344 50.9667 51.3344C49.6409 51.3344 48.3693 51.861 47.4317 52.7983L40.1738 60.0562C39.5438 60.6862 38.4667 60.24 38.4667 59.3491V37.3333C38.4667 36.781 38.9144 36.3333 39.4667 36.3333H77.4667C78.019 36.3333 78.4667 35.8856 78.4667 35.3333V32.3333C78.4667 31.781 78.019 31.3333 77.4667 31.3333H38.4667C37.141 31.3346 35.87 31.8618 34.9326 32.7992C33.9952 33.7366 33.468 35.0076 33.4667 36.3333V75.3333C33.4667 75.8856 33.9144 76.3333 34.4667 76.3333H37.4667Z" fill="#240046"/>
</g>
<defs>
<filter id="filter0_d" x="19.4667" y="23.4667" width="88" height="88" filterUnits="userSpaceOnUse" color-interpolation-filters="sRGB">
<feFlood flood-opacity="0" result="BackgroundImageFix"/>
<feColorMatrix in="SourceAlpha" type="matrix" values="0 0 0 0 0 0 0 0 0 0 0 0 0 0 0 0 0 0 127 0"/>
<feOffset dy="4"/>
<feGaussianBlur stdDeviation="2"/>
<feColorMatrix type="matrix" values="0 0 0 0 0.478431 0 0 0 0 0.333333 0 0 0 0 0.603922 0 0 0 0.35 0"/>
<feBlend mode="normal" in2="BackgroundImageFix" result="effect1_dropShadow"/>
<feBlend mode="normal" in="SourceGraphic" in2="effect1_dropShadow" result="shape"/>
</filter>
<filter id="filter1_d" x="19.4667" y="21.3333" width="88" height="88" filterUnits="userSpaceOnUse" color-interpolation-filters="sRGB">
<feFlood flood-opacity="0" result="BackgroundImageFix"/>
<feColorMatrix in="SourceAlpha" type="matrix" values="0 0 0 0 0 0 0 0 0 0 0 0 0 0 0 0 0 0 127 0"/>
<feOffset dy="4"/>
<feGaussianBlur stdDeviation="2"/>
<feColorMatrix type="matrix" values="0 0 0 0 0.478431 0 0 0 0 0.333333 0 0 0 0 0.603922 0 0 0 0.35 0"/>
<feBlend mode="normal" in2="BackgroundImageFix" result="effect1_dropShadow"/>
<feBlend mode="normal" in="SourceGraphic" in2="effect1_dropShadow" result="shape"/>
</filter>
</defs>
</svg>
