<svg width="253" height="86" viewBox="0 0 253 86" fill="none" xmlns="http://www.w3.org/2000/svg">
<g filter="url(#filter0_d)">
<path d="M218.104 38.9247C217.579 36.3511 216.947 32.8908 216.947 31.0722C216.943 30.343 217.083 29.6201 217.36 28.9455C217.638 28.2709 218.047 27.658 218.563 27.1424C219.08 26.6268 219.694 26.2187 220.37 25.9418C221.045 25.6649 221.77 25.5247 222.5 25.5294V25.5294C225.567 25.5294 228.053 28.0697 228.053 31.0722C228.053 32.8415 227.424 36.3211 226.896 38.9247" stroke="#F9F6F2" stroke-width="3" stroke-miterlimit="10" stroke-linecap="round"/>
<path d="M218.104 60.1734C217.577 62.7534 216.947 66.1955 216.947 68.0259C216.943 68.7551 217.083 69.478 217.36 70.1526C217.638 70.8272 218.047 71.4401 218.563 71.9557C219.08 72.4713 219.694 72.8794 220.37 73.1563C221.045 73.4332 221.77 73.5733 222.5 73.5686V73.5686C225.567 73.5686 228.053 71.0284 228.053 68.0259C228.053 66.2523 227.424 62.7791 226.896 60.1734" stroke="#F9F6F2" stroke-width="3" stroke-miterlimit="10" stroke-linecap="round"/>
<path d="M233.143 45.1611C235.728 44.6346 239.176 44.0063 241.01 44.0063C241.74 44.0016 242.465 44.1417 243.14 44.4186C243.816 44.6955 244.43 45.1036 244.947 45.6192C245.463 46.1348 245.872 46.7477 246.149 47.4223C246.427 48.0969 246.567 48.8198 246.562 49.549V49.549C246.562 52.6104 244.018 55.0917 241.01 55.0917C239.237 55.0917 235.752 54.4644 233.143 53.9369" stroke="#F9F6F2" stroke-width="3" stroke-miterlimit="10" stroke-linecap="round"/>
<path d="M211.857 45.1601C209.279 44.6357 205.814 44.0063 203.99 44.0063C203.26 44.0016 202.536 44.1417 201.86 44.4186C201.184 44.6955 200.57 45.1036 200.053 45.6192C199.537 46.1348 199.128 46.7477 198.851 47.4223C198.573 48.0969 198.433 48.8198 198.438 49.549V49.549C198.438 52.6104 200.982 55.0917 203.99 55.0917C205.763 55.0917 209.249 54.4644 211.857 53.9369" stroke="#F9F6F2" stroke-width="3" stroke-miterlimit="10" stroke-linecap="round"/>
<path d="M226.896 38.9246C228.351 36.7285 230.365 33.858 231.662 32.5648C232.175 32.0457 232.786 31.6336 233.46 31.3523C234.134 31.071 234.858 30.9261 235.588 30.9261C236.319 30.9261 237.042 31.071 237.716 31.3523C238.39 31.6336 239.001 32.0457 239.515 32.5648V32.5648C241.683 34.7298 241.642 38.2802 239.515 40.4033C238.262 41.6547 235.361 43.6921 233.143 45.1611" stroke="#F9F6F2" stroke-width="3" stroke-miterlimit="10" stroke-linecap="round"/>
<path d="M211.857 53.9369C209.657 55.3898 206.781 57.4004 205.486 58.6947C204.966 59.2069 204.553 59.8171 204.271 60.4899C203.989 61.1627 203.844 61.8847 203.844 62.614C203.844 63.3432 203.989 64.0652 204.271 64.738C204.553 65.4108 204.966 66.021 205.486 66.5332C207.654 68.6982 211.211 68.6564 213.338 66.5332C214.592 65.2829 216.633 62.3866 218.104 60.1734" stroke="#F9F6F2" stroke-width="3" stroke-miterlimit="10" stroke-linecap="round"/>
<path d="M233.143 53.9369C235.343 55.3898 238.219 57.4004 239.515 58.6947C240.035 59.2069 240.447 59.8171 240.729 60.4899C241.011 61.1627 241.156 61.8847 241.156 62.614C241.156 63.3432 241.011 64.0652 240.729 64.738C240.447 65.4108 240.035 66.021 239.515 66.5332V66.5332C237.346 68.6982 233.789 68.6564 231.662 66.5332C230.406 65.2797 228.368 62.3888 226.896 60.1734" stroke="#F9F6F2" stroke-width="3" stroke-miterlimit="10" stroke-linecap="round"/>
<path d="M218.104 38.9246C216.651 36.7339 214.626 33.8505 213.338 32.5648C212.825 32.0457 212.213 31.6336 211.539 31.3523C210.865 31.071 210.142 30.9261 209.412 30.9261C208.681 30.9261 207.958 31.071 207.284 31.3523C206.61 31.6336 205.998 32.0457 205.485 32.5648V32.5648C203.317 34.7298 203.358 38.2802 205.485 40.4033C206.733 41.6483 209.643 43.6932 211.857 45.1611" stroke="#F9F6F2" stroke-width="3" stroke-miterlimit="10" stroke-linecap="round"/>
<path d="M222.5 56.4118C226.297 56.4118 229.375 53.3392 229.375 49.549C229.375 45.7588 226.297 42.6863 222.5 42.6863C218.703 42.6863 215.625 45.7588 215.625 49.549C215.625 53.3392 218.703 56.4118 222.5 56.4118Z" stroke="#F9F6F2" stroke-width="3" stroke-miterlimit="10" stroke-linecap="round"/>
</g>
<g filter="url(#filter1_d)">
<path d="M218.104 37.8266C217.579 35.2531 216.947 31.7928 216.947 29.9741C216.943 29.2449 217.083 28.5221 217.36 27.8475C217.638 27.1729 218.047 26.56 218.563 26.0444C219.08 25.5287 219.694 25.1206 220.37 24.8437C221.045 24.5669 221.77 24.4267 222.5 24.4314V24.4314C225.567 24.4314 228.053 26.9717 228.053 29.9741C228.053 31.7434 227.424 35.2231 226.896 37.8266" stroke="#AA88C6" stroke-width="3" stroke-miterlimit="10" stroke-linecap="round"/>
<path d="M218.104 59.0754C217.577 61.6553 216.947 65.0974 216.947 66.9279C216.943 67.6571 217.083 68.3799 217.36 69.0545C217.638 69.7291 218.047 70.342 218.563 70.8577C219.08 71.3733 219.694 71.7814 220.37 72.0583C221.045 72.3351 221.77 72.4753 222.5 72.4706V72.4706C225.567 72.4706 228.053 69.9303 228.053 66.9279C228.053 65.1543 227.424 61.6811 226.896 59.0754" stroke="#AA88C6" stroke-width="3" stroke-miterlimit="10" stroke-linecap="round"/>
<path d="M233.143 44.0631C235.728 43.5366 239.176 42.9082 241.01 42.9082C241.74 42.9035 242.465 43.0437 243.14 43.3206C243.816 43.5975 244.43 44.0055 244.947 44.5212C245.463 45.0368 245.872 45.6497 246.149 46.3243C246.427 46.9989 246.567 47.7218 246.562 48.451V48.451C246.562 51.5124 244.018 53.9937 241.01 53.9937C239.237 53.9937 235.752 53.3664 233.143 52.8388" stroke="#AA88C6" stroke-width="3" stroke-miterlimit="10" stroke-linecap="round"/>
<path d="M211.857 44.062C209.279 43.5377 205.814 42.9082 203.99 42.9082C203.26 42.9035 202.536 43.0437 201.86 43.3206C201.184 43.5975 200.57 44.0055 200.053 44.5212C199.537 45.0368 199.128 45.6497 198.851 46.3243C198.573 46.9989 198.433 47.7218 198.438 48.451V48.451C198.438 51.5124 200.982 53.9937 203.99 53.9937C205.763 53.9937 209.249 53.3664 211.857 52.8388" stroke="#AA88C6" stroke-width="3" stroke-miterlimit="10" stroke-linecap="round"/>
<path d="M226.896 37.8266C228.351 35.6305 230.365 32.7599 231.662 31.4667C232.175 30.9477 232.786 30.5355 233.46 30.2542C234.134 29.9729 234.858 29.8281 235.588 29.8281C236.319 29.8281 237.042 29.9729 237.716 30.2542C238.39 30.5355 239.001 30.9477 239.515 31.4667V31.4667C241.683 33.6317 241.642 37.1821 239.515 39.3053C238.262 40.5567 235.361 42.594 233.143 44.0631" stroke="#AA88C6" stroke-width="3" stroke-miterlimit="10" stroke-linecap="round"/>
<path d="M211.857 52.8388C209.657 54.2918 206.781 56.3024 205.486 57.5967C204.966 58.1089 204.553 58.7191 204.271 59.3919C203.989 60.0647 203.844 60.7867 203.844 61.5159C203.844 62.2452 203.989 62.9671 204.271 63.6399C204.553 64.3128 204.966 64.923 205.486 65.4352C207.654 67.6002 211.211 67.5584 213.338 65.4352C214.592 64.1849 216.633 61.2886 218.104 59.0754" stroke="#AA88C6" stroke-width="3" stroke-miterlimit="10" stroke-linecap="round"/>
<path d="M233.143 52.8388C235.343 54.2918 238.219 56.3024 239.515 57.5967C240.035 58.1089 240.447 58.7191 240.729 59.3919C241.011 60.0647 241.156 60.7867 241.156 61.5159C241.156 62.2452 241.011 62.9671 240.729 63.6399C240.447 64.3128 240.035 64.923 239.515 65.4352V65.4352C237.346 67.6002 233.789 67.5584 231.662 65.4352C230.406 64.1817 228.368 61.2907 226.896 59.0754" stroke="#AA88C6" stroke-width="3" stroke-miterlimit="10" stroke-linecap="round"/>
<path d="M218.104 37.8266C216.651 35.6359 214.626 32.7524 213.338 31.4667C212.825 30.9477 212.213 30.5355 211.539 30.2542C210.865 29.9729 210.142 29.8281 209.412 29.8281C208.681 29.8281 207.958 29.9729 207.284 30.2542C206.61 30.5355 205.998 30.9477 205.485 31.4667V31.4667C203.317 33.6317 203.358 37.1821 205.485 39.3053C206.733 40.5502 209.643 42.5951 211.857 44.0631" stroke="#AA88C6" stroke-width="3" stroke-miterlimit="10" stroke-linecap="round"/>
<path d="M222.5 55.3137C226.297 55.3137 229.375 52.2412 229.375 48.451C229.375 44.6608 226.297 41.5882 222.5 41.5882C218.703 41.5882 215.625 44.6608 215.625 48.451C215.625 52.2412 218.703 55.3137 222.5 55.3137Z" stroke="#AA88C6" stroke-width="3" stroke-miterlimit="10" stroke-linecap="round"/>
</g>
<g filter="url(#filter2_d)">
<path d="M38.4375 50.332C38.4375 56.4258 37.1367 61.1836 34.5352 64.6055C31.9336 68.0039 28.3008 69.7031 23.6367 69.7031C19.5117 69.7031 16.2188 68.1211 13.7578 64.957L13.3008 69H4.16016V15H14.3203V34.3711C16.6641 31.6289 19.7461 30.2578 23.5664 30.2578C28.207 30.2578 31.8398 31.9688 34.4648 35.3906C37.1133 38.7891 38.4375 43.582 38.4375 49.7695V50.332ZM28.2773 49.5938C28.2773 45.75 27.668 42.9492 26.4492 41.1914C25.2305 39.4102 23.4141 38.5195 21 38.5195C17.7656 38.5195 15.5391 39.8438 14.3203 42.4922V57.5039C15.5625 60.1758 17.8125 61.5117 21.0703 61.5117C24.3516 61.5117 26.5078 59.8945 27.5391 56.6602C28.0312 55.1133 28.2773 52.7578 28.2773 49.5938ZM55.4531 69H45.2578V15H55.4531V69ZM62.2734 49.6289C62.2734 45.8555 63 42.4922 64.4531 39.5391C65.9062 36.5859 67.9922 34.3008 70.7109 32.6836C73.4531 31.0664 76.6289 30.2578 80.2383 30.2578C85.3711 30.2578 89.5547 31.8281 92.7891 34.9688C96.0469 38.1094 97.8633 42.375 98.2383 47.7656L98.3086 50.3672C98.3086 56.2031 96.6797 60.8906 93.4219 64.4297C90.1641 67.9453 85.793 69.7031 80.3086 69.7031C74.8242 69.7031 70.4414 67.9453 67.1602 64.4297C63.9023 60.9141 62.2734 56.1328 62.2734 50.0859V49.6289ZM72.4336 50.3672C72.4336 53.9766 73.1133 56.7422 74.4727 58.6641C75.832 60.5625 77.7773 61.5117 80.3086 61.5117C82.7695 61.5117 84.6914 60.5742 86.0742 58.6992C87.457 56.8008 88.1484 53.7773 88.1484 49.6289C88.1484 46.0898 87.457 43.3477 86.0742 41.4023C84.6914 39.457 82.7461 38.4844 80.2383 38.4844C77.7539 38.4844 75.832 39.457 74.4727 41.4023C73.1133 43.3242 72.4336 46.3125 72.4336 50.3672ZM102.984 49.6289C102.984 45.8555 103.711 42.4922 105.164 39.5391C106.617 36.5859 108.703 34.3008 111.422 32.6836C114.164 31.0664 117.34 30.2578 120.949 30.2578C126.082 30.2578 130.266 31.8281 133.5 34.9688C136.758 38.1094 138.574 42.375 138.949 47.7656L139.02 50.3672C139.02 56.2031 137.391 60.8906 134.133 64.4297C130.875 67.9453 126.504 69.7031 121.02 69.7031C115.535 69.7031 111.152 67.9453 107.871 64.4297C104.613 60.9141 102.984 56.1328 102.984 50.0859V49.6289ZM113.145 50.3672C113.145 53.9766 113.824 56.7422 115.184 58.6641C116.543 60.5625 118.488 61.5117 121.02 61.5117C123.48 61.5117 125.402 60.5742 126.785 58.6992C128.168 56.8008 128.859 53.7773 128.859 49.6289C128.859 46.0898 128.168 43.3477 126.785 41.4023C125.402 39.457 123.457 38.4844 120.949 38.4844C118.465 38.4844 116.543 39.457 115.184 41.4023C113.824 43.3242 113.145 46.3125 113.145 50.3672ZM154.805 30.9609L155.121 35.2148C157.816 31.9102 161.461 30.2578 166.055 30.2578C170.953 30.2578 174.316 32.1914 176.145 36.0586C178.816 32.1914 182.625 30.2578 187.57 30.2578C191.695 30.2578 194.766 31.4648 196.781 33.8789C198.797 36.2695 199.805 39.8789 199.805 44.707V69H189.609V44.7422C189.609 42.5859 189.188 41.0156 188.344 40.0312C187.5 39.0234 186.012 38.5195 183.879 38.5195C180.832 38.5195 178.723 39.9727 177.551 42.8789L177.586 69H167.426V44.7773C167.426 42.5742 166.992 40.9805 166.125 39.9961C165.258 39.0117 163.781 38.5195 161.695 38.5195C158.812 38.5195 156.727 39.7148 155.438 42.1055V69H145.277V30.9609H154.805Z" fill="#E5E5E5"/>
</g>
<g filter="url(#filter3_d)">
<path d="M38.4375 48.332C38.4375 54.4258 37.1367 59.1836 34.5352 62.6055C31.9336 66.0039 28.3008 67.7031 23.6367 67.7031C19.5117 67.7031 16.2188 66.1211 13.7578 62.957L13.3008 67H4.16016V13H14.3203V32.3711C16.6641 29.6289 19.7461 28.2578 23.5664 28.2578C28.207 28.2578 31.8398 29.9688 34.4648 33.3906C37.1133 36.7891 38.4375 41.582 38.4375 47.7695V48.332ZM28.2773 47.5938C28.2773 43.75 27.668 40.9492 26.4492 39.1914C25.2305 37.4102 23.4141 36.5195 21 36.5195C17.7656 36.5195 15.5391 37.8438 14.3203 40.4922V55.5039C15.5625 58.1758 17.8125 59.5117 21.0703 59.5117C24.3516 59.5117 26.5078 57.8945 27.5391 54.6602C28.0312 53.1133 28.2773 50.7578 28.2773 47.5938ZM55.4531 67H45.2578V13H55.4531V67ZM62.2734 47.6289C62.2734 43.8555 63 40.4922 64.4531 37.5391C65.9062 34.5859 67.9922 32.3008 70.7109 30.6836C73.4531 29.0664 76.6289 28.2578 80.2383 28.2578C85.3711 28.2578 89.5547 29.8281 92.7891 32.9688C96.0469 36.1094 97.8633 40.375 98.2383 45.7656L98.3086 48.3672C98.3086 54.2031 96.6797 58.8906 93.4219 62.4297C90.1641 65.9453 85.793 67.7031 80.3086 67.7031C74.8242 67.7031 70.4414 65.9453 67.1602 62.4297C63.9023 58.9141 62.2734 54.1328 62.2734 48.0859V47.6289ZM72.4336 48.3672C72.4336 51.9766 73.1133 54.7422 74.4727 56.6641C75.832 58.5625 77.7773 59.5117 80.3086 59.5117C82.7695 59.5117 84.6914 58.5742 86.0742 56.6992C87.457 54.8008 88.1484 51.7773 88.1484 47.6289C88.1484 44.0898 87.457 41.3477 86.0742 39.4023C84.6914 37.457 82.7461 36.4844 80.2383 36.4844C77.7539 36.4844 75.832 37.457 74.4727 39.4023C73.1133 41.3242 72.4336 44.3125 72.4336 48.3672ZM102.984 47.6289C102.984 43.8555 103.711 40.4922 105.164 37.5391C106.617 34.5859 108.703 32.3008 111.422 30.6836C114.164 29.0664 117.34 28.2578 120.949 28.2578C126.082 28.2578 130.266 29.8281 133.5 32.9688C136.758 36.1094 138.574 40.375 138.949 45.7656L139.02 48.3672C139.02 54.2031 137.391 58.8906 134.133 62.4297C130.875 65.9453 126.504 67.7031 121.02 67.7031C115.535 67.7031 111.152 65.9453 107.871 62.4297C104.613 58.9141 102.984 54.1328 102.984 48.0859V47.6289ZM113.145 48.3672C113.145 51.9766 113.824 54.7422 115.184 56.6641C116.543 58.5625 118.488 59.5117 121.02 59.5117C123.48 59.5117 125.402 58.5742 126.785 56.6992C128.168 54.8008 128.859 51.7773 128.859 47.6289C128.859 44.0898 128.168 41.3477 126.785 39.4023C125.402 37.457 123.457 36.4844 120.949 36.4844C118.465 36.4844 116.543 37.457 115.184 39.4023C113.824 41.3242 113.145 44.3125 113.145 48.3672ZM154.805 28.9609L155.121 33.2148C157.816 29.9102 161.461 28.2578 166.055 28.2578C170.953 28.2578 174.316 30.1914 176.145 34.0586C178.816 30.1914 182.625 28.2578 187.57 28.2578C191.695 28.2578 194.766 29.4648 196.781 31.8789C198.797 34.2695 199.805 37.8789 199.805 42.707V67H189.609V42.7422C189.609 40.5859 189.188 39.0156 188.344 38.0312C187.5 37.0234 186.012 36.5195 183.879 36.5195C180.832 36.5195 178.723 37.9727 177.551 40.8789L177.586 67H167.426V42.7773C167.426 40.5742 166.992 38.9805 166.125 37.9961C165.258 37.0117 163.781 36.5195 161.695 36.5195C158.812 36.5195 156.727 37.7148 155.438 40.1055V67H145.277V28.9609H154.805Z" fill="#D9BBF2"/>
</g>
<defs>
<filter id="filter0_d" x="191" y="22.098" width="63" height="62.902" filterUnits="userSpaceOnUse" color-interpolation-filters="sRGB">
<feFlood flood-opacity="0" result="BackgroundImageFix"/>
<feColorMatrix in="SourceAlpha" type="matrix" values="0 0 0 0 0 0 0 0 0 0 0 0 0 0 0 0 0 0 127 0"/>
<feOffset dy="4"/>
<feGaussianBlur stdDeviation="2"/>
<feColorMatrix type="matrix" values="0 0 0 0 0.85098 0 0 0 0 0.733333 0 0 0 0 0.94902 0 0 0 0.15 0"/>
<feBlend mode="normal" in2="BackgroundImageFix" result="effect1_dropShadow"/>
<feBlend mode="normal" in="SourceGraphic" in2="effect1_dropShadow" result="shape"/>
</filter>
<filter id="filter1_d" x="191" y="21" width="63" height="62.902" filterUnits="userSpaceOnUse" color-interpolation-filters="sRGB">
<feFlood flood-opacity="0" result="BackgroundImageFix"/>
<feColorMatrix in="SourceAlpha" type="matrix" values="0 0 0 0 0 0 0 0 0 0 0 0 0 0 0 0 0 0 127 0"/>
<feOffset dy="4"/>
<feGaussianBlur stdDeviation="2"/>
<feColorMatrix type="matrix" values="0 0 0 0 0.85098 0 0 0 0 0.733333 0 0 0 0 0.94902 0 0 0 0.15 0"/>
<feBlend mode="normal" in2="BackgroundImageFix" result="effect1_dropShadow"/>
<feBlend mode="normal" in="SourceGraphic" in2="effect1_dropShadow" result="shape"/>
</filter>
<filter id="filter2_d" x="0.160156" y="15" width="203.645" height="62.7031" filterUnits="userSpaceOnUse" color-interpolation-filters="sRGB">
<feFlood flood-opacity="0" result="BackgroundImageFix"/>
<feColorMatrix in="SourceAlpha" type="matrix" values="0 0 0 0 0 0 0 0 0 0 0 0 0 0 0 0 0 0 127 0"/>
<feOffset dy="4"/>
<feGaussianBlur stdDeviation="2"/>
<feColorMatrix type="matrix" values="0 0 0 0 0.85098 0 0 0 0 0.733333 0 0 0 0 0.94902 0 0 0 0.15 0"/>
<feBlend mode="normal" in2="BackgroundImageFix" result="effect1_dropShadow"/>
<feBlend mode="normal" in="SourceGraphic" in2="effect1_dropShadow" result="shape"/>
</filter>
<filter id="filter3_d" x="0.160156" y="13" width="203.645" height="62.7031" filterUnits="userSpaceOnUse" color-interpolation-filters="sRGB">
<feFlood flood-opacity="0" result="BackgroundImageFix"/>
<feColorMatrix in="SourceAlpha" type="matrix" values="0 0 0 0 0 0 0 0 0 0 0 0 0 0 0 0 0 0 127 0"/>
<feOffset dy="4"/>
<feGaussianBlur stdDeviation="2"/>
<feColorMatrix type="matrix" values="0 0 0 0 0.85098 0 0 0 0 0.733333 0 0 0 0 0.94902 0 0 0 0.15 0"/>
<feBlend mode="normal" in2="BackgroundImageFix" result="effect1_dropShadow"/>
<feBlend mode="normal" in="SourceGraphic" in2="effect1_dropShadow" result="shape"/>
</filter>
</defs>
</svg>
