<svg width="77" height="80" viewBox="0 0 77 80" fill="none" xmlns="http://www.w3.org/2000/svg">
<g filter="url(#filter0_d)">
<path d="M32.5059 23.7424C31.7896 20.2714 30.9282 15.6043 30.9282 13.1515C30.9218 12.168 31.1133 11.1931 31.4915 10.2832C31.8698 9.37337 32.4272 8.54674 33.1316 7.85129C33.836 7.15585 34.6733 6.60544 35.5948 6.232C36.5164 5.85855 37.5039 5.66952 38.5 5.67586V5.67586C42.6821 5.67586 46.0718 9.10202 46.0718 13.1515C46.0718 15.5378 45.2149 20.2309 44.4941 23.7424" stroke="#FFD085" stroke-width="3" stroke-miterlimit="10" stroke-linecap="round"/>
<path d="M32.5059 52.4012C31.7866 55.8808 30.9282 60.5233 30.9282 62.992C30.9218 63.9755 31.1133 64.9505 31.4915 65.8603C31.8698 66.7702 32.4272 67.5968 33.1316 68.2922C33.836 68.9877 34.6733 69.5381 35.5948 69.9115C36.5164 70.285 37.5039 70.474 38.5 70.4677V70.4677C42.6821 70.4677 46.0718 67.0415 46.0718 62.992C46.0718 60.5999 45.2149 55.9155 44.4941 52.4012" stroke="#FFD085" stroke-width="3" stroke-miterlimit="10" stroke-linecap="round"/>
<path d="M53.0137 32.1537C56.5381 31.4436 61.2402 30.5961 63.7407 30.5961C64.7369 30.5897 65.7244 30.7788 66.6459 31.1522C67.5675 31.5256 68.4047 32.076 69.1091 32.7715C69.8135 33.4669 70.371 34.2936 70.7492 35.2034C71.1275 36.1133 71.3189 37.0882 71.3125 38.0717V38.0717C71.3125 42.2007 67.8423 45.5474 63.7407 45.5474C61.3237 45.5474 56.5703 44.7013 53.0137 43.9898" stroke="#FFD085" stroke-width="3" stroke-miterlimit="10" stroke-linecap="round"/>
<path d="M23.9865 32.1522C20.4708 31.445 15.7467 30.5961 13.2594 30.5961C12.2633 30.5897 11.2758 30.7788 10.3542 31.1522C9.43268 31.5256 8.59542 32.076 7.89103 32.7715C7.18665 33.4669 6.62916 34.2936 6.25091 35.2034C5.87267 36.1133 5.6812 37.0882 5.68763 38.0717V38.0717C5.68763 42.2007 9.15784 45.5474 13.2594 45.5474C15.6764 45.5474 20.4298 44.7013 23.9865 43.9898" stroke="#FFD085" stroke-width="3" stroke-miterlimit="10" stroke-linecap="round"/>
<path d="M44.4941 23.7423C46.479 20.7804 49.2256 16.9088 50.9937 15.1646C51.6934 14.4645 52.527 13.9087 53.4461 13.5293C54.3652 13.1499 55.3515 12.9545 56.3477 12.9545C57.3439 12.9545 58.3301 13.1499 59.2492 13.5293C60.1683 13.9087 61.002 14.4645 61.7017 15.1646V15.1646C64.6592 18.0846 64.6021 22.8731 61.7017 25.7367C59.9937 27.4244 56.0371 30.1723 53.0137 32.1537" stroke="#FFD085" stroke-width="3" stroke-miterlimit="10" stroke-linecap="round"/>
<path d="M23.9864 43.9898C20.9864 45.9494 17.065 48.6611 15.2984 50.4068C14.5893 51.0976 14.0263 51.9206 13.642 52.8281C13.2578 53.7355 13.0599 54.7092 13.0599 55.6928C13.0599 56.6763 13.2578 57.6501 13.642 58.5575C14.0263 59.4649 14.5893 60.288 15.2984 60.9788C18.2559 63.8988 23.106 63.8424 26.0064 60.9788C27.7159 59.2925 30.4991 55.3862 32.5059 52.4011" stroke="#FFD085" stroke-width="3" stroke-miterlimit="10" stroke-linecap="round"/>
<path d="M53.0137 43.9898C56.0137 45.9494 59.9351 48.6611 61.7017 50.4068C62.4107 51.0976 62.9738 51.9206 63.358 52.8281C63.7423 53.7355 63.9402 54.7092 63.9402 55.6928C63.9402 56.6763 63.7423 57.6501 63.358 58.5575C62.9738 59.4649 62.4107 60.288 61.7017 60.9788V60.9788C58.7441 63.8988 53.894 63.8424 50.9937 60.9788C49.2813 59.2882 46.5024 55.3891 44.4941 52.4011" stroke="#FFD085" stroke-width="3" stroke-miterlimit="10" stroke-linecap="round"/>
<path d="M32.5058 23.7423C30.5238 20.7876 27.7626 16.8987 26.0063 15.1646C25.3065 14.4645 24.4729 13.9087 23.5538 13.5293C22.6347 13.1499 21.6484 12.9545 20.6522 12.9545C19.656 12.9545 18.6698 13.1499 17.7507 13.5293C16.8316 13.9087 15.998 14.4645 15.2982 15.1646V15.1646C12.3407 18.0846 12.3978 22.8731 15.2982 25.7367C16.9989 27.4158 20.9672 30.1738 23.9862 32.1537" stroke="#FFD085" stroke-width="3" stroke-miterlimit="10" stroke-linecap="round"/>
<path d="M38.5 47.3277C43.6777 47.3277 47.875 43.1837 47.875 38.0717C47.875 32.9598 43.6777 28.8158 38.5 28.8158C33.3223 28.8158 29.125 32.9598 29.125 38.0717C29.125 43.1837 33.3223 47.3277 38.5 47.3277Z" stroke="#FFD085" stroke-width="3" stroke-miterlimit="10" stroke-linecap="round"/>
</g>
<g filter="url(#filter1_d)">
<path d="M32.5059 22.6945C31.7896 19.2236 30.9282 14.5565 30.9282 12.1037C30.9218 11.1202 31.1133 10.1452 31.4915 9.23539C31.8698 8.32554 32.4272 7.49892 33.1316 6.80347C33.836 6.10803 34.6733 5.55762 35.5948 5.18417C36.5164 4.81073 37.5039 4.6217 38.5 4.62804V4.62804C42.6821 4.62804 46.0718 8.0542 46.0718 12.1037C46.0718 14.49 45.2149 19.1831 44.4941 22.6945" stroke="#7A559A" stroke-width="3" stroke-miterlimit="10" stroke-linecap="round"/>
<path d="M32.5059 51.3533C31.7866 54.833 30.9282 59.4755 30.9282 61.9442C30.9218 62.9277 31.1133 63.9026 31.4915 64.8125C31.8698 65.7223 32.4272 66.549 33.1316 67.2444C33.836 67.9399 34.6733 68.4903 35.5948 68.8637C36.5164 69.2372 37.5039 69.4262 38.5 69.4198V69.4198C42.6821 69.4198 46.0718 65.9937 46.0718 61.9442C46.0718 59.5521 45.2149 54.8677 44.4941 51.3533" stroke="#7A559A" stroke-width="3" stroke-miterlimit="10" stroke-linecap="round"/>
<path d="M53.0137 31.1058C56.5381 30.3957 61.2402 29.5482 63.7407 29.5482C64.7369 29.5419 65.7244 29.7309 66.6459 30.1044C67.5675 30.4778 68.4047 31.0282 69.1091 31.7237C69.8135 32.4191 70.371 33.2457 70.7492 34.1556C71.1275 35.0654 71.3189 36.0404 71.3125 37.0239V37.0239C71.3125 41.1529 67.8423 44.4995 63.7407 44.4995C61.3237 44.4995 56.5703 43.6535 53.0137 42.9419" stroke="#7A559A" stroke-width="3" stroke-miterlimit="10" stroke-linecap="round"/>
<path d="M23.9865 31.1044C20.4708 30.3972 15.7467 29.5482 13.2594 29.5482C12.2633 29.5419 11.2758 29.7309 10.3542 30.1044C9.43268 30.4778 8.59542 31.0282 7.89103 31.7237C7.18665 32.4191 6.62916 33.2457 6.25091 34.1556C5.87267 35.0654 5.6812 36.0404 5.68763 37.0239V37.0239C5.68763 41.1529 9.15784 44.4995 13.2594 44.4995C15.6764 44.4995 20.4298 43.6535 23.9865 42.9419" stroke="#7A559A" stroke-width="3" stroke-miterlimit="10" stroke-linecap="round"/>
<path d="M44.4941 22.6945C46.479 19.7326 49.2256 15.861 50.9937 14.1168C51.6934 13.4167 52.527 12.8608 53.4461 12.4814C54.3652 12.102 55.3515 11.9067 56.3477 11.9067C57.3439 11.9067 58.3301 12.102 59.2492 12.4814C60.1683 12.8608 61.002 13.4167 61.7017 14.1168V14.1168C64.6592 17.0368 64.6021 21.8253 61.7017 24.6889C59.9937 26.3766 56.0371 29.1245 53.0137 31.1059" stroke="#7A559A" stroke-width="3" stroke-miterlimit="10" stroke-linecap="round"/>
<path d="M23.9864 42.9419C20.9864 44.9016 17.065 47.6133 15.2984 49.3589C14.5893 50.0498 14.0263 50.8728 13.642 51.7802C13.2578 52.6877 13.0599 53.6614 13.0599 54.645C13.0599 55.6285 13.2578 56.6023 13.642 57.5097C14.0263 58.4171 14.5893 59.2402 15.2984 59.931C18.2559 62.851 23.106 62.7946 26.0064 59.931C27.7159 58.2447 30.4991 54.3384 32.5059 51.3533" stroke="#7A559A" stroke-width="3" stroke-miterlimit="10" stroke-linecap="round"/>
<path d="M53.0137 42.9419C56.0137 44.9016 59.9351 47.6133 61.7017 49.3589C62.4107 50.0498 62.9738 50.8728 63.358 51.7802C63.7423 52.6877 63.9402 53.6614 63.9402 54.645C63.9402 55.6285 63.7423 56.6023 63.358 57.5097C62.9738 58.4171 62.4107 59.2402 61.7017 59.931V59.931C58.7441 62.851 53.894 62.7946 50.9937 59.931C49.2813 58.2403 46.5024 54.3413 44.4941 51.3533" stroke="#7A559A" stroke-width="3" stroke-miterlimit="10" stroke-linecap="round"/>
<path d="M32.5058 22.6945C30.5238 19.7398 27.7626 15.8508 26.0063 14.1168C25.3065 13.4167 24.4729 12.8608 23.5538 12.4814C22.6347 12.102 21.6484 11.9067 20.6522 11.9067C19.656 11.9067 18.6698 12.102 17.7507 12.4814C16.8316 12.8608 15.998 13.4167 15.2982 14.1168V14.1168C12.3407 17.0368 12.3978 21.8253 15.2982 24.6889C16.9989 26.3679 20.9672 29.1259 23.9862 31.1059" stroke="#7A559A" stroke-width="3" stroke-miterlimit="10" stroke-linecap="round"/>
<path d="M38.5 46.2799C43.6777 46.2799 47.875 42.1358 47.875 37.0239C47.875 31.912 43.6777 27.7679 38.5 27.7679C33.3223 27.7679 29.125 31.912 29.125 37.0239C29.125 42.1358 33.3223 46.2799 38.5 46.2799Z" stroke="#7A559A" stroke-width="3" stroke-miterlimit="10" stroke-linecap="round"/>
</g>
<defs>
<filter id="filter0_d" x="-3" y="1.04782" width="83" height="82.0478" filterUnits="userSpaceOnUse" color-interpolation-filters="sRGB">
<feFlood flood-opacity="0" result="BackgroundImageFix"/>
<feColorMatrix in="SourceAlpha" type="matrix" values="0 0 0 0 0 0 0 0 0 0 0 0 0 0 0 0 0 0 127 0"/>
<feOffset dy="4"/>
<feGaussianBlur stdDeviation="2"/>
<feColorMatrix type="matrix" values="0 0 0 0 0.478431 0 0 0 0 0.333333 0 0 0 0 0.603922 0 0 0 0.35 0"/>
<feBlend mode="normal" in2="BackgroundImageFix" result="effect1_dropShadow"/>
<feBlend mode="normal" in="SourceGraphic" in2="effect1_dropShadow" result="shape"/>
</filter>
<filter id="filter1_d" x="-3" y="0" width="83" height="82.0478" filterUnits="userSpaceOnUse" color-interpolation-filters="sRGB">
<feFlood flood-opacity="0" result="BackgroundImageFix"/>
<feColorMatrix in="SourceAlpha" type="matrix" values="0 0 0 0 0 0 0 0 0 0 0 0 0 0 0 0 0 0 127 0"/>
<feOffset dy="4"/>
<feGaussianBlur stdDeviation="2"/>
<feColorMatrix type="matrix" values="0 0 0 0 0.478431 0 0 0 0 0.333333 0 0 0 0 0.603922 0 0 0 0.35 0"/>
<feBlend mode="normal" in2="BackgroundImageFix" result="effect1_dropShadow"/>
<feBlend mode="normal" in="SourceGraphic" in2="effect1_dropShadow" result="shape"/>
</filter>
</defs>
</svg>
