<svg width="61" height="63" viewBox="0 0 61 63" fill="none" xmlns="http://www.w3.org/2000/svg">
<g filter="url(#filter0_d)">
<path d="M26.1043 17.9247C25.579 15.3511 24.9474 11.8908 24.9474 10.0722C24.9427 9.34298 25.0831 8.62012 25.3605 7.94552C25.6378 7.27092 26.0467 6.65802 26.5632 6.14239C27.0798 5.62676 27.6938 5.21867 28.3696 4.94178C29.0454 4.6649 29.7695 4.52474 30.5 4.52944V4.52944C33.5669 4.52944 36.0527 7.06973 36.0527 10.0722C36.0527 11.8415 35.4242 15.3211 34.8957 17.9247" stroke="#F9F6F2" stroke-width="3" stroke-miterlimit="10" stroke-linecap="round"/>
<path d="M26.1043 39.1734C25.5769 41.7534 24.9474 45.1955 24.9474 47.0259C24.9427 47.7551 25.0831 48.478 25.3605 49.1526C25.6378 49.8272 26.0467 50.4401 26.5632 50.9557C27.0798 51.4713 27.6938 51.8794 28.3696 52.1563C29.0454 52.4332 29.7695 52.5733 30.5 52.5686V52.5686C33.5669 52.5686 36.0527 50.0284 36.0527 47.0259C36.0527 45.2523 35.4242 41.7791 34.8957 39.1734" stroke="#F9F6F2" stroke-width="3" stroke-miterlimit="10" stroke-linecap="round"/>
<path d="M41.1433 24.1611C43.7279 23.6346 47.1762 23.0063 49.0099 23.0063C49.7404 23.0016 50.4645 23.1417 51.1403 23.4186C51.8161 23.6955 52.4301 24.1036 52.9467 24.6192C53.4632 25.1348 53.872 25.7477 54.1494 26.4223C54.4268 27.0969 54.5672 27.8198 54.5625 28.549V28.549C54.5625 31.6104 52.0177 34.0917 49.0099 34.0917C47.2374 34.0917 43.7515 33.4644 41.1433 32.9369" stroke="#F9F6F2" stroke-width="3" stroke-miterlimit="10" stroke-linecap="round"/>
<path d="M19.8568 24.1601C17.2786 23.6357 13.8143 23.0063 11.9903 23.0063C11.2598 23.0016 10.5356 23.1417 9.85979 23.4186C9.18399 23.6955 8.57 24.1036 8.05345 24.6192C7.5369 25.1348 7.12807 25.7477 6.85069 26.4223C6.57331 27.0969 6.43291 27.8198 6.43761 28.549V28.549C6.43761 31.6104 8.98244 34.0917 11.9903 34.0917C13.7627 34.0917 17.2486 33.4644 19.8568 32.9369" stroke="#F9F6F2" stroke-width="3" stroke-miterlimit="10" stroke-linecap="round"/>
<path d="M34.8957 17.9246C36.3513 15.7285 38.3654 12.858 39.662 11.5648C40.1751 11.0457 40.7865 10.6336 41.4605 10.3523C42.1345 10.071 42.8577 9.92612 43.5883 9.92612C44.3188 9.92612 45.0421 10.071 45.7161 10.3523C46.3901 10.6336 47.0014 11.0457 47.5146 11.5648V11.5648C49.6834 13.7298 49.6415 17.2802 47.5146 19.4033C46.262 20.6547 43.3605 22.6921 41.1434 24.1611" stroke="#F9F6F2" stroke-width="3" stroke-miterlimit="10" stroke-linecap="round"/>
<path d="M19.8567 32.9369C17.6567 34.3898 14.781 36.4004 13.4855 37.6947C12.9655 38.2069 12.5527 38.8171 12.2709 39.4899C11.989 40.1627 11.8439 40.8847 11.8439 41.614C11.8439 42.3432 11.989 43.0652 12.2709 43.738C12.5527 44.4108 12.9655 45.021 13.4855 45.5332C15.6544 47.6982 19.2111 47.6564 21.3381 45.5332C22.5917 44.2829 24.6327 41.3866 26.1044 39.1734" stroke="#F9F6F2" stroke-width="3" stroke-miterlimit="10" stroke-linecap="round"/>
<path d="M41.1433 32.9369C43.3433 34.3898 46.219 36.4004 47.5145 37.6947C48.0345 38.2069 48.4474 38.8171 48.7292 39.4899C49.011 40.1627 49.1561 40.8847 49.1561 41.614C49.1561 42.3432 49.011 43.0652 48.7292 43.738C48.4474 44.4108 48.0345 45.021 47.5145 45.5332V45.5332C45.3457 47.6982 41.789 47.6564 39.662 45.5332C38.4062 44.2797 36.3684 41.3888 34.8957 39.1734" stroke="#F9F6F2" stroke-width="3" stroke-miterlimit="10" stroke-linecap="round"/>
<path d="M26.1042 17.9246C24.6508 15.7339 22.6259 12.8505 21.3379 11.5648C20.8248 11.0457 20.2134 10.6336 19.5394 10.3523C18.8654 10.071 18.1422 9.92612 17.4116 9.92612C16.6811 9.92612 15.9578 10.071 15.2838 10.3523C14.6098 10.6336 13.9985 11.0457 13.4854 11.5648V11.5648C11.3165 13.7298 11.3584 17.2802 13.4854 19.4033C14.7325 20.6483 17.6426 22.6932 19.8565 24.1611" stroke="#F9F6F2" stroke-width="3" stroke-miterlimit="10" stroke-linecap="round"/>
<path d="M30.5 35.4118C34.297 35.4118 37.375 32.3392 37.375 28.549C37.375 24.7588 34.297 21.6863 30.5 21.6863C26.703 21.6863 23.625 24.7588 23.625 28.549C23.625 32.3392 26.703 35.4118 30.5 35.4118Z" stroke="#F9F6F2" stroke-width="3" stroke-miterlimit="10" stroke-linecap="round"/>
</g>
<g filter="url(#filter1_d)">
<path d="M26.1043 16.8266C25.579 14.2531 24.9474 10.7928 24.9474 8.97414C24.9427 8.24495 25.0831 7.52208 25.3605 6.84748C25.6378 6.17288 26.0467 5.55999 26.5632 5.04436C27.0798 4.52873 27.6938 4.12063 28.3696 3.84375C29.0454 3.56686 29.7695 3.4267 30.5 3.4314V3.4314C33.5669 3.4314 36.0527 5.97169 36.0527 8.97414C36.0527 10.7434 35.4242 14.2231 34.8957 16.8266" stroke="#AA88C6" stroke-width="3" stroke-miterlimit="10" stroke-linecap="round"/>
<path d="M26.1043 38.0754C25.5769 40.6553 24.9474 44.0974 24.9474 45.9279C24.9427 46.6571 25.0831 47.3799 25.3605 48.0545C25.6378 48.7291 26.0467 49.342 26.5632 49.8577C27.0798 50.3733 27.6938 50.7814 28.3696 51.0583C29.0454 51.3351 29.7695 51.4753 30.5 51.4706V51.4706C33.5669 51.4706 36.0527 48.9303 36.0527 45.9279C36.0527 44.1543 35.4242 40.6811 34.8957 38.0754" stroke="#AA88C6" stroke-width="3" stroke-miterlimit="10" stroke-linecap="round"/>
<path d="M41.1433 23.0631C43.7279 22.5366 47.1762 21.9082 49.0099 21.9082C49.7404 21.9035 50.4645 22.0437 51.1403 22.3206C51.8161 22.5975 52.4301 23.0055 52.9467 23.5212C53.4632 24.0368 53.872 24.6497 54.1494 25.3243C54.4268 25.9989 54.5672 26.7218 54.5625 27.451V27.451C54.5625 30.5124 52.0177 32.9937 49.0099 32.9937C47.2374 32.9937 43.7515 32.3664 41.1433 31.8388" stroke="#AA88C6" stroke-width="3" stroke-miterlimit="10" stroke-linecap="round"/>
<path d="M19.8568 23.062C17.2786 22.5377 13.8143 21.9082 11.9903 21.9082C11.2598 21.9035 10.5356 22.0437 9.85979 22.3206C9.18399 22.5975 8.57 23.0055 8.05345 23.5212C7.5369 24.0368 7.12807 24.6497 6.85069 25.3243C6.57331 25.9989 6.43291 26.7218 6.43761 27.451V27.451C6.43761 30.5124 8.98244 32.9937 11.9903 32.9937C13.7627 32.9937 17.2486 32.3664 19.8568 31.8388" stroke="#AA88C6" stroke-width="3" stroke-miterlimit="10" stroke-linecap="round"/>
<path d="M34.8957 16.8266C36.3513 14.6305 38.3654 11.7599 39.662 10.4667C40.1751 9.94768 40.7865 9.53554 41.4605 9.25424C42.1345 8.97293 42.8577 8.82808 43.5883 8.82808C44.3188 8.82808 45.0421 8.97293 45.7161 9.25424C46.3901 9.53554 47.0014 9.94768 47.5146 10.4667V10.4667C49.6834 12.6317 49.6415 16.1821 47.5146 18.3053C46.262 19.5567 43.3605 21.594 41.1434 23.0631" stroke="#AA88C6" stroke-width="3" stroke-miterlimit="10" stroke-linecap="round"/>
<path d="M19.8567 31.8388C17.6567 33.2918 14.781 35.3024 13.4855 36.5967C12.9655 37.1089 12.5527 37.7191 12.2709 38.3919C11.989 39.0647 11.8439 39.7867 11.8439 40.5159C11.8439 41.2452 11.989 41.9671 12.2709 42.6399C12.5527 43.3128 12.9655 43.923 13.4855 44.4352C15.6544 46.6002 19.2111 46.5584 21.3381 44.4352C22.5917 43.1849 24.6327 40.2886 26.1044 38.0754" stroke="#AA88C6" stroke-width="3" stroke-miterlimit="10" stroke-linecap="round"/>
<path d="M41.1433 31.8388C43.3433 33.2918 46.219 35.3024 47.5145 36.5967C48.0345 37.1089 48.4474 37.7191 48.7292 38.3919C49.011 39.0647 49.1561 39.7867 49.1561 40.5159C49.1561 41.2452 49.011 41.9671 48.7292 42.6399C48.4474 43.3128 48.0345 43.923 47.5145 44.4352V44.4352C45.3457 46.6002 41.789 46.5584 39.662 44.4352C38.4062 43.1817 36.3684 40.2907 34.8957 38.0754" stroke="#AA88C6" stroke-width="3" stroke-miterlimit="10" stroke-linecap="round"/>
<path d="M26.1042 16.8266C24.6508 14.6359 22.6259 11.7524 21.3379 10.4667C20.8248 9.94768 20.2134 9.53554 19.5394 9.25424C18.8654 8.97293 18.1422 8.82808 17.4116 8.82808C16.6811 8.82808 15.9578 8.97293 15.2838 9.25424C14.6098 9.53554 13.9985 9.94768 13.4854 10.4667V10.4667C11.3165 12.6317 11.3584 16.1821 13.4854 18.3053C14.7325 19.5502 17.6426 21.5951 19.8565 23.0631" stroke="#AA88C6" stroke-width="3" stroke-miterlimit="10" stroke-linecap="round"/>
<path d="M30.5 34.3137C34.297 34.3137 37.375 31.2412 37.375 27.451C37.375 23.6608 34.297 20.5882 30.5 20.5882C26.703 20.5882 23.625 23.6608 23.625 27.451C23.625 31.2412 26.703 34.3137 30.5 34.3137Z" stroke="#AA88C6" stroke-width="3" stroke-miterlimit="10" stroke-linecap="round"/>
</g>
<defs>
<filter id="filter0_d" x="-1" y="1.09804" width="63" height="62.902" filterUnits="userSpaceOnUse" color-interpolation-filters="sRGB">
<feFlood flood-opacity="0" result="BackgroundImageFix"/>
<feColorMatrix in="SourceAlpha" type="matrix" values="0 0 0 0 0 0 0 0 0 0 0 0 0 0 0 0 0 0 127 0"/>
<feOffset dy="4"/>
<feGaussianBlur stdDeviation="2"/>
<feColorMatrix type="matrix" values="0 0 0 0 0.85098 0 0 0 0 0.733333 0 0 0 0 0.94902 0 0 0 0.15 0"/>
<feBlend mode="normal" in2="BackgroundImageFix" result="effect1_dropShadow"/>
<feBlend mode="normal" in="SourceGraphic" in2="effect1_dropShadow" result="shape"/>
</filter>
<filter id="filter1_d" x="-1" y="0" width="63" height="62.902" filterUnits="userSpaceOnUse" color-interpolation-filters="sRGB">
<feFlood flood-opacity="0" result="BackgroundImageFix"/>
<feColorMatrix in="SourceAlpha" type="matrix" values="0 0 0 0 0 0 0 0 0 0 0 0 0 0 0 0 0 0 127 0"/>
<feOffset dy="4"/>
<feGaussianBlur stdDeviation="2"/>
<feColorMatrix type="matrix" values="0 0 0 0 0.85098 0 0 0 0 0.733333 0 0 0 0 0.94902 0 0 0 0.15 0"/>
<feBlend mode="normal" in2="BackgroundImageFix" result="effect1_dropShadow"/>
<feBlend mode="normal" in="SourceGraphic" in2="effect1_dropShadow" result="shape"/>
</filter>
</defs>
</svg>
